G04 EAGLE Gerber RS-274X export*
G75*
%MOMM*%
%FSLAX34Y34*%
%LPD*%
%INBottom Copper*%
%IPPOS*%
%AMOC8*
5,1,8,0,0,1.08239X$1,22.5*%
G01*
%ADD10C,1.879600*%
%ADD11C,1.158000*%
%ADD12R,3.600000X2.600000*%
%ADD13R,1.200000X2.000000*%
%ADD14R,0.600000X1.350000*%
%ADD15R,0.950000X0.850000*%
%ADD16C,0.270000*%
%ADD17C,0.706400*%
%ADD18C,0.200000*%
%ADD19C,0.508000*%
%ADD20C,0.254000*%
%ADD21C,0.609600*%
%ADD22C,0.304800*%

G36*
X228836Y1396D02*
X228836Y1396D01*
X228924Y1402D01*
X228940Y1409D01*
X230020Y1382D01*
X230027Y1383D01*
X230039Y1382D01*
X230093Y1382D01*
X230110Y1385D01*
X230145Y1384D01*
X233428Y1614D01*
X233460Y1621D01*
X233494Y1621D01*
X233636Y1659D01*
X239807Y3947D01*
X239866Y3981D01*
X239930Y4006D01*
X239998Y4056D01*
X240019Y4068D01*
X240028Y4078D01*
X240049Y4094D01*
X244929Y8509D01*
X244972Y8563D01*
X245022Y8610D01*
X245066Y8681D01*
X245081Y8700D01*
X245086Y8713D01*
X245099Y8736D01*
X247992Y14647D01*
X248001Y14679D01*
X248018Y14707D01*
X248057Y14849D01*
X248607Y18056D01*
X248608Y18075D01*
X248618Y18183D01*
X248618Y22062D01*
X248606Y22135D01*
X248604Y22208D01*
X248587Y22254D01*
X248579Y22303D01*
X248544Y22368D01*
X248518Y22437D01*
X248487Y22475D01*
X248464Y22518D01*
X248410Y22569D01*
X248363Y22625D01*
X248322Y22651D01*
X248286Y22685D01*
X248219Y22716D01*
X248156Y22754D01*
X248108Y22766D01*
X248063Y22786D01*
X247990Y22793D01*
X247919Y22810D01*
X247870Y22805D01*
X247820Y22810D01*
X247749Y22793D01*
X247676Y22786D01*
X247631Y22766D01*
X247583Y22755D01*
X247520Y22716D01*
X247453Y22686D01*
X247397Y22639D01*
X247375Y22626D01*
X247365Y22613D01*
X247339Y22592D01*
X244487Y19740D01*
X240473Y18077D01*
X236127Y18077D01*
X232113Y19740D01*
X229040Y22813D01*
X227377Y26827D01*
X227377Y31173D01*
X229040Y35187D01*
X232113Y38260D01*
X232418Y38386D01*
X232459Y38412D01*
X232505Y38429D01*
X232563Y38476D01*
X232625Y38515D01*
X232656Y38553D01*
X232694Y38584D01*
X232733Y38647D01*
X232780Y38704D01*
X232797Y38750D01*
X232823Y38791D01*
X232840Y38863D01*
X232866Y38932D01*
X232868Y38981D01*
X232879Y39029D01*
X232872Y39102D01*
X232874Y39176D01*
X232860Y39223D01*
X232855Y39272D01*
X232825Y39339D01*
X232803Y39409D01*
X232775Y39449D01*
X232755Y39494D01*
X232662Y39607D01*
X232661Y39608D01*
X221174Y51095D01*
X219475Y52794D01*
X219475Y92900D01*
X219459Y92996D01*
X219450Y93093D01*
X219440Y93116D01*
X219436Y93141D01*
X219390Y93227D01*
X219349Y93315D01*
X219328Y93341D01*
X219321Y93356D01*
X219302Y93373D01*
X219256Y93430D01*
X201757Y110928D01*
X201757Y300427D01*
X201741Y300523D01*
X201732Y300620D01*
X201722Y300643D01*
X201718Y300668D01*
X201672Y300754D01*
X201631Y300842D01*
X201610Y300868D01*
X201603Y300883D01*
X201584Y300900D01*
X201538Y300957D01*
X173811Y328684D01*
X173731Y328741D01*
X173656Y328803D01*
X173633Y328811D01*
X173612Y328826D01*
X173519Y328854D01*
X173428Y328889D01*
X173395Y328892D01*
X173379Y328897D01*
X173354Y328896D01*
X173281Y328903D01*
X149316Y328903D01*
X149220Y328887D01*
X149123Y328878D01*
X149100Y328868D01*
X149075Y328864D01*
X148989Y328818D01*
X148901Y328777D01*
X148875Y328756D01*
X148860Y328749D01*
X148843Y328730D01*
X148786Y328684D01*
X144696Y324594D01*
X143121Y323018D01*
X143092Y322979D01*
X143057Y322945D01*
X143022Y322880D01*
X142979Y322820D01*
X142965Y322773D01*
X142941Y322730D01*
X142929Y322657D01*
X142908Y322587D01*
X142910Y322538D01*
X142902Y322489D01*
X142913Y322417D01*
X142916Y322343D01*
X142933Y322297D01*
X142941Y322249D01*
X143001Y322115D01*
X143002Y322114D01*
X143368Y321481D01*
X143541Y320834D01*
X143541Y308999D01*
X123750Y308999D01*
X123726Y308995D01*
X123702Y308998D01*
X123606Y308975D01*
X123509Y308959D01*
X123488Y308948D01*
X123464Y308942D01*
X123381Y308891D01*
X123294Y308844D01*
X123277Y308827D01*
X123257Y308814D01*
X123194Y308738D01*
X123127Y308666D01*
X123117Y308644D01*
X123102Y308625D01*
X123067Y308534D01*
X123026Y308444D01*
X123024Y308420D01*
X123015Y308397D01*
X123001Y308250D01*
X123001Y306750D01*
X123005Y306726D01*
X123002Y306702D01*
X123025Y306606D01*
X123041Y306509D01*
X123052Y306488D01*
X123058Y306464D01*
X123109Y306380D01*
X123156Y306294D01*
X123173Y306277D01*
X123186Y306257D01*
X123262Y306194D01*
X123334Y306127D01*
X123356Y306117D01*
X123375Y306102D01*
X123466Y306067D01*
X123556Y306026D01*
X123580Y306024D01*
X123603Y306015D01*
X123750Y306001D01*
X143541Y306001D01*
X143541Y295356D01*
X143553Y295283D01*
X143555Y295210D01*
X143572Y295164D01*
X143580Y295115D01*
X143615Y295050D01*
X143641Y294981D01*
X143672Y294943D01*
X143695Y294900D01*
X143749Y294849D01*
X143796Y294793D01*
X143837Y294766D01*
X143873Y294733D01*
X143940Y294702D01*
X144003Y294664D01*
X144051Y294652D01*
X144096Y294632D01*
X144169Y294625D01*
X144240Y294608D01*
X144289Y294613D01*
X144338Y294608D01*
X144410Y294625D01*
X144483Y294632D01*
X144528Y294652D01*
X144576Y294663D01*
X144639Y294702D01*
X144706Y294732D01*
X144762Y294779D01*
X144783Y294792D01*
X144794Y294805D01*
X144820Y294826D01*
X153519Y303525D01*
X173046Y303525D01*
X175294Y301276D01*
X175374Y301219D01*
X175449Y301157D01*
X175472Y301149D01*
X175493Y301134D01*
X175586Y301106D01*
X175677Y301071D01*
X175710Y301068D01*
X175726Y301063D01*
X175751Y301064D01*
X175824Y301057D01*
X179095Y301057D01*
X182057Y298095D01*
X182057Y293905D01*
X179095Y290943D01*
X174905Y290943D01*
X171943Y293905D01*
X171943Y297176D01*
X171927Y297272D01*
X171918Y297369D01*
X171908Y297392D01*
X171904Y297417D01*
X171858Y297503D01*
X171817Y297591D01*
X171796Y297617D01*
X171789Y297632D01*
X171770Y297649D01*
X171724Y297706D01*
X171174Y298256D01*
X171094Y298313D01*
X171019Y298375D01*
X170996Y298383D01*
X170975Y298398D01*
X170882Y298426D01*
X170791Y298461D01*
X170758Y298464D01*
X170742Y298469D01*
X170717Y298468D01*
X170644Y298475D01*
X155921Y298475D01*
X155824Y298459D01*
X155727Y298450D01*
X155705Y298440D01*
X155680Y298436D01*
X155594Y298390D01*
X155505Y298349D01*
X155479Y298328D01*
X155465Y298321D01*
X155448Y298302D01*
X155391Y298256D01*
X144554Y287419D01*
X117300Y287419D01*
X117204Y287403D01*
X117107Y287394D01*
X117084Y287384D01*
X117059Y287380D01*
X116973Y287334D01*
X116885Y287293D01*
X116859Y287272D01*
X116844Y287265D01*
X116827Y287246D01*
X116770Y287200D01*
X112744Y283174D01*
X112687Y283094D01*
X112625Y283019D01*
X112617Y282996D01*
X112602Y282975D01*
X112574Y282882D01*
X112539Y282791D01*
X112536Y282758D01*
X112531Y282742D01*
X112532Y282717D01*
X112525Y282644D01*
X112525Y246954D01*
X104046Y238475D01*
X77356Y238475D01*
X77260Y238459D01*
X77163Y238450D01*
X77140Y238440D01*
X77115Y238436D01*
X77029Y238390D01*
X76941Y238349D01*
X76915Y238328D01*
X76900Y238321D01*
X76883Y238302D01*
X76826Y238256D01*
X72744Y234174D01*
X72687Y234094D01*
X72625Y234019D01*
X72617Y233996D01*
X72602Y233975D01*
X72574Y233882D01*
X72551Y233822D01*
X72550Y233821D01*
X72550Y233820D01*
X72539Y233791D01*
X72536Y233758D01*
X72531Y233742D01*
X72532Y233717D01*
X72525Y233644D01*
X72525Y134937D01*
X72541Y134841D01*
X72550Y134744D01*
X72560Y134721D01*
X72564Y134696D01*
X72610Y134610D01*
X72651Y134521D01*
X72672Y134496D01*
X72679Y134481D01*
X72698Y134464D01*
X72744Y134407D01*
X73057Y134095D01*
X73057Y133806D01*
X73061Y133782D01*
X73058Y133757D01*
X73080Y133662D01*
X73096Y133565D01*
X73108Y133544D01*
X73114Y133520D01*
X73165Y133436D01*
X73211Y133350D01*
X73229Y133333D01*
X73242Y133312D01*
X73318Y133250D01*
X73389Y133183D01*
X73412Y133173D01*
X73431Y133157D01*
X73522Y133123D01*
X73612Y133082D01*
X73636Y133080D01*
X73659Y133071D01*
X73806Y133057D01*
X78095Y133057D01*
X79883Y131268D01*
X79963Y131211D01*
X80038Y131149D01*
X80061Y131141D01*
X80081Y131126D01*
X80175Y131098D01*
X80266Y131063D01*
X80299Y131060D01*
X80315Y131055D01*
X80340Y131056D01*
X80413Y131049D01*
X83202Y131049D01*
X83226Y131053D01*
X83251Y131050D01*
X83346Y131072D01*
X83443Y131088D01*
X83464Y131100D01*
X83488Y131106D01*
X83572Y131157D01*
X83658Y131203D01*
X83675Y131221D01*
X83696Y131234D01*
X83758Y131310D01*
X83825Y131381D01*
X83835Y131404D01*
X83851Y131423D01*
X83885Y131514D01*
X83926Y131604D01*
X83928Y131628D01*
X83937Y131651D01*
X83951Y131798D01*
X83951Y144587D01*
X83935Y144683D01*
X83926Y144780D01*
X83916Y144803D01*
X83912Y144828D01*
X83866Y144914D01*
X83825Y145003D01*
X83804Y145028D01*
X83797Y145043D01*
X83778Y145060D01*
X83732Y145117D01*
X81943Y146905D01*
X81943Y151095D01*
X84905Y154057D01*
X89095Y154057D01*
X92057Y151095D01*
X92057Y146905D01*
X90268Y145117D01*
X90211Y145037D01*
X90149Y144962D01*
X90141Y144939D01*
X90126Y144919D01*
X90098Y144825D01*
X90063Y144734D01*
X90060Y144701D01*
X90055Y144685D01*
X90056Y144660D01*
X90049Y144587D01*
X90049Y100573D01*
X90065Y100477D01*
X90074Y100380D01*
X90084Y100357D01*
X90088Y100332D01*
X90134Y100246D01*
X90175Y100158D01*
X90196Y100132D01*
X90203Y100117D01*
X90222Y100100D01*
X90268Y100043D01*
X98623Y91688D01*
X98703Y91631D01*
X98778Y91569D01*
X98801Y91561D01*
X98822Y91546D01*
X98915Y91518D01*
X99006Y91483D01*
X99039Y91480D01*
X99055Y91475D01*
X99080Y91476D01*
X99153Y91469D01*
X151571Y91469D01*
X151644Y91481D01*
X151717Y91483D01*
X151763Y91500D01*
X151812Y91508D01*
X151877Y91543D01*
X151945Y91569D01*
X151984Y91600D01*
X152027Y91623D01*
X152077Y91677D01*
X152134Y91724D01*
X152160Y91766D01*
X152194Y91801D01*
X152224Y91868D01*
X152263Y91931D01*
X152274Y91979D01*
X152295Y92024D01*
X152302Y92097D01*
X152319Y92168D01*
X152314Y92217D01*
X152319Y92267D01*
X152302Y92338D01*
X152295Y92411D01*
X152275Y92456D01*
X152264Y92504D01*
X152225Y92567D01*
X152195Y92634D01*
X152148Y92690D01*
X152135Y92712D01*
X152122Y92722D01*
X152101Y92748D01*
X151943Y92905D01*
X151943Y97095D01*
X153716Y98867D01*
X153773Y98946D01*
X153835Y99022D01*
X153843Y99045D01*
X153858Y99065D01*
X153886Y99159D01*
X153921Y99250D01*
X153924Y99283D01*
X153929Y99299D01*
X153928Y99324D01*
X153935Y99397D01*
X153935Y118186D01*
X153931Y118210D01*
X153934Y118235D01*
X153912Y118330D01*
X153896Y118427D01*
X153884Y118448D01*
X153878Y118472D01*
X153827Y118556D01*
X153781Y118642D01*
X153763Y118659D01*
X153750Y118680D01*
X153674Y118742D01*
X153603Y118809D01*
X153580Y118819D01*
X153561Y118835D01*
X153470Y118869D01*
X153380Y118910D01*
X153356Y118912D01*
X153333Y118921D01*
X153186Y118935D01*
X126397Y118935D01*
X126301Y118919D01*
X126204Y118910D01*
X126181Y118900D01*
X126156Y118896D01*
X126070Y118850D01*
X125981Y118809D01*
X125956Y118788D01*
X125941Y118781D01*
X125924Y118762D01*
X125867Y118716D01*
X125095Y117943D01*
X120905Y117943D01*
X117943Y120905D01*
X117943Y125095D01*
X120905Y128057D01*
X125095Y128057D01*
X125867Y127284D01*
X125946Y127227D01*
X126022Y127165D01*
X126045Y127157D01*
X126065Y127142D01*
X126159Y127114D01*
X126250Y127079D01*
X126283Y127076D01*
X126299Y127071D01*
X126324Y127072D01*
X126397Y127065D01*
X153186Y127065D01*
X153210Y127069D01*
X153235Y127066D01*
X153330Y127088D01*
X153427Y127104D01*
X153448Y127116D01*
X153472Y127122D01*
X153556Y127173D01*
X153642Y127219D01*
X153659Y127237D01*
X153680Y127250D01*
X153742Y127326D01*
X153809Y127397D01*
X153819Y127420D01*
X153835Y127439D01*
X153869Y127530D01*
X153910Y127620D01*
X153912Y127644D01*
X153921Y127667D01*
X153935Y127814D01*
X153935Y165603D01*
X153919Y165699D01*
X153910Y165796D01*
X153900Y165819D01*
X153896Y165844D01*
X153850Y165930D01*
X153809Y166019D01*
X153788Y166044D01*
X153781Y166059D01*
X153762Y166076D01*
X153716Y166133D01*
X152943Y166905D01*
X152943Y171095D01*
X155905Y174057D01*
X160095Y174057D01*
X160252Y173899D01*
X160312Y173856D01*
X160366Y173806D01*
X160391Y173794D01*
X160400Y173787D01*
X160418Y173780D01*
X160451Y173757D01*
X160521Y173736D01*
X160588Y173705D01*
X160627Y173701D01*
X160628Y173701D01*
X160639Y173700D01*
X160684Y173686D01*
X160754Y173688D01*
X160775Y173686D01*
X160779Y173686D01*
X160831Y173681D01*
X160879Y173692D01*
X160928Y173694D01*
X160997Y173720D01*
X161068Y173736D01*
X161110Y173762D01*
X161156Y173780D01*
X161213Y173826D01*
X161228Y173836D01*
X161238Y173841D01*
X161240Y173843D01*
X161276Y173865D01*
X161307Y173903D01*
X161345Y173934D01*
X161383Y173996D01*
X161405Y174019D01*
X161408Y174027D01*
X161431Y174054D01*
X161448Y174100D01*
X161474Y174142D01*
X161488Y174203D01*
X161506Y174241D01*
X161507Y174257D01*
X161517Y174282D01*
X161524Y174355D01*
X161530Y174379D01*
X161528Y174396D01*
X161531Y174429D01*
X161531Y280410D01*
X161515Y280506D01*
X161506Y280603D01*
X161496Y280626D01*
X161492Y280651D01*
X161446Y280737D01*
X161405Y280826D01*
X161384Y280851D01*
X161377Y280866D01*
X161358Y280883D01*
X161312Y280940D01*
X158528Y283724D01*
X158448Y283781D01*
X158373Y283843D01*
X158350Y283851D01*
X158329Y283866D01*
X158236Y283894D01*
X158145Y283929D01*
X158112Y283932D01*
X158096Y283937D01*
X158071Y283936D01*
X157998Y283943D01*
X156905Y283943D01*
X153943Y286905D01*
X153943Y291095D01*
X156905Y294057D01*
X161095Y294057D01*
X164057Y291095D01*
X164057Y290002D01*
X164073Y289906D01*
X164082Y289809D01*
X164092Y289786D01*
X164096Y289761D01*
X164142Y289675D01*
X164183Y289586D01*
X164204Y289561D01*
X164211Y289546D01*
X164230Y289529D01*
X164276Y289472D01*
X169661Y284088D01*
X169661Y253621D01*
X169673Y253548D01*
X169675Y253475D01*
X169692Y253429D01*
X169700Y253380D01*
X169735Y253315D01*
X169761Y253247D01*
X169792Y253208D01*
X169815Y253165D01*
X169869Y253115D01*
X169916Y253058D01*
X169958Y253032D01*
X169993Y252998D01*
X170060Y252968D01*
X170123Y252929D01*
X170171Y252918D01*
X170216Y252897D01*
X170289Y252890D01*
X170360Y252873D01*
X170409Y252878D01*
X170459Y252873D01*
X170530Y252890D01*
X170603Y252897D01*
X170648Y252917D01*
X170696Y252928D01*
X170759Y252967D01*
X170826Y252997D01*
X170882Y253044D01*
X170904Y253057D01*
X170914Y253070D01*
X170940Y253091D01*
X171905Y254057D01*
X176095Y254057D01*
X179057Y251095D01*
X179057Y246905D01*
X178284Y246133D01*
X178239Y246070D01*
X178202Y246031D01*
X178195Y246014D01*
X178165Y245978D01*
X178157Y245955D01*
X178142Y245935D01*
X178114Y245841D01*
X178079Y245750D01*
X178076Y245717D01*
X178071Y245701D01*
X178072Y245676D01*
X178065Y245603D01*
X178065Y172994D01*
X178081Y172898D01*
X178090Y172801D01*
X178100Y172778D01*
X178104Y172753D01*
X178150Y172667D01*
X178191Y172578D01*
X178212Y172553D01*
X178219Y172538D01*
X178238Y172521D01*
X178284Y172464D01*
X186472Y164276D01*
X186552Y164219D01*
X186627Y164157D01*
X186650Y164149D01*
X186671Y164134D01*
X186764Y164106D01*
X186855Y164071D01*
X186888Y164068D01*
X186904Y164063D01*
X186929Y164064D01*
X187002Y164057D01*
X188095Y164057D01*
X191057Y161095D01*
X191057Y156905D01*
X189268Y155117D01*
X189211Y155037D01*
X189149Y154962D01*
X189141Y154939D01*
X189126Y154919D01*
X189098Y154825D01*
X189063Y154734D01*
X189060Y154701D01*
X189055Y154685D01*
X189056Y154660D01*
X189049Y154587D01*
X189049Y107737D01*
X167354Y86043D01*
X167284Y85944D01*
X167212Y85845D01*
X167212Y85844D01*
X167178Y85734D01*
X167141Y85611D01*
X167146Y85469D01*
X167149Y85367D01*
X167206Y85217D01*
X167235Y85139D01*
X167331Y85021D01*
X167389Y84950D01*
X167390Y84950D01*
X167489Y84888D01*
X167597Y84821D01*
X167738Y84778D01*
X168630Y84601D01*
X170146Y83973D01*
X171510Y83061D01*
X172671Y81900D01*
X173583Y80536D01*
X174211Y79020D01*
X174531Y77411D01*
X174531Y72299D01*
X166950Y72299D01*
X166926Y72295D01*
X166902Y72298D01*
X166806Y72275D01*
X166709Y72259D01*
X166688Y72248D01*
X166664Y72242D01*
X166581Y72191D01*
X166494Y72144D01*
X166477Y72127D01*
X166457Y72114D01*
X166394Y72038D01*
X166327Y71966D01*
X166317Y71944D01*
X166302Y71925D01*
X166267Y71834D01*
X166227Y71744D01*
X166224Y71720D01*
X166215Y71697D01*
X166201Y71550D01*
X166201Y70050D01*
X166205Y70026D01*
X166202Y70001D01*
X166225Y69906D01*
X166241Y69809D01*
X166252Y69788D01*
X166258Y69764D01*
X166309Y69680D01*
X166356Y69594D01*
X166373Y69577D01*
X166386Y69556D01*
X166462Y69494D01*
X166534Y69427D01*
X166556Y69417D01*
X166575Y69402D01*
X166667Y69367D01*
X166756Y69326D01*
X166780Y69324D01*
X166803Y69315D01*
X166950Y69301D01*
X174531Y69301D01*
X174531Y64189D01*
X174211Y62580D01*
X173583Y61064D01*
X172671Y59700D01*
X171510Y58539D01*
X170146Y57627D01*
X168666Y57014D01*
X168583Y56963D01*
X168496Y56917D01*
X168479Y56898D01*
X168458Y56885D01*
X168396Y56810D01*
X168330Y56738D01*
X168319Y56716D01*
X168304Y56697D01*
X168269Y56605D01*
X168229Y56516D01*
X168226Y56492D01*
X168218Y56468D01*
X168214Y56371D01*
X168205Y56273D01*
X168210Y56249D01*
X168210Y56225D01*
X168238Y56131D01*
X168260Y56036D01*
X168273Y56015D01*
X168280Y55991D01*
X168337Y55912D01*
X168389Y55828D01*
X168408Y55813D01*
X168422Y55793D01*
X168502Y55736D01*
X168577Y55673D01*
X168600Y55665D01*
X168620Y55650D01*
X168714Y55622D01*
X168805Y55587D01*
X168838Y55584D01*
X168854Y55579D01*
X168879Y55580D01*
X168952Y55573D01*
X176796Y55573D01*
X176892Y55589D01*
X176989Y55598D01*
X177012Y55608D01*
X177036Y55612D01*
X177122Y55658D01*
X177211Y55699D01*
X177237Y55720D01*
X177252Y55727D01*
X177269Y55746D01*
X177325Y55792D01*
X183208Y61675D01*
X183265Y61754D01*
X183327Y61829D01*
X183335Y61853D01*
X183350Y61873D01*
X183378Y61966D01*
X183413Y62057D01*
X183416Y62090D01*
X183421Y62106D01*
X183420Y62131D01*
X183427Y62204D01*
X183427Y88111D01*
X183411Y88207D01*
X183402Y88304D01*
X183392Y88327D01*
X183388Y88352D01*
X183342Y88438D01*
X183301Y88527D01*
X183280Y88552D01*
X183273Y88567D01*
X183254Y88584D01*
X183208Y88641D01*
X182943Y88905D01*
X182943Y93095D01*
X185905Y96057D01*
X190095Y96057D01*
X193057Y93095D01*
X193057Y88905D01*
X192792Y88641D01*
X192735Y88562D01*
X192673Y88486D01*
X192665Y88463D01*
X192650Y88443D01*
X192622Y88349D01*
X192587Y88258D01*
X192584Y88225D01*
X192579Y88209D01*
X192580Y88184D01*
X192573Y88111D01*
X192573Y58106D01*
X180894Y46427D01*
X133204Y46427D01*
X133108Y46411D01*
X133011Y46402D01*
X132988Y46392D01*
X132964Y46388D01*
X132878Y46342D01*
X132789Y46301D01*
X132763Y46280D01*
X132748Y46273D01*
X132731Y46254D01*
X132675Y46208D01*
X127792Y41325D01*
X127735Y41246D01*
X127673Y41171D01*
X127665Y41147D01*
X127650Y41127D01*
X127622Y41034D01*
X127587Y40943D01*
X127584Y40910D01*
X127579Y40894D01*
X127580Y40869D01*
X127573Y40796D01*
X127573Y29774D01*
X127577Y29750D01*
X127574Y29725D01*
X127596Y29630D01*
X127612Y29533D01*
X127624Y29512D01*
X127630Y29488D01*
X127681Y29404D01*
X127727Y29318D01*
X127745Y29301D01*
X127758Y29280D01*
X127834Y29218D01*
X127905Y29151D01*
X127928Y29141D01*
X127947Y29125D01*
X128038Y29091D01*
X128128Y29050D01*
X128152Y29048D01*
X128175Y29039D01*
X128322Y29025D01*
X141632Y29025D01*
X142525Y28132D01*
X142525Y2131D01*
X142529Y2107D01*
X142526Y2082D01*
X142548Y1987D01*
X142564Y1890D01*
X142576Y1869D01*
X142582Y1845D01*
X142633Y1761D01*
X142679Y1675D01*
X142697Y1658D01*
X142710Y1637D01*
X142786Y1575D01*
X142857Y1508D01*
X142880Y1498D01*
X142899Y1482D01*
X142990Y1448D01*
X143080Y1407D01*
X143104Y1405D01*
X143127Y1396D01*
X143274Y1382D01*
X228749Y1382D01*
X228836Y1396D01*
G37*
G36*
X19686Y1363D02*
X19686Y1363D01*
X19782Y1379D01*
X19812Y1382D01*
X21858Y1382D01*
X21879Y1385D01*
X21926Y1385D01*
X22805Y1465D01*
X22813Y1462D01*
X22864Y1432D01*
X22927Y1419D01*
X22987Y1396D01*
X23081Y1387D01*
X23103Y1382D01*
X23114Y1384D01*
X23134Y1382D01*
X102726Y1382D01*
X102750Y1386D01*
X102775Y1383D01*
X102870Y1405D01*
X102967Y1421D01*
X102988Y1433D01*
X103012Y1439D01*
X103096Y1490D01*
X103182Y1536D01*
X103199Y1554D01*
X103220Y1567D01*
X103282Y1643D01*
X103349Y1714D01*
X103359Y1737D01*
X103375Y1756D01*
X103409Y1847D01*
X103450Y1937D01*
X103452Y1961D01*
X103461Y1984D01*
X103475Y2131D01*
X103475Y28132D01*
X104368Y29025D01*
X117678Y29025D01*
X117702Y29029D01*
X117727Y29026D01*
X117822Y29048D01*
X117919Y29064D01*
X117940Y29076D01*
X117964Y29082D01*
X118048Y29133D01*
X118134Y29179D01*
X118151Y29197D01*
X118172Y29210D01*
X118234Y29286D01*
X118301Y29357D01*
X118311Y29380D01*
X118327Y29399D01*
X118361Y29490D01*
X118402Y29580D01*
X118404Y29604D01*
X118413Y29627D01*
X118427Y29774D01*
X118427Y44894D01*
X121325Y47792D01*
X126208Y52675D01*
X129106Y55573D01*
X163448Y55573D01*
X163544Y55589D01*
X163641Y55598D01*
X163664Y55608D01*
X163688Y55612D01*
X163775Y55659D01*
X163864Y55699D01*
X163882Y55716D01*
X163904Y55727D01*
X163970Y55799D01*
X164042Y55866D01*
X164053Y55887D01*
X164070Y55905D01*
X164111Y55994D01*
X164157Y56081D01*
X164161Y56105D01*
X164171Y56128D01*
X164181Y56225D01*
X164197Y56321D01*
X164193Y56346D01*
X164195Y56371D01*
X164173Y56466D01*
X164157Y56562D01*
X164146Y56584D01*
X164140Y56608D01*
X164088Y56691D01*
X164042Y56778D01*
X164024Y56794D01*
X164011Y56816D01*
X163936Y56878D01*
X163865Y56945D01*
X163836Y56960D01*
X163823Y56970D01*
X163800Y56979D01*
X163734Y57014D01*
X162254Y57627D01*
X160890Y58539D01*
X159729Y59700D01*
X158817Y61064D01*
X158189Y62580D01*
X158170Y62677D01*
X158161Y62700D01*
X158159Y62725D01*
X158119Y62814D01*
X158084Y62906D01*
X158069Y62925D01*
X158058Y62947D01*
X157991Y63019D01*
X157929Y63094D01*
X157909Y63107D01*
X157892Y63125D01*
X157805Y63172D01*
X157722Y63223D01*
X157698Y63229D01*
X157676Y63241D01*
X157580Y63257D01*
X157485Y63279D01*
X157460Y63276D01*
X157436Y63280D01*
X157339Y63265D01*
X157242Y63255D01*
X157219Y63245D01*
X157195Y63241D01*
X157109Y63195D01*
X157019Y63155D01*
X157001Y63138D01*
X156980Y63126D01*
X156913Y63055D01*
X156841Y62988D01*
X156830Y62966D01*
X156813Y62948D01*
X156743Y62818D01*
X156563Y62384D01*
X155016Y60837D01*
X152994Y59999D01*
X150806Y59999D01*
X148784Y60837D01*
X147237Y62384D01*
X146399Y64406D01*
X146399Y66594D01*
X147237Y68616D01*
X148784Y70163D01*
X150806Y71001D01*
X152994Y71001D01*
X155016Y70163D01*
X156590Y68589D01*
X156650Y68546D01*
X156704Y68496D01*
X156748Y68476D01*
X156789Y68447D01*
X156859Y68425D01*
X156926Y68395D01*
X156975Y68390D01*
X157022Y68376D01*
X157095Y68378D01*
X157169Y68371D01*
X157217Y68382D01*
X157266Y68384D01*
X157335Y68410D01*
X157406Y68426D01*
X157448Y68452D01*
X157494Y68470D01*
X157551Y68516D01*
X157614Y68555D01*
X157645Y68593D01*
X157683Y68624D01*
X157722Y68687D01*
X157769Y68744D01*
X157786Y68790D01*
X157812Y68832D01*
X157829Y68903D01*
X157855Y68972D01*
X157862Y69045D01*
X157868Y69069D01*
X157866Y69086D01*
X157869Y69119D01*
X157869Y69301D01*
X165450Y69301D01*
X165474Y69305D01*
X165498Y69302D01*
X165594Y69325D01*
X165691Y69340D01*
X165712Y69352D01*
X165736Y69358D01*
X165819Y69409D01*
X165906Y69455D01*
X165923Y69473D01*
X165943Y69486D01*
X166006Y69562D01*
X166073Y69634D01*
X166083Y69656D01*
X166098Y69675D01*
X166133Y69766D01*
X166173Y69856D01*
X166176Y69880D01*
X166185Y69903D01*
X166199Y70050D01*
X166199Y71550D01*
X166195Y71574D01*
X166198Y71598D01*
X166175Y71694D01*
X166159Y71791D01*
X166148Y71812D01*
X166142Y71836D01*
X166091Y71920D01*
X166044Y72006D01*
X166027Y72023D01*
X166014Y72043D01*
X165938Y72106D01*
X165866Y72173D01*
X165844Y72183D01*
X165825Y72198D01*
X165733Y72233D01*
X165644Y72274D01*
X165620Y72276D01*
X165597Y72285D01*
X165450Y72299D01*
X157869Y72299D01*
X157869Y77411D01*
X158189Y79020D01*
X158817Y80536D01*
X159202Y81112D01*
X159703Y81861D01*
X159729Y81900D01*
X160889Y83061D01*
X162294Y83999D01*
X162312Y84016D01*
X162333Y84027D01*
X162400Y84099D01*
X162472Y84166D01*
X162483Y84188D01*
X162500Y84206D01*
X162540Y84295D01*
X162587Y84381D01*
X162591Y84405D01*
X162601Y84428D01*
X162611Y84525D01*
X162627Y84622D01*
X162623Y84646D01*
X162625Y84671D01*
X162603Y84766D01*
X162587Y84862D01*
X162575Y84884D01*
X162570Y84908D01*
X162518Y84991D01*
X162472Y85078D01*
X162454Y85095D01*
X162441Y85116D01*
X162365Y85178D01*
X162294Y85245D01*
X162272Y85255D01*
X162253Y85271D01*
X162161Y85305D01*
X162072Y85346D01*
X162047Y85348D01*
X162024Y85357D01*
X161877Y85371D01*
X96317Y85371D01*
X83951Y97737D01*
X83951Y124202D01*
X83947Y124226D01*
X83950Y124251D01*
X83928Y124346D01*
X83912Y124443D01*
X83900Y124464D01*
X83894Y124488D01*
X83843Y124572D01*
X83797Y124658D01*
X83779Y124675D01*
X83766Y124696D01*
X83690Y124758D01*
X83619Y124825D01*
X83596Y124835D01*
X83577Y124851D01*
X83486Y124885D01*
X83396Y124926D01*
X83372Y124928D01*
X83349Y124937D01*
X83202Y124951D01*
X80413Y124951D01*
X80317Y124935D01*
X80220Y124926D01*
X80197Y124916D01*
X80172Y124912D01*
X80086Y124866D01*
X79997Y124825D01*
X79972Y124804D01*
X79957Y124797D01*
X79940Y124778D01*
X79883Y124732D01*
X78095Y122943D01*
X73905Y122943D01*
X70943Y125905D01*
X70943Y126194D01*
X70939Y126218D01*
X70942Y126243D01*
X70920Y126338D01*
X70904Y126435D01*
X70892Y126456D01*
X70886Y126480D01*
X70835Y126564D01*
X70789Y126650D01*
X70771Y126667D01*
X70758Y126688D01*
X70682Y126750D01*
X70611Y126817D01*
X70588Y126827D01*
X70569Y126843D01*
X70478Y126877D01*
X70388Y126918D01*
X70364Y126920D01*
X70341Y126929D01*
X70194Y126943D01*
X65905Y126943D01*
X62943Y129905D01*
X62943Y134095D01*
X65905Y137057D01*
X66726Y137057D01*
X66750Y137061D01*
X66775Y137058D01*
X66870Y137080D01*
X66967Y137096D01*
X66988Y137108D01*
X67012Y137114D01*
X67096Y137165D01*
X67182Y137211D01*
X67199Y137229D01*
X67220Y137242D01*
X67282Y137318D01*
X67349Y137389D01*
X67359Y137412D01*
X67375Y137431D01*
X67409Y137522D01*
X67450Y137612D01*
X67452Y137636D01*
X67461Y137659D01*
X67475Y137806D01*
X67475Y236046D01*
X74954Y243525D01*
X101644Y243525D01*
X101740Y243541D01*
X101837Y243550D01*
X101860Y243560D01*
X101885Y243564D01*
X101971Y243610D01*
X102059Y243651D01*
X102085Y243672D01*
X102100Y243679D01*
X102117Y243698D01*
X102174Y243744D01*
X107256Y248826D01*
X107312Y248905D01*
X107349Y248944D01*
X107355Y248957D01*
X107375Y248981D01*
X107383Y249004D01*
X107398Y249025D01*
X107423Y249108D01*
X107450Y249166D01*
X107451Y249185D01*
X107461Y249209D01*
X107464Y249242D01*
X107469Y249258D01*
X107468Y249283D01*
X107475Y249356D01*
X107475Y250515D01*
X107463Y250588D01*
X107461Y250661D01*
X107444Y250707D01*
X107436Y250756D01*
X107401Y250821D01*
X107375Y250889D01*
X107344Y250928D01*
X107321Y250971D01*
X107267Y251021D01*
X107220Y251078D01*
X107178Y251104D01*
X107143Y251138D01*
X107076Y251168D01*
X107013Y251207D01*
X106965Y251218D01*
X106920Y251239D01*
X106847Y251246D01*
X106776Y251263D01*
X106727Y251258D01*
X106677Y251263D01*
X106606Y251246D01*
X106533Y251239D01*
X106488Y251219D01*
X106440Y251208D01*
X106377Y251169D01*
X106310Y251139D01*
X106254Y251092D01*
X106232Y251079D01*
X106222Y251066D01*
X106196Y251045D01*
X105095Y249943D01*
X100905Y249943D01*
X97943Y252905D01*
X97943Y257095D01*
X100256Y259407D01*
X100313Y259487D01*
X100375Y259562D01*
X100383Y259585D01*
X100398Y259605D01*
X100426Y259699D01*
X100461Y259790D01*
X100464Y259823D01*
X100469Y259839D01*
X100468Y259864D01*
X100475Y259937D01*
X100475Y260096D01*
X100463Y260168D01*
X100461Y260242D01*
X100444Y260288D01*
X100436Y260337D01*
X100401Y260401D01*
X100375Y260470D01*
X100344Y260508D01*
X100321Y260552D01*
X100267Y260602D01*
X100220Y260659D01*
X100179Y260685D01*
X100143Y260719D01*
X100076Y260749D01*
X100013Y260788D01*
X99965Y260799D01*
X99920Y260820D01*
X99847Y260827D01*
X99776Y260844D01*
X99727Y260839D01*
X99677Y260844D01*
X99606Y260827D01*
X99533Y260820D01*
X99488Y260800D01*
X99440Y260788D01*
X99377Y260750D01*
X99310Y260719D01*
X99254Y260673D01*
X99232Y260660D01*
X99222Y260647D01*
X99196Y260626D01*
X95276Y256706D01*
X95219Y256626D01*
X95157Y256551D01*
X95149Y256528D01*
X95134Y256507D01*
X95106Y256414D01*
X95071Y256323D01*
X95068Y256290D01*
X95063Y256274D01*
X95064Y256249D01*
X95057Y256176D01*
X95057Y252905D01*
X92095Y249943D01*
X87905Y249943D01*
X84943Y252905D01*
X84943Y257095D01*
X87905Y260057D01*
X91176Y260057D01*
X91272Y260073D01*
X91369Y260082D01*
X91392Y260092D01*
X91417Y260096D01*
X91503Y260142D01*
X91591Y260183D01*
X91617Y260204D01*
X91632Y260211D01*
X91649Y260230D01*
X91706Y260276D01*
X96732Y265302D01*
X96789Y265382D01*
X96851Y265457D01*
X96859Y265480D01*
X96874Y265501D01*
X96902Y265594D01*
X96912Y265619D01*
X96926Y265650D01*
X96926Y265658D01*
X96937Y265685D01*
X96940Y265718D01*
X96945Y265734D01*
X96944Y265759D01*
X96951Y265832D01*
X96951Y283184D01*
X96935Y283280D01*
X96926Y283377D01*
X96916Y283400D01*
X96912Y283425D01*
X96866Y283511D01*
X96825Y283600D01*
X96804Y283625D01*
X96797Y283640D01*
X96778Y283657D01*
X96732Y283714D01*
X89951Y290494D01*
X89951Y332991D01*
X89939Y333064D01*
X89937Y333137D01*
X89920Y333183D01*
X89912Y333232D01*
X89877Y333297D01*
X89851Y333365D01*
X89820Y333404D01*
X89797Y333447D01*
X89743Y333497D01*
X89696Y333554D01*
X89654Y333580D01*
X89619Y333614D01*
X89552Y333644D01*
X89489Y333683D01*
X89441Y333694D01*
X89396Y333715D01*
X89323Y333722D01*
X89252Y333739D01*
X89203Y333734D01*
X89153Y333739D01*
X89082Y333722D01*
X89009Y333715D01*
X88964Y333695D01*
X88916Y333684D01*
X88853Y333645D01*
X88786Y333615D01*
X88730Y333568D01*
X88708Y333555D01*
X88698Y333542D01*
X88672Y333521D01*
X86744Y331593D01*
X86687Y331514D01*
X86625Y331438D01*
X86617Y331415D01*
X86602Y331395D01*
X86574Y331301D01*
X86539Y331210D01*
X86536Y331177D01*
X86531Y331161D01*
X86532Y331136D01*
X86525Y331063D01*
X86525Y320954D01*
X84826Y319256D01*
X71268Y305698D01*
X71211Y305618D01*
X71149Y305543D01*
X71141Y305520D01*
X71126Y305499D01*
X71098Y305406D01*
X71063Y305315D01*
X71060Y305282D01*
X71055Y305266D01*
X71056Y305241D01*
X71049Y305168D01*
X71049Y265832D01*
X71052Y265812D01*
X71050Y265795D01*
X71065Y265732D01*
X71074Y265639D01*
X71084Y265616D01*
X71088Y265591D01*
X71105Y265561D01*
X71106Y265558D01*
X71112Y265548D01*
X71134Y265505D01*
X71175Y265417D01*
X71196Y265391D01*
X71203Y265376D01*
X71222Y265359D01*
X71268Y265302D01*
X76294Y260276D01*
X76374Y260219D01*
X76449Y260157D01*
X76472Y260149D01*
X76493Y260134D01*
X76586Y260106D01*
X76677Y260071D01*
X76710Y260068D01*
X76726Y260063D01*
X76751Y260064D01*
X76824Y260057D01*
X80095Y260057D01*
X83057Y257095D01*
X83057Y252905D01*
X80095Y249943D01*
X75905Y249943D01*
X72943Y252905D01*
X72943Y256176D01*
X72927Y256272D01*
X72918Y256369D01*
X72908Y256392D01*
X72904Y256417D01*
X72858Y256503D01*
X72817Y256591D01*
X72796Y256617D01*
X72789Y256632D01*
X72770Y256649D01*
X72724Y256706D01*
X69174Y260256D01*
X68804Y260626D01*
X68744Y260669D01*
X68690Y260719D01*
X68646Y260739D01*
X68605Y260768D01*
X68535Y260789D01*
X68468Y260820D01*
X68419Y260824D01*
X68372Y260839D01*
X68299Y260836D01*
X68225Y260844D01*
X68177Y260832D01*
X68128Y260831D01*
X68059Y260805D01*
X67988Y260788D01*
X67946Y260762D01*
X67900Y260745D01*
X67843Y260698D01*
X67780Y260660D01*
X67749Y260622D01*
X67711Y260590D01*
X67672Y260528D01*
X67625Y260471D01*
X67608Y260425D01*
X67582Y260383D01*
X67565Y260312D01*
X67539Y260243D01*
X67532Y260170D01*
X67526Y260146D01*
X67528Y260129D01*
X67525Y260096D01*
X67525Y259937D01*
X67541Y259841D01*
X67550Y259744D01*
X67560Y259721D01*
X67564Y259696D01*
X67610Y259610D01*
X67651Y259521D01*
X67672Y259496D01*
X67679Y259481D01*
X67698Y259464D01*
X67744Y259407D01*
X70057Y257095D01*
X70057Y252905D01*
X67095Y249943D01*
X62905Y249943D01*
X59943Y252905D01*
X59943Y257095D01*
X62256Y259407D01*
X62313Y259487D01*
X62375Y259562D01*
X62383Y259585D01*
X62398Y259605D01*
X62426Y259699D01*
X62461Y259790D01*
X62464Y259823D01*
X62469Y259839D01*
X62468Y259864D01*
X62475Y259937D01*
X62475Y310111D01*
X62989Y310624D01*
X63031Y310684D01*
X63082Y310738D01*
X63102Y310782D01*
X63131Y310823D01*
X63152Y310893D01*
X63183Y310960D01*
X63187Y311009D01*
X63202Y311056D01*
X63199Y311129D01*
X63207Y311203D01*
X63195Y311251D01*
X63194Y311300D01*
X63168Y311369D01*
X63151Y311440D01*
X63125Y311482D01*
X63108Y311528D01*
X63061Y311585D01*
X63023Y311648D01*
X62985Y311679D01*
X62953Y311717D01*
X62891Y311756D01*
X62834Y311803D01*
X62788Y311820D01*
X62746Y311846D01*
X62675Y311863D01*
X62606Y311889D01*
X62533Y311896D01*
X62509Y311902D01*
X62492Y311900D01*
X62459Y311903D01*
X52356Y311903D01*
X52260Y311887D01*
X52163Y311878D01*
X52140Y311868D01*
X52115Y311864D01*
X52029Y311818D01*
X51941Y311777D01*
X51915Y311756D01*
X51900Y311749D01*
X51883Y311730D01*
X51826Y311684D01*
X49810Y309668D01*
X49753Y309588D01*
X49691Y309513D01*
X49683Y309490D01*
X49668Y309469D01*
X49640Y309376D01*
X49605Y309285D01*
X49602Y309252D01*
X49597Y309236D01*
X49598Y309211D01*
X49591Y309138D01*
X49591Y259855D01*
X49598Y259811D01*
X49597Y259801D01*
X49606Y259764D01*
X49607Y259758D01*
X49616Y259661D01*
X49626Y259639D01*
X49630Y259614D01*
X49648Y259580D01*
X49652Y259564D01*
X49682Y259516D01*
X49717Y259439D01*
X49738Y259413D01*
X49745Y259399D01*
X49764Y259382D01*
X49770Y259373D01*
X49781Y259356D01*
X49791Y259348D01*
X49810Y259325D01*
X57581Y251554D01*
X57581Y236446D01*
X46286Y225151D01*
X46240Y225087D01*
X46207Y225052D01*
X46200Y225036D01*
X46167Y224997D01*
X46159Y224973D01*
X46144Y224953D01*
X46116Y224859D01*
X46081Y224768D01*
X46078Y224735D01*
X46073Y224719D01*
X46074Y224694D01*
X46067Y224621D01*
X46067Y191814D01*
X46083Y191718D01*
X46092Y191621D01*
X46102Y191598D01*
X46106Y191573D01*
X46152Y191487D01*
X46193Y191399D01*
X46214Y191373D01*
X46221Y191358D01*
X46240Y191341D01*
X46286Y191284D01*
X59581Y177990D01*
X59581Y161446D01*
X47744Y149609D01*
X47687Y149530D01*
X47625Y149455D01*
X47617Y149431D01*
X47602Y149411D01*
X47574Y149317D01*
X47539Y149226D01*
X47536Y149193D01*
X47531Y149177D01*
X47532Y149152D01*
X47525Y149079D01*
X47525Y148937D01*
X47527Y148922D01*
X47526Y148912D01*
X47535Y148876D01*
X47541Y148841D01*
X47550Y148744D01*
X47560Y148721D01*
X47564Y148696D01*
X47610Y148610D01*
X47651Y148521D01*
X47672Y148496D01*
X47679Y148481D01*
X47698Y148464D01*
X47744Y148407D01*
X50057Y146095D01*
X50057Y141905D01*
X47095Y138943D01*
X42905Y138943D01*
X39943Y141905D01*
X39943Y146095D01*
X42256Y148407D01*
X42313Y148487D01*
X42375Y148562D01*
X42383Y148585D01*
X42398Y148605D01*
X42426Y148699D01*
X42461Y148790D01*
X42464Y148823D01*
X42469Y148839D01*
X42468Y148864D01*
X42475Y148937D01*
X42475Y151481D01*
X44174Y153180D01*
X45658Y154664D01*
X45701Y154724D01*
X45751Y154778D01*
X45772Y154822D01*
X45800Y154863D01*
X45822Y154933D01*
X45852Y155000D01*
X45857Y155049D01*
X45871Y155096D01*
X45869Y155169D01*
X45876Y155243D01*
X45865Y155291D01*
X45863Y155340D01*
X45838Y155409D01*
X45821Y155480D01*
X45795Y155522D01*
X45777Y155568D01*
X45731Y155625D01*
X45692Y155688D01*
X45654Y155719D01*
X45623Y155757D01*
X45560Y155796D01*
X45504Y155843D01*
X45458Y155860D01*
X45416Y155886D01*
X45344Y155903D01*
X45275Y155929D01*
X45202Y155936D01*
X45178Y155942D01*
X45161Y155940D01*
X45128Y155943D01*
X40905Y155943D01*
X37943Y158905D01*
X37943Y162192D01*
X37927Y162288D01*
X37918Y162385D01*
X37908Y162408D01*
X37904Y162433D01*
X37858Y162519D01*
X37817Y162608D01*
X37796Y162633D01*
X37789Y162648D01*
X37770Y162665D01*
X37724Y162722D01*
X33969Y166476D01*
X33969Y208530D01*
X33957Y208602D01*
X33955Y208676D01*
X33938Y208722D01*
X33930Y208770D01*
X33895Y208835D01*
X33869Y208904D01*
X33838Y208942D01*
X33815Y208986D01*
X33761Y209036D01*
X33714Y209093D01*
X33672Y209119D01*
X33637Y209152D01*
X33570Y209183D01*
X33507Y209222D01*
X33459Y209233D01*
X33414Y209253D01*
X33341Y209260D01*
X33270Y209277D01*
X33221Y209272D01*
X33171Y209277D01*
X33100Y209261D01*
X33027Y209254D01*
X32982Y209233D01*
X32934Y209222D01*
X32871Y209183D01*
X32804Y209153D01*
X32748Y209106D01*
X32726Y209093D01*
X32716Y209080D01*
X32690Y209059D01*
X15639Y192008D01*
X15610Y191968D01*
X15575Y191935D01*
X15540Y191870D01*
X15497Y191810D01*
X15483Y191763D01*
X15460Y191720D01*
X15447Y191647D01*
X15426Y191576D01*
X15428Y191527D01*
X15420Y191479D01*
X15432Y191406D01*
X15434Y191333D01*
X15451Y191287D01*
X15459Y191238D01*
X15494Y191173D01*
X15520Y191104D01*
X15551Y191066D01*
X15574Y191023D01*
X15628Y190972D01*
X15674Y190915D01*
X15716Y190890D01*
X15752Y190856D01*
X15881Y190787D01*
X15882Y190786D01*
X16187Y190660D01*
X19260Y187587D01*
X20923Y183573D01*
X20923Y179227D01*
X19260Y175213D01*
X16187Y172140D01*
X12173Y170477D01*
X7827Y170477D01*
X3813Y172140D01*
X1661Y174292D01*
X1601Y174335D01*
X1547Y174385D01*
X1503Y174406D01*
X1462Y174434D01*
X1392Y174456D01*
X1325Y174486D01*
X1276Y174491D01*
X1229Y174505D01*
X1156Y174503D01*
X1082Y174510D01*
X1034Y174499D01*
X985Y174497D01*
X916Y174471D01*
X845Y174455D01*
X803Y174429D01*
X757Y174411D01*
X700Y174365D01*
X637Y174326D01*
X606Y174288D01*
X568Y174257D01*
X529Y174194D01*
X482Y174138D01*
X465Y174092D01*
X439Y174050D01*
X422Y173978D01*
X396Y173909D01*
X389Y173836D01*
X383Y173812D01*
X385Y173795D01*
X382Y173762D01*
X382Y163638D01*
X394Y163565D01*
X396Y163492D01*
X413Y163446D01*
X421Y163397D01*
X456Y163332D01*
X482Y163263D01*
X513Y163225D01*
X536Y163182D01*
X590Y163131D01*
X637Y163075D01*
X679Y163049D01*
X714Y163015D01*
X781Y162984D01*
X844Y162946D01*
X892Y162934D01*
X937Y162914D01*
X1010Y162907D01*
X1081Y162890D01*
X1130Y162895D01*
X1180Y162890D01*
X1251Y162907D01*
X1324Y162914D01*
X1369Y162934D01*
X1417Y162945D01*
X1480Y162984D01*
X1547Y163014D01*
X1603Y163061D01*
X1625Y163074D01*
X1635Y163087D01*
X1661Y163108D01*
X3813Y165260D01*
X7827Y166923D01*
X12173Y166923D01*
X16187Y165260D01*
X19260Y162187D01*
X20923Y158173D01*
X20923Y153827D01*
X19260Y149813D01*
X16187Y146740D01*
X12173Y145077D01*
X7827Y145077D01*
X3813Y146740D01*
X1661Y148892D01*
X1601Y148935D01*
X1547Y148985D01*
X1503Y149006D01*
X1462Y149034D01*
X1392Y149056D01*
X1325Y149086D01*
X1276Y149091D01*
X1229Y149105D01*
X1156Y149103D01*
X1082Y149110D01*
X1034Y149099D01*
X985Y149097D01*
X916Y149071D01*
X845Y149055D01*
X803Y149029D01*
X757Y149011D01*
X700Y148965D01*
X637Y148926D01*
X606Y148888D01*
X568Y148857D01*
X529Y148794D01*
X482Y148738D01*
X465Y148692D01*
X439Y148650D01*
X422Y148578D01*
X396Y148509D01*
X389Y148436D01*
X383Y148412D01*
X385Y148395D01*
X382Y148362D01*
X382Y138238D01*
X394Y138165D01*
X396Y138092D01*
X413Y138046D01*
X421Y137997D01*
X456Y137932D01*
X482Y137863D01*
X513Y137825D01*
X536Y137782D01*
X590Y137731D01*
X637Y137675D01*
X679Y137649D01*
X714Y137615D01*
X781Y137584D01*
X844Y137546D01*
X892Y137534D01*
X937Y137514D01*
X1010Y137507D01*
X1081Y137490D01*
X1130Y137495D01*
X1180Y137490D01*
X1251Y137507D01*
X1324Y137514D01*
X1369Y137534D01*
X1417Y137545D01*
X1480Y137584D01*
X1547Y137614D01*
X1603Y137661D01*
X1625Y137674D01*
X1635Y137687D01*
X1661Y137708D01*
X3813Y139860D01*
X7827Y141523D01*
X12173Y141523D01*
X16187Y139860D01*
X19260Y136787D01*
X20923Y132773D01*
X20923Y128427D01*
X19260Y124413D01*
X16187Y121340D01*
X12173Y119677D01*
X7827Y119677D01*
X3813Y121340D01*
X1661Y123492D01*
X1601Y123535D01*
X1547Y123585D01*
X1503Y123606D01*
X1462Y123634D01*
X1392Y123656D01*
X1325Y123686D01*
X1276Y123691D01*
X1229Y123705D01*
X1156Y123703D01*
X1082Y123710D01*
X1034Y123699D01*
X985Y123697D01*
X916Y123671D01*
X845Y123655D01*
X803Y123629D01*
X757Y123611D01*
X700Y123565D01*
X637Y123526D01*
X606Y123488D01*
X568Y123457D01*
X529Y123394D01*
X482Y123338D01*
X465Y123292D01*
X439Y123250D01*
X422Y123178D01*
X396Y123109D01*
X389Y123036D01*
X383Y123012D01*
X385Y122995D01*
X382Y122962D01*
X382Y112838D01*
X394Y112765D01*
X396Y112692D01*
X413Y112646D01*
X421Y112597D01*
X456Y112532D01*
X482Y112463D01*
X513Y112425D01*
X536Y112382D01*
X590Y112331D01*
X637Y112275D01*
X679Y112249D01*
X714Y112215D01*
X781Y112184D01*
X844Y112146D01*
X892Y112134D01*
X937Y112114D01*
X1010Y112107D01*
X1081Y112090D01*
X1130Y112095D01*
X1180Y112090D01*
X1251Y112107D01*
X1324Y112114D01*
X1369Y112134D01*
X1417Y112145D01*
X1480Y112184D01*
X1547Y112214D01*
X1603Y112261D01*
X1625Y112274D01*
X1635Y112287D01*
X1661Y112308D01*
X3813Y114460D01*
X7827Y116123D01*
X12173Y116123D01*
X16187Y114460D01*
X19260Y111387D01*
X20923Y107373D01*
X20923Y103027D01*
X19260Y99013D01*
X16187Y95940D01*
X12173Y94277D01*
X7827Y94277D01*
X3813Y95940D01*
X1661Y98092D01*
X1601Y98135D01*
X1547Y98185D01*
X1503Y98206D01*
X1462Y98234D01*
X1392Y98256D01*
X1325Y98286D01*
X1276Y98291D01*
X1229Y98305D01*
X1156Y98303D01*
X1082Y98310D01*
X1034Y98299D01*
X985Y98297D01*
X916Y98271D01*
X845Y98255D01*
X803Y98229D01*
X757Y98211D01*
X700Y98165D01*
X637Y98126D01*
X606Y98088D01*
X568Y98057D01*
X529Y97994D01*
X482Y97938D01*
X465Y97892D01*
X439Y97850D01*
X422Y97778D01*
X396Y97709D01*
X389Y97636D01*
X383Y97612D01*
X385Y97595D01*
X382Y97562D01*
X382Y87438D01*
X394Y87365D01*
X396Y87292D01*
X413Y87246D01*
X421Y87197D01*
X456Y87132D01*
X482Y87063D01*
X513Y87025D01*
X536Y86982D01*
X590Y86931D01*
X637Y86875D01*
X679Y86849D01*
X714Y86815D01*
X781Y86784D01*
X844Y86746D01*
X892Y86734D01*
X937Y86714D01*
X1010Y86707D01*
X1081Y86690D01*
X1130Y86695D01*
X1180Y86690D01*
X1251Y86707D01*
X1324Y86714D01*
X1369Y86734D01*
X1417Y86745D01*
X1480Y86784D01*
X1547Y86814D01*
X1603Y86861D01*
X1625Y86874D01*
X1635Y86887D01*
X1661Y86908D01*
X3813Y89060D01*
X7827Y90723D01*
X12173Y90723D01*
X16187Y89060D01*
X19260Y85987D01*
X20923Y81973D01*
X20923Y77627D01*
X19260Y73613D01*
X16187Y70540D01*
X12173Y68877D01*
X7827Y68877D01*
X3813Y70540D01*
X1661Y72692D01*
X1601Y72735D01*
X1547Y72785D01*
X1503Y72806D01*
X1462Y72834D01*
X1392Y72856D01*
X1325Y72886D01*
X1276Y72891D01*
X1229Y72905D01*
X1156Y72903D01*
X1082Y72910D01*
X1034Y72899D01*
X985Y72897D01*
X916Y72871D01*
X845Y72855D01*
X803Y72829D01*
X757Y72811D01*
X700Y72765D01*
X637Y72726D01*
X606Y72688D01*
X568Y72657D01*
X529Y72594D01*
X482Y72538D01*
X465Y72492D01*
X439Y72450D01*
X422Y72378D01*
X396Y72309D01*
X389Y72236D01*
X383Y72212D01*
X385Y72195D01*
X382Y72162D01*
X382Y62038D01*
X385Y62017D01*
X383Y61999D01*
X394Y61953D01*
X396Y61892D01*
X413Y61846D01*
X421Y61797D01*
X437Y61767D01*
X439Y61762D01*
X451Y61742D01*
X456Y61732D01*
X482Y61663D01*
X513Y61625D01*
X536Y61582D01*
X590Y61531D01*
X637Y61475D01*
X679Y61449D01*
X714Y61415D01*
X781Y61384D01*
X844Y61346D01*
X892Y61334D01*
X937Y61314D01*
X1010Y61307D01*
X1081Y61290D01*
X1130Y61295D01*
X1180Y61290D01*
X1251Y61307D01*
X1324Y61314D01*
X1369Y61334D01*
X1417Y61345D01*
X1480Y61384D01*
X1547Y61414D01*
X1589Y61449D01*
X1597Y61453D01*
X1605Y61462D01*
X1625Y61474D01*
X1635Y61487D01*
X1661Y61508D01*
X3813Y63660D01*
X7827Y65323D01*
X12173Y65323D01*
X16187Y63660D01*
X19260Y60587D01*
X20923Y56573D01*
X20923Y52227D01*
X19260Y48213D01*
X16187Y45140D01*
X12173Y43477D01*
X7827Y43477D01*
X3813Y45140D01*
X1661Y47292D01*
X1601Y47335D01*
X1547Y47385D01*
X1503Y47406D01*
X1462Y47434D01*
X1392Y47456D01*
X1325Y47486D01*
X1276Y47491D01*
X1229Y47505D01*
X1156Y47503D01*
X1082Y47510D01*
X1034Y47499D01*
X985Y47497D01*
X916Y47471D01*
X845Y47455D01*
X803Y47429D01*
X757Y47411D01*
X700Y47365D01*
X637Y47326D01*
X606Y47288D01*
X568Y47257D01*
X529Y47194D01*
X482Y47138D01*
X465Y47092D01*
X439Y47050D01*
X422Y46978D01*
X396Y46909D01*
X389Y46836D01*
X383Y46812D01*
X385Y46795D01*
X382Y46762D01*
X382Y38074D01*
X394Y38002D01*
X396Y37929D01*
X413Y37882D01*
X421Y37834D01*
X456Y37769D01*
X482Y37700D01*
X513Y37662D01*
X536Y37619D01*
X590Y37568D01*
X637Y37511D01*
X679Y37485D01*
X714Y37452D01*
X781Y37421D01*
X844Y37382D01*
X892Y37371D01*
X937Y37351D01*
X1010Y37344D01*
X1081Y37327D01*
X1130Y37332D01*
X1180Y37327D01*
X1251Y37343D01*
X1324Y37351D01*
X1369Y37371D01*
X1417Y37382D01*
X1480Y37421D01*
X1547Y37451D01*
X1603Y37498D01*
X1625Y37511D01*
X1635Y37524D01*
X1661Y37545D01*
X2222Y38106D01*
X3743Y39211D01*
X5417Y40064D01*
X7204Y40645D01*
X8501Y40850D01*
X8501Y29750D01*
X8505Y29726D01*
X8502Y29702D01*
X8525Y29606D01*
X8540Y29509D01*
X8552Y29488D01*
X8558Y29464D01*
X8609Y29381D01*
X8655Y29294D01*
X8673Y29277D01*
X8686Y29257D01*
X8762Y29194D01*
X8834Y29127D01*
X8856Y29117D01*
X8875Y29102D01*
X8966Y29067D01*
X9056Y29027D01*
X9080Y29024D01*
X9103Y29015D01*
X9250Y29001D01*
X10001Y29001D01*
X10001Y28999D01*
X9250Y28999D01*
X9226Y28995D01*
X9201Y28998D01*
X9106Y28975D01*
X9009Y28959D01*
X8988Y28948D01*
X8964Y28942D01*
X8880Y28891D01*
X8794Y28844D01*
X8777Y28827D01*
X8756Y28814D01*
X8694Y28738D01*
X8627Y28666D01*
X8617Y28644D01*
X8602Y28625D01*
X8567Y28533D01*
X8526Y28444D01*
X8524Y28420D01*
X8515Y28397D01*
X8501Y28250D01*
X8501Y17150D01*
X7204Y17355D01*
X5417Y17936D01*
X3743Y18789D01*
X2222Y19894D01*
X1639Y20477D01*
X1581Y20519D01*
X1528Y20568D01*
X1482Y20589D01*
X1441Y20619D01*
X1372Y20640D01*
X1306Y20670D01*
X1256Y20675D01*
X1208Y20690D01*
X1135Y20687D01*
X1063Y20695D01*
X1014Y20683D01*
X964Y20682D01*
X896Y20656D01*
X826Y20640D01*
X783Y20614D01*
X735Y20596D01*
X679Y20550D01*
X618Y20512D01*
X586Y20473D01*
X547Y20441D01*
X508Y20380D01*
X462Y20324D01*
X444Y20277D01*
X418Y20234D01*
X401Y20164D01*
X375Y20096D01*
X368Y20021D01*
X362Y19997D01*
X364Y19981D01*
X360Y19949D01*
X359Y19401D01*
X363Y19377D01*
X360Y19352D01*
X384Y19206D01*
X2082Y12818D01*
X2105Y12766D01*
X2119Y12710D01*
X2175Y12611D01*
X2182Y12596D01*
X2186Y12591D01*
X2192Y12581D01*
X5979Y7164D01*
X6020Y7123D01*
X6052Y7076D01*
X6138Y7002D01*
X6150Y6990D01*
X6156Y6987D01*
X6164Y6979D01*
X11581Y3192D01*
X11633Y3167D01*
X11680Y3134D01*
X11786Y3094D01*
X11801Y3086D01*
X11808Y3086D01*
X11818Y3082D01*
X18206Y1384D01*
X18231Y1381D01*
X18254Y1373D01*
X18401Y1359D01*
X19686Y1363D01*
G37*
G36*
X20980Y328842D02*
X20980Y328842D01*
X21077Y328852D01*
X21100Y328862D01*
X21124Y328866D01*
X21210Y328912D01*
X21299Y328952D01*
X21325Y328973D01*
X21339Y328981D01*
X21356Y328999D01*
X21414Y329046D01*
X47200Y354832D01*
X47257Y354911D01*
X47319Y354987D01*
X47327Y355010D01*
X47342Y355030D01*
X47370Y355124D01*
X47405Y355215D01*
X47408Y355248D01*
X47413Y355264D01*
X47412Y355289D01*
X47419Y355362D01*
X47419Y359990D01*
X50724Y363294D01*
X50781Y363374D01*
X50843Y363449D01*
X50851Y363472D01*
X50866Y363493D01*
X50894Y363586D01*
X50929Y363677D01*
X50932Y363710D01*
X50937Y363726D01*
X50936Y363751D01*
X50943Y363824D01*
X50943Y367095D01*
X53905Y370057D01*
X56564Y370057D01*
X56636Y370069D01*
X56710Y370071D01*
X56756Y370088D01*
X56805Y370096D01*
X56869Y370131D01*
X56938Y370157D01*
X56976Y370188D01*
X57020Y370211D01*
X57070Y370265D01*
X57127Y370312D01*
X57153Y370354D01*
X57187Y370389D01*
X57217Y370456D01*
X57256Y370519D01*
X57267Y370567D01*
X57288Y370612D01*
X57295Y370685D01*
X57312Y370756D01*
X57307Y370805D01*
X57312Y370855D01*
X57295Y370926D01*
X57288Y370999D01*
X57268Y371044D01*
X57256Y371092D01*
X57218Y371155D01*
X57187Y371222D01*
X57141Y371278D01*
X57128Y371300D01*
X57115Y371310D01*
X57094Y371336D01*
X56174Y372256D01*
X56094Y372313D01*
X56019Y372375D01*
X55996Y372383D01*
X55975Y372398D01*
X55882Y372426D01*
X55791Y372461D01*
X55758Y372464D01*
X55742Y372469D01*
X55717Y372468D01*
X55644Y372475D01*
X36954Y372475D01*
X35256Y374174D01*
X32174Y377256D01*
X30475Y378954D01*
X30475Y433046D01*
X40256Y442826D01*
X40313Y442906D01*
X40375Y442981D01*
X40383Y443004D01*
X40398Y443025D01*
X40426Y443118D01*
X40461Y443209D01*
X40464Y443242D01*
X40469Y443258D01*
X40468Y443283D01*
X40475Y443356D01*
X40475Y460046D01*
X46954Y466525D01*
X51063Y466525D01*
X51159Y466541D01*
X51256Y466550D01*
X51279Y466560D01*
X51304Y466564D01*
X51390Y466610D01*
X51479Y466651D01*
X51504Y466672D01*
X51519Y466679D01*
X51536Y466698D01*
X51593Y466744D01*
X53905Y469057D01*
X58095Y469057D01*
X60407Y466744D01*
X60486Y466687D01*
X60562Y466625D01*
X60585Y466617D01*
X60605Y466602D01*
X60699Y466574D01*
X60790Y466539D01*
X60823Y466536D01*
X60839Y466531D01*
X60864Y466532D01*
X60937Y466525D01*
X199046Y466525D01*
X200744Y464826D01*
X211826Y453744D01*
X213525Y452046D01*
X213525Y398356D01*
X213541Y398260D01*
X213550Y398163D01*
X213560Y398140D01*
X213564Y398115D01*
X213610Y398029D01*
X213651Y397941D01*
X213672Y397915D01*
X213679Y397900D01*
X213698Y397883D01*
X213744Y397826D01*
X224826Y386744D01*
X224906Y386687D01*
X224981Y386625D01*
X225004Y386617D01*
X225025Y386602D01*
X225118Y386574D01*
X225209Y386539D01*
X225242Y386536D01*
X225258Y386531D01*
X225283Y386532D01*
X225356Y386525D01*
X226774Y386525D01*
X226908Y386547D01*
X227014Y386564D01*
X227015Y386564D01*
X227128Y386625D01*
X227229Y386679D01*
X227230Y386679D01*
X227305Y386759D01*
X227396Y386857D01*
X227397Y386857D01*
X227397Y386858D01*
X227466Y386987D01*
X229040Y390787D01*
X232113Y393860D01*
X236127Y395523D01*
X240473Y395523D01*
X244487Y393860D01*
X247339Y391008D01*
X247399Y390965D01*
X247453Y390915D01*
X247497Y390894D01*
X247538Y390866D01*
X247608Y390844D01*
X247675Y390814D01*
X247724Y390809D01*
X247771Y390795D01*
X247844Y390797D01*
X247918Y390790D01*
X247966Y390801D01*
X248015Y390803D01*
X248084Y390829D01*
X248155Y390845D01*
X248197Y390871D01*
X248243Y390889D01*
X248300Y390935D01*
X248363Y390974D01*
X248394Y391012D01*
X248432Y391043D01*
X248471Y391106D01*
X248518Y391162D01*
X248535Y391208D01*
X248561Y391250D01*
X248578Y391322D01*
X248604Y391391D01*
X248611Y391464D01*
X248617Y391488D01*
X248615Y391505D01*
X248618Y391538D01*
X248618Y403062D01*
X248606Y403135D01*
X248604Y403208D01*
X248587Y403254D01*
X248579Y403303D01*
X248544Y403368D01*
X248518Y403437D01*
X248487Y403475D01*
X248464Y403518D01*
X248410Y403569D01*
X248363Y403625D01*
X248322Y403651D01*
X248286Y403685D01*
X248219Y403716D01*
X248156Y403754D01*
X248108Y403766D01*
X248063Y403786D01*
X247990Y403793D01*
X247919Y403810D01*
X247870Y403805D01*
X247820Y403810D01*
X247749Y403793D01*
X247676Y403786D01*
X247631Y403766D01*
X247583Y403755D01*
X247520Y403716D01*
X247453Y403686D01*
X247397Y403639D01*
X247375Y403626D01*
X247365Y403613D01*
X247339Y403592D01*
X244487Y400740D01*
X240473Y399077D01*
X236127Y399077D01*
X232113Y400740D01*
X229040Y403813D01*
X227377Y407827D01*
X227377Y412173D01*
X229040Y416187D01*
X232113Y419260D01*
X236127Y420923D01*
X240473Y420923D01*
X244487Y419260D01*
X247339Y416408D01*
X247399Y416365D01*
X247453Y416315D01*
X247497Y416294D01*
X247538Y416266D01*
X247608Y416244D01*
X247675Y416214D01*
X247724Y416209D01*
X247771Y416195D01*
X247844Y416197D01*
X247918Y416190D01*
X247966Y416201D01*
X248015Y416203D01*
X248084Y416229D01*
X248155Y416245D01*
X248197Y416271D01*
X248243Y416289D01*
X248300Y416335D01*
X248363Y416374D01*
X248394Y416412D01*
X248432Y416443D01*
X248471Y416506D01*
X248518Y416562D01*
X248535Y416608D01*
X248561Y416650D01*
X248578Y416722D01*
X248604Y416791D01*
X248611Y416864D01*
X248617Y416888D01*
X248615Y416905D01*
X248618Y416938D01*
X248618Y428462D01*
X248616Y428475D01*
X248617Y428480D01*
X248612Y428499D01*
X248606Y428535D01*
X248604Y428608D01*
X248587Y428654D01*
X248579Y428703D01*
X248544Y428768D01*
X248518Y428837D01*
X248487Y428875D01*
X248464Y428918D01*
X248410Y428969D01*
X248363Y429025D01*
X248322Y429051D01*
X248286Y429085D01*
X248219Y429116D01*
X248156Y429154D01*
X248108Y429166D01*
X248063Y429186D01*
X247990Y429193D01*
X247919Y429210D01*
X247870Y429205D01*
X247820Y429210D01*
X247749Y429193D01*
X247676Y429186D01*
X247631Y429166D01*
X247583Y429155D01*
X247520Y429116D01*
X247453Y429086D01*
X247397Y429039D01*
X247375Y429026D01*
X247365Y429013D01*
X247339Y428992D01*
X244487Y426140D01*
X240473Y424477D01*
X236127Y424477D01*
X232113Y426140D01*
X229040Y429213D01*
X227377Y433227D01*
X227377Y437573D01*
X229040Y441587D01*
X232113Y444660D01*
X236127Y446323D01*
X240473Y446323D01*
X244487Y444660D01*
X247339Y441808D01*
X247399Y441765D01*
X247453Y441715D01*
X247497Y441694D01*
X247538Y441666D01*
X247608Y441644D01*
X247675Y441614D01*
X247724Y441609D01*
X247771Y441595D01*
X247844Y441597D01*
X247918Y441590D01*
X247966Y441601D01*
X248015Y441603D01*
X248084Y441629D01*
X248155Y441645D01*
X248197Y441671D01*
X248243Y441689D01*
X248300Y441735D01*
X248363Y441774D01*
X248394Y441812D01*
X248432Y441843D01*
X248471Y441906D01*
X248518Y441962D01*
X248535Y442008D01*
X248561Y442050D01*
X248578Y442122D01*
X248604Y442191D01*
X248611Y442264D01*
X248617Y442288D01*
X248615Y442305D01*
X248618Y442338D01*
X248618Y453862D01*
X248606Y453935D01*
X248604Y454008D01*
X248587Y454054D01*
X248579Y454103D01*
X248544Y454168D01*
X248518Y454237D01*
X248487Y454275D01*
X248464Y454318D01*
X248410Y454369D01*
X248363Y454425D01*
X248322Y454451D01*
X248286Y454485D01*
X248219Y454516D01*
X248156Y454554D01*
X248108Y454566D01*
X248063Y454586D01*
X247990Y454593D01*
X247919Y454610D01*
X247870Y454605D01*
X247820Y454610D01*
X247749Y454593D01*
X247676Y454586D01*
X247631Y454566D01*
X247583Y454555D01*
X247520Y454516D01*
X247453Y454486D01*
X247397Y454439D01*
X247375Y454426D01*
X247365Y454413D01*
X247339Y454392D01*
X244487Y451540D01*
X240473Y449877D01*
X236127Y449877D01*
X232113Y451540D01*
X229040Y454613D01*
X227377Y458627D01*
X227377Y462973D01*
X229040Y466987D01*
X232113Y470060D01*
X236127Y471723D01*
X240473Y471723D01*
X244487Y470060D01*
X247339Y467208D01*
X247399Y467165D01*
X247453Y467115D01*
X247497Y467094D01*
X247538Y467066D01*
X247608Y467044D01*
X247675Y467014D01*
X247724Y467009D01*
X247771Y466995D01*
X247844Y466997D01*
X247918Y466990D01*
X247966Y467001D01*
X248015Y467003D01*
X248084Y467029D01*
X248155Y467045D01*
X248197Y467071D01*
X248243Y467089D01*
X248300Y467135D01*
X248363Y467174D01*
X248394Y467212D01*
X248432Y467243D01*
X248471Y467306D01*
X248518Y467362D01*
X248535Y467408D01*
X248561Y467450D01*
X248578Y467522D01*
X248604Y467591D01*
X248611Y467664D01*
X248617Y467688D01*
X248615Y467705D01*
X248618Y467738D01*
X248618Y479262D01*
X248606Y479335D01*
X248604Y479408D01*
X248587Y479454D01*
X248579Y479503D01*
X248544Y479568D01*
X248518Y479637D01*
X248487Y479675D01*
X248464Y479718D01*
X248410Y479769D01*
X248363Y479825D01*
X248322Y479851D01*
X248286Y479885D01*
X248219Y479916D01*
X248156Y479954D01*
X248108Y479966D01*
X248063Y479986D01*
X247990Y479993D01*
X247919Y480010D01*
X247870Y480005D01*
X247820Y480010D01*
X247749Y479993D01*
X247676Y479986D01*
X247631Y479966D01*
X247583Y479955D01*
X247520Y479916D01*
X247453Y479886D01*
X247397Y479839D01*
X247375Y479826D01*
X247365Y479813D01*
X247339Y479792D01*
X244487Y476940D01*
X240473Y475277D01*
X236127Y475277D01*
X232113Y476940D01*
X229040Y480013D01*
X227377Y484027D01*
X227377Y488373D01*
X229040Y492387D01*
X232113Y495460D01*
X236127Y497123D01*
X240473Y497123D01*
X244487Y495460D01*
X247339Y492608D01*
X247399Y492565D01*
X247453Y492515D01*
X247497Y492494D01*
X247538Y492466D01*
X247608Y492444D01*
X247675Y492414D01*
X247724Y492409D01*
X247771Y492395D01*
X247844Y492397D01*
X247918Y492390D01*
X247966Y492401D01*
X248015Y492403D01*
X248084Y492429D01*
X248155Y492445D01*
X248197Y492471D01*
X248243Y492489D01*
X248300Y492535D01*
X248363Y492574D01*
X248394Y492612D01*
X248432Y492643D01*
X248471Y492706D01*
X248518Y492762D01*
X248535Y492808D01*
X248561Y492850D01*
X248578Y492922D01*
X248604Y492991D01*
X248611Y493064D01*
X248617Y493088D01*
X248615Y493105D01*
X248618Y493138D01*
X248618Y510000D01*
X248614Y510024D01*
X248617Y510049D01*
X248595Y510144D01*
X248579Y510241D01*
X248567Y510262D01*
X248561Y510286D01*
X248510Y510370D01*
X248464Y510456D01*
X248446Y510473D01*
X248433Y510494D01*
X248357Y510556D01*
X248286Y510623D01*
X248263Y510633D01*
X248244Y510649D01*
X248153Y510683D01*
X248063Y510724D01*
X248039Y510726D01*
X248016Y510735D01*
X247869Y510749D01*
X210131Y510749D01*
X210107Y510745D01*
X210082Y510748D01*
X209987Y510726D01*
X209890Y510710D01*
X209869Y510698D01*
X209845Y510692D01*
X209761Y510641D01*
X209675Y510595D01*
X209658Y510577D01*
X209637Y510564D01*
X209575Y510488D01*
X209508Y510417D01*
X209498Y510394D01*
X209482Y510375D01*
X209448Y510284D01*
X209407Y510194D01*
X209405Y510170D01*
X209396Y510147D01*
X209382Y510000D01*
X209382Y509013D01*
X207987Y507618D01*
X43013Y507618D01*
X41618Y509013D01*
X41618Y510000D01*
X41614Y510024D01*
X41617Y510049D01*
X41595Y510144D01*
X41579Y510241D01*
X41567Y510262D01*
X41561Y510286D01*
X41510Y510370D01*
X41464Y510456D01*
X41446Y510473D01*
X41433Y510494D01*
X41357Y510556D01*
X41286Y510623D01*
X41263Y510633D01*
X41244Y510649D01*
X41153Y510683D01*
X41063Y510724D01*
X41039Y510726D01*
X41016Y510735D01*
X40869Y510749D01*
X1131Y510749D01*
X1107Y510745D01*
X1082Y510748D01*
X987Y510726D01*
X890Y510710D01*
X869Y510698D01*
X845Y510692D01*
X761Y510641D01*
X675Y510595D01*
X658Y510577D01*
X637Y510564D01*
X575Y510488D01*
X508Y510417D01*
X498Y510394D01*
X482Y510375D01*
X448Y510284D01*
X407Y510194D01*
X405Y510170D01*
X396Y510147D01*
X382Y510000D01*
X382Y495274D01*
X394Y495202D01*
X396Y495129D01*
X413Y495082D01*
X421Y495034D01*
X456Y494969D01*
X482Y494900D01*
X513Y494862D01*
X536Y494819D01*
X590Y494768D01*
X637Y494711D01*
X679Y494685D01*
X714Y494652D01*
X781Y494621D01*
X844Y494582D01*
X892Y494571D01*
X937Y494551D01*
X1010Y494544D01*
X1081Y494527D01*
X1130Y494532D01*
X1180Y494527D01*
X1251Y494543D01*
X1324Y494551D01*
X1369Y494571D01*
X1417Y494582D01*
X1480Y494621D01*
X1547Y494651D01*
X1603Y494698D01*
X1625Y494711D01*
X1635Y494724D01*
X1661Y494745D01*
X2222Y495306D01*
X3743Y496411D01*
X5417Y497264D01*
X7204Y497845D01*
X8501Y498050D01*
X8501Y486950D01*
X8505Y486926D01*
X8502Y486902D01*
X8525Y486806D01*
X8540Y486709D01*
X8552Y486688D01*
X8558Y486664D01*
X8609Y486581D01*
X8655Y486494D01*
X8673Y486477D01*
X8686Y486457D01*
X8762Y486394D01*
X8834Y486327D01*
X8856Y486317D01*
X8875Y486302D01*
X8966Y486267D01*
X9056Y486227D01*
X9080Y486224D01*
X9103Y486215D01*
X9250Y486201D01*
X10001Y486201D01*
X10001Y486199D01*
X9250Y486199D01*
X9226Y486195D01*
X9201Y486198D01*
X9106Y486175D01*
X9009Y486159D01*
X8988Y486148D01*
X8964Y486142D01*
X8880Y486091D01*
X8794Y486044D01*
X8777Y486027D01*
X8756Y486014D01*
X8694Y485938D01*
X8627Y485866D01*
X8617Y485844D01*
X8602Y485825D01*
X8567Y485733D01*
X8526Y485644D01*
X8524Y485620D01*
X8515Y485597D01*
X8501Y485450D01*
X8501Y474350D01*
X7204Y474555D01*
X5417Y475136D01*
X3743Y475989D01*
X2222Y477094D01*
X1661Y477655D01*
X1601Y477698D01*
X1547Y477748D01*
X1503Y477769D01*
X1462Y477797D01*
X1392Y477819D01*
X1325Y477849D01*
X1276Y477854D01*
X1229Y477868D01*
X1156Y477866D01*
X1082Y477873D01*
X1034Y477862D01*
X985Y477860D01*
X916Y477835D01*
X845Y477818D01*
X803Y477792D01*
X757Y477775D01*
X700Y477728D01*
X637Y477689D01*
X606Y477651D01*
X568Y477620D01*
X529Y477558D01*
X482Y477501D01*
X465Y477455D01*
X439Y477413D01*
X422Y477341D01*
X396Y477272D01*
X389Y477199D01*
X383Y477175D01*
X385Y477159D01*
X382Y477126D01*
X382Y468438D01*
X394Y468365D01*
X396Y468292D01*
X413Y468246D01*
X421Y468197D01*
X456Y468132D01*
X482Y468063D01*
X513Y468025D01*
X536Y467982D01*
X590Y467931D01*
X637Y467875D01*
X679Y467849D01*
X714Y467815D01*
X781Y467784D01*
X844Y467746D01*
X892Y467734D01*
X937Y467714D01*
X1010Y467707D01*
X1081Y467690D01*
X1130Y467695D01*
X1180Y467690D01*
X1251Y467707D01*
X1324Y467714D01*
X1369Y467734D01*
X1417Y467745D01*
X1480Y467784D01*
X1547Y467814D01*
X1603Y467861D01*
X1625Y467874D01*
X1635Y467887D01*
X1661Y467908D01*
X3813Y470060D01*
X7827Y471723D01*
X12173Y471723D01*
X16187Y470060D01*
X19260Y466987D01*
X20923Y462973D01*
X20923Y458627D01*
X19260Y454613D01*
X16187Y451540D01*
X12173Y449877D01*
X7827Y449877D01*
X3813Y451540D01*
X1661Y453692D01*
X1601Y453735D01*
X1547Y453785D01*
X1522Y453797D01*
X1512Y453805D01*
X1494Y453812D01*
X1462Y453834D01*
X1392Y453856D01*
X1325Y453886D01*
X1288Y453890D01*
X1284Y453891D01*
X1271Y453892D01*
X1229Y453905D01*
X1164Y453903D01*
X1137Y453906D01*
X1131Y453906D01*
X1129Y453905D01*
X1082Y453910D01*
X1034Y453899D01*
X985Y453897D01*
X916Y453871D01*
X900Y453868D01*
X890Y453866D01*
X888Y453865D01*
X845Y453855D01*
X803Y453829D01*
X757Y453811D01*
X700Y453765D01*
X693Y453761D01*
X675Y453751D01*
X671Y453747D01*
X637Y453726D01*
X606Y453688D01*
X568Y453657D01*
X531Y453597D01*
X508Y453573D01*
X504Y453564D01*
X482Y453538D01*
X465Y453492D01*
X439Y453450D01*
X425Y453389D01*
X407Y453351D01*
X406Y453334D01*
X396Y453309D01*
X389Y453236D01*
X383Y453212D01*
X385Y453195D01*
X382Y453162D01*
X382Y443038D01*
X394Y442965D01*
X396Y442892D01*
X413Y442846D01*
X421Y442797D01*
X456Y442732D01*
X482Y442663D01*
X513Y442625D01*
X536Y442582D01*
X590Y442531D01*
X637Y442475D01*
X679Y442449D01*
X714Y442415D01*
X781Y442384D01*
X844Y442346D01*
X892Y442334D01*
X937Y442314D01*
X1010Y442307D01*
X1081Y442290D01*
X1130Y442295D01*
X1180Y442290D01*
X1251Y442307D01*
X1324Y442314D01*
X1369Y442334D01*
X1417Y442345D01*
X1480Y442384D01*
X1547Y442414D01*
X1603Y442461D01*
X1625Y442474D01*
X1635Y442487D01*
X1661Y442508D01*
X3813Y444660D01*
X7827Y446323D01*
X12173Y446323D01*
X16187Y444660D01*
X19260Y441587D01*
X20923Y437573D01*
X20923Y433227D01*
X19260Y429213D01*
X16187Y426140D01*
X12173Y424477D01*
X7827Y424477D01*
X3813Y426140D01*
X1661Y428292D01*
X1601Y428335D01*
X1547Y428385D01*
X1503Y428406D01*
X1462Y428434D01*
X1392Y428456D01*
X1325Y428486D01*
X1276Y428491D01*
X1229Y428505D01*
X1156Y428503D01*
X1082Y428510D01*
X1034Y428499D01*
X985Y428497D01*
X916Y428471D01*
X845Y428455D01*
X803Y428429D01*
X757Y428411D01*
X700Y428365D01*
X637Y428326D01*
X606Y428288D01*
X568Y428257D01*
X529Y428194D01*
X482Y428138D01*
X465Y428092D01*
X439Y428050D01*
X422Y427978D01*
X396Y427909D01*
X389Y427836D01*
X383Y427812D01*
X385Y427795D01*
X382Y427762D01*
X382Y417638D01*
X394Y417565D01*
X396Y417492D01*
X413Y417446D01*
X421Y417397D01*
X456Y417332D01*
X482Y417263D01*
X513Y417225D01*
X536Y417182D01*
X590Y417131D01*
X637Y417075D01*
X679Y417049D01*
X714Y417015D01*
X781Y416984D01*
X844Y416946D01*
X892Y416934D01*
X937Y416914D01*
X1010Y416907D01*
X1081Y416890D01*
X1130Y416895D01*
X1180Y416890D01*
X1251Y416907D01*
X1324Y416914D01*
X1369Y416934D01*
X1417Y416945D01*
X1480Y416984D01*
X1547Y417014D01*
X1603Y417061D01*
X1625Y417074D01*
X1635Y417087D01*
X1661Y417108D01*
X3813Y419260D01*
X7827Y420923D01*
X12173Y420923D01*
X16187Y419260D01*
X19260Y416187D01*
X20923Y412173D01*
X20923Y407827D01*
X19260Y403813D01*
X16187Y400740D01*
X12173Y399077D01*
X7827Y399077D01*
X3813Y400740D01*
X1661Y402892D01*
X1601Y402935D01*
X1547Y402985D01*
X1503Y403006D01*
X1462Y403034D01*
X1392Y403056D01*
X1325Y403086D01*
X1276Y403091D01*
X1229Y403105D01*
X1156Y403103D01*
X1082Y403110D01*
X1034Y403099D01*
X985Y403097D01*
X916Y403071D01*
X845Y403055D01*
X803Y403029D01*
X757Y403011D01*
X700Y402965D01*
X637Y402926D01*
X606Y402888D01*
X568Y402857D01*
X529Y402794D01*
X482Y402738D01*
X465Y402692D01*
X439Y402650D01*
X422Y402578D01*
X396Y402509D01*
X389Y402436D01*
X383Y402412D01*
X385Y402395D01*
X382Y402362D01*
X382Y392238D01*
X394Y392165D01*
X396Y392092D01*
X413Y392046D01*
X421Y391997D01*
X456Y391932D01*
X482Y391863D01*
X513Y391825D01*
X536Y391782D01*
X590Y391731D01*
X637Y391675D01*
X679Y391649D01*
X714Y391615D01*
X781Y391584D01*
X844Y391546D01*
X892Y391534D01*
X937Y391514D01*
X1010Y391507D01*
X1081Y391490D01*
X1130Y391495D01*
X1180Y391490D01*
X1251Y391507D01*
X1324Y391514D01*
X1369Y391534D01*
X1417Y391545D01*
X1480Y391584D01*
X1547Y391614D01*
X1603Y391661D01*
X1625Y391674D01*
X1635Y391687D01*
X1661Y391708D01*
X3813Y393860D01*
X7827Y395523D01*
X12173Y395523D01*
X16187Y393860D01*
X19260Y390787D01*
X20923Y386773D01*
X20923Y382427D01*
X19260Y378413D01*
X16187Y375340D01*
X12173Y373677D01*
X7827Y373677D01*
X3813Y375340D01*
X1661Y377492D01*
X1601Y377535D01*
X1547Y377585D01*
X1503Y377606D01*
X1462Y377634D01*
X1392Y377656D01*
X1325Y377686D01*
X1276Y377691D01*
X1229Y377705D01*
X1156Y377703D01*
X1082Y377710D01*
X1034Y377699D01*
X985Y377697D01*
X916Y377671D01*
X845Y377655D01*
X803Y377629D01*
X757Y377611D01*
X700Y377565D01*
X637Y377526D01*
X606Y377488D01*
X568Y377457D01*
X529Y377394D01*
X482Y377338D01*
X465Y377292D01*
X439Y377250D01*
X422Y377178D01*
X396Y377109D01*
X389Y377036D01*
X383Y377012D01*
X385Y376995D01*
X382Y376962D01*
X382Y366838D01*
X394Y366765D01*
X396Y366692D01*
X413Y366646D01*
X421Y366597D01*
X456Y366532D01*
X482Y366463D01*
X513Y366425D01*
X536Y366382D01*
X590Y366331D01*
X637Y366275D01*
X679Y366249D01*
X714Y366215D01*
X781Y366184D01*
X844Y366146D01*
X892Y366134D01*
X937Y366114D01*
X1010Y366107D01*
X1081Y366090D01*
X1130Y366095D01*
X1180Y366090D01*
X1251Y366107D01*
X1324Y366114D01*
X1369Y366134D01*
X1417Y366145D01*
X1480Y366184D01*
X1547Y366214D01*
X1603Y366261D01*
X1625Y366274D01*
X1635Y366287D01*
X1661Y366308D01*
X3813Y368460D01*
X7827Y370123D01*
X12173Y370123D01*
X16187Y368460D01*
X19260Y365387D01*
X20923Y361373D01*
X20923Y357027D01*
X19260Y353013D01*
X16187Y349940D01*
X12173Y348277D01*
X7827Y348277D01*
X3813Y349940D01*
X1661Y352092D01*
X1601Y352135D01*
X1547Y352185D01*
X1503Y352206D01*
X1462Y352234D01*
X1392Y352256D01*
X1325Y352286D01*
X1276Y352291D01*
X1229Y352305D01*
X1156Y352303D01*
X1082Y352310D01*
X1034Y352299D01*
X985Y352297D01*
X916Y352271D01*
X845Y352255D01*
X803Y352229D01*
X757Y352211D01*
X700Y352165D01*
X637Y352126D01*
X606Y352088D01*
X568Y352057D01*
X529Y351994D01*
X482Y351938D01*
X465Y351892D01*
X439Y351850D01*
X422Y351778D01*
X396Y351709D01*
X389Y351636D01*
X383Y351612D01*
X385Y351595D01*
X382Y351562D01*
X382Y341438D01*
X394Y341365D01*
X396Y341292D01*
X413Y341246D01*
X421Y341197D01*
X456Y341132D01*
X482Y341063D01*
X513Y341025D01*
X536Y340982D01*
X590Y340931D01*
X637Y340875D01*
X679Y340849D01*
X714Y340815D01*
X781Y340784D01*
X844Y340746D01*
X892Y340734D01*
X937Y340714D01*
X1010Y340707D01*
X1081Y340690D01*
X1130Y340695D01*
X1180Y340690D01*
X1251Y340707D01*
X1324Y340714D01*
X1369Y340734D01*
X1417Y340745D01*
X1480Y340784D01*
X1547Y340814D01*
X1603Y340861D01*
X1625Y340874D01*
X1635Y340887D01*
X1661Y340908D01*
X3813Y343060D01*
X7827Y344723D01*
X12173Y344723D01*
X16187Y343060D01*
X19260Y339987D01*
X20923Y335973D01*
X20923Y331627D01*
X20192Y329863D01*
X20170Y329767D01*
X20141Y329674D01*
X20142Y329649D01*
X20136Y329625D01*
X20146Y329528D01*
X20149Y329430D01*
X20158Y329407D01*
X20160Y329382D01*
X20200Y329293D01*
X20235Y329201D01*
X20251Y329182D01*
X20261Y329160D01*
X20327Y329089D01*
X20390Y329013D01*
X20411Y329000D01*
X20428Y328982D01*
X20514Y328935D01*
X20597Y328884D01*
X20621Y328878D01*
X20643Y328866D01*
X20739Y328850D01*
X20834Y328828D01*
X20859Y328831D01*
X20883Y328827D01*
X20980Y328842D01*
G37*
G36*
X108291Y330280D02*
X108291Y330280D01*
X108340Y330282D01*
X108409Y330308D01*
X108480Y330324D01*
X108522Y330350D01*
X108568Y330368D01*
X108625Y330414D01*
X108688Y330453D01*
X108719Y330491D01*
X108757Y330522D01*
X108796Y330585D01*
X108843Y330642D01*
X108860Y330688D01*
X108886Y330730D01*
X108903Y330801D01*
X108904Y330804D01*
X108918Y330834D01*
X108918Y330843D01*
X108929Y330870D01*
X108936Y330943D01*
X108942Y330967D01*
X108940Y330984D01*
X108943Y331017D01*
X108943Y334095D01*
X111905Y337057D01*
X116095Y337057D01*
X118664Y334487D01*
X118724Y334444D01*
X118778Y334394D01*
X118822Y334374D01*
X118863Y334345D01*
X118933Y334324D01*
X119000Y334293D01*
X119049Y334288D01*
X119096Y334274D01*
X119169Y334276D01*
X119243Y334269D01*
X119291Y334280D01*
X119340Y334282D01*
X119409Y334308D01*
X119480Y334324D01*
X119522Y334350D01*
X119568Y334368D01*
X119625Y334414D01*
X119688Y334453D01*
X119719Y334491D01*
X119757Y334522D01*
X119796Y334585D01*
X119843Y334642D01*
X119860Y334688D01*
X119886Y334730D01*
X119903Y334801D01*
X119929Y334870D01*
X119936Y334943D01*
X119942Y334967D01*
X119940Y334984D01*
X119943Y335017D01*
X119943Y338095D01*
X122905Y341057D01*
X127095Y341057D01*
X128664Y339487D01*
X128724Y339444D01*
X128778Y339394D01*
X128801Y339383D01*
X128816Y339371D01*
X128837Y339363D01*
X128863Y339345D01*
X128933Y339324D01*
X129000Y339293D01*
X129031Y339290D01*
X129044Y339285D01*
X129067Y339283D01*
X129096Y339274D01*
X129141Y339275D01*
X129191Y339270D01*
X129194Y339270D01*
X129207Y339273D01*
X129243Y339269D01*
X129291Y339280D01*
X129340Y339282D01*
X129400Y339304D01*
X129435Y339310D01*
X129447Y339317D01*
X129480Y339324D01*
X129522Y339350D01*
X129568Y339368D01*
X129617Y339407D01*
X129650Y339425D01*
X129660Y339436D01*
X129688Y339453D01*
X129719Y339491D01*
X129757Y339522D01*
X129788Y339573D01*
X129817Y339603D01*
X129824Y339619D01*
X129843Y339642D01*
X129860Y339688D01*
X129886Y339730D01*
X129899Y339784D01*
X129918Y339825D01*
X129920Y339846D01*
X129929Y339870D01*
X129936Y339943D01*
X129942Y339967D01*
X129940Y339984D01*
X129943Y340017D01*
X129943Y344095D01*
X132905Y347057D01*
X137095Y347057D01*
X139407Y344744D01*
X139487Y344687D01*
X139562Y344625D01*
X139585Y344617D01*
X139605Y344602D01*
X139699Y344574D01*
X139790Y344539D01*
X139823Y344536D01*
X139839Y344531D01*
X139864Y344532D01*
X139937Y344525D01*
X153515Y344525D01*
X153588Y344537D01*
X153661Y344539D01*
X153707Y344556D01*
X153756Y344564D01*
X153821Y344599D01*
X153889Y344625D01*
X153928Y344656D01*
X153971Y344679D01*
X154021Y344733D01*
X154078Y344780D01*
X154104Y344822D01*
X154138Y344857D01*
X154168Y344924D01*
X154207Y344987D01*
X154218Y345035D01*
X154239Y345080D01*
X154246Y345153D01*
X154263Y345224D01*
X154258Y345273D01*
X154263Y345323D01*
X154246Y345394D01*
X154239Y345467D01*
X154219Y345512D01*
X154208Y345560D01*
X154169Y345623D01*
X154139Y345690D01*
X154092Y345746D01*
X154079Y345768D01*
X154066Y345778D01*
X154045Y345804D01*
X152943Y346905D01*
X152943Y351095D01*
X155905Y354057D01*
X158794Y354057D01*
X158890Y354073D01*
X158987Y354082D01*
X159010Y354092D01*
X159035Y354096D01*
X159121Y354142D01*
X159210Y354183D01*
X159235Y354204D01*
X159250Y354211D01*
X159267Y354230D01*
X159324Y354276D01*
X160986Y355938D01*
X161043Y356018D01*
X161105Y356093D01*
X161113Y356116D01*
X161128Y356137D01*
X161156Y356230D01*
X161191Y356321D01*
X161194Y356354D01*
X161199Y356370D01*
X161198Y356395D01*
X161205Y356468D01*
X161205Y375158D01*
X171842Y385795D01*
X197738Y385795D01*
X197834Y385811D01*
X197931Y385820D01*
X197954Y385830D01*
X197979Y385834D01*
X198065Y385880D01*
X198154Y385921D01*
X198179Y385942D01*
X198194Y385949D01*
X198211Y385968D01*
X198268Y386014D01*
X203450Y391196D01*
X203493Y391256D01*
X203543Y391310D01*
X203563Y391354D01*
X203592Y391395D01*
X203613Y391465D01*
X203644Y391532D01*
X203649Y391581D01*
X203663Y391628D01*
X203661Y391701D01*
X203668Y391775D01*
X203657Y391823D01*
X203655Y391872D01*
X203629Y391941D01*
X203613Y392012D01*
X203586Y392054D01*
X203569Y392100D01*
X203523Y392157D01*
X203484Y392220D01*
X203446Y392251D01*
X203414Y392289D01*
X203352Y392328D01*
X203295Y392375D01*
X203249Y392392D01*
X203207Y392418D01*
X203136Y392435D01*
X203067Y392461D01*
X202994Y392468D01*
X202970Y392474D01*
X202953Y392472D01*
X202920Y392475D01*
X198779Y392475D01*
X197530Y393725D01*
X197510Y393739D01*
X197494Y393758D01*
X197411Y393810D01*
X197331Y393867D01*
X197308Y393874D01*
X197287Y393887D01*
X197192Y393909D01*
X197098Y393938D01*
X197074Y393937D01*
X197050Y393943D01*
X196952Y393933D01*
X196854Y393930D01*
X196831Y393921D01*
X196807Y393919D01*
X196718Y393879D01*
X196626Y393844D01*
X196607Y393828D01*
X196584Y393818D01*
X196470Y393725D01*
X195221Y392475D01*
X190139Y392475D01*
X188455Y394159D01*
X188455Y398344D01*
X188439Y398440D01*
X188430Y398537D01*
X188420Y398560D01*
X188416Y398585D01*
X188370Y398671D01*
X188329Y398759D01*
X188308Y398785D01*
X188301Y398800D01*
X188282Y398817D01*
X188236Y398874D01*
X185854Y401256D01*
X185774Y401313D01*
X185699Y401375D01*
X185676Y401383D01*
X185655Y401398D01*
X185562Y401426D01*
X185471Y401461D01*
X185438Y401464D01*
X185422Y401469D01*
X185397Y401468D01*
X185324Y401475D01*
X177868Y401475D01*
X177091Y402252D01*
X177013Y402308D01*
X176893Y402394D01*
X176893Y402395D01*
X176779Y402429D01*
X176660Y402465D01*
X176659Y402465D01*
X176552Y402462D01*
X176416Y402458D01*
X176294Y402412D01*
X176187Y402372D01*
X176080Y402284D01*
X175999Y402217D01*
X175998Y402217D01*
X175913Y402097D01*
X175533Y401440D01*
X175060Y400967D01*
X174481Y400632D01*
X173834Y400459D01*
X170249Y400459D01*
X170249Y405751D01*
X176226Y405751D01*
X176250Y405755D01*
X176275Y405752D01*
X176370Y405775D01*
X176467Y405791D01*
X176488Y405802D01*
X176512Y405808D01*
X176596Y405859D01*
X176682Y405906D01*
X176699Y405923D01*
X176720Y405936D01*
X176782Y406012D01*
X176849Y406084D01*
X176859Y406106D01*
X176875Y406125D01*
X176909Y406216D01*
X176950Y406306D01*
X176952Y406330D01*
X176961Y406353D01*
X176975Y406500D01*
X176975Y408000D01*
X176971Y408024D01*
X176974Y408048D01*
X176952Y408144D01*
X176936Y408241D01*
X176924Y408262D01*
X176918Y408286D01*
X176867Y408369D01*
X176821Y408456D01*
X176803Y408473D01*
X176790Y408493D01*
X176714Y408556D01*
X176643Y408623D01*
X176620Y408633D01*
X176601Y408648D01*
X176510Y408683D01*
X176420Y408724D01*
X176396Y408726D01*
X176373Y408735D01*
X176226Y408749D01*
X169500Y408749D01*
X169476Y408745D01*
X169452Y408748D01*
X169356Y408725D01*
X169259Y408709D01*
X169238Y408698D01*
X169214Y408692D01*
X169131Y408641D01*
X169044Y408594D01*
X169027Y408577D01*
X169007Y408564D01*
X168944Y408488D01*
X168877Y408416D01*
X168867Y408394D01*
X168852Y408375D01*
X168817Y408284D01*
X168776Y408194D01*
X168774Y408170D01*
X168765Y408147D01*
X168751Y408000D01*
X168751Y407249D01*
X168749Y407249D01*
X168749Y408000D01*
X168745Y408024D01*
X168748Y408048D01*
X168725Y408144D01*
X168709Y408241D01*
X168698Y408262D01*
X168692Y408286D01*
X168641Y408369D01*
X168594Y408456D01*
X168577Y408473D01*
X168564Y408493D01*
X168488Y408556D01*
X168416Y408623D01*
X168394Y408633D01*
X168375Y408648D01*
X168284Y408683D01*
X168194Y408724D01*
X168170Y408726D01*
X168147Y408735D01*
X168000Y408749D01*
X161459Y408749D01*
X161459Y411834D01*
X161632Y412481D01*
X161967Y413060D01*
X162256Y413349D01*
X162313Y413428D01*
X162375Y413504D01*
X162383Y413527D01*
X162398Y413547D01*
X162426Y413641D01*
X162461Y413732D01*
X162464Y413765D01*
X162469Y413781D01*
X162468Y413806D01*
X162475Y413879D01*
X162475Y421144D01*
X162459Y421240D01*
X162450Y421337D01*
X162440Y421360D01*
X162436Y421385D01*
X162390Y421471D01*
X162349Y421559D01*
X162328Y421585D01*
X162321Y421600D01*
X162302Y421617D01*
X162256Y421674D01*
X159674Y424256D01*
X159594Y424313D01*
X159519Y424375D01*
X159496Y424383D01*
X159475Y424398D01*
X159382Y424426D01*
X159291Y424461D01*
X159258Y424464D01*
X159242Y424469D01*
X159217Y424468D01*
X159144Y424475D01*
X156779Y424475D01*
X155530Y425725D01*
X155510Y425739D01*
X155494Y425758D01*
X155411Y425810D01*
X155331Y425867D01*
X155308Y425874D01*
X155287Y425887D01*
X155192Y425909D01*
X155098Y425938D01*
X155074Y425937D01*
X155050Y425943D01*
X154952Y425933D01*
X154854Y425930D01*
X154831Y425921D01*
X154807Y425919D01*
X154718Y425879D01*
X154626Y425844D01*
X154607Y425828D01*
X154584Y425818D01*
X154470Y425725D01*
X153221Y424475D01*
X148139Y424475D01*
X146455Y426159D01*
X146455Y431841D01*
X146811Y432196D01*
X146854Y432256D01*
X146904Y432310D01*
X146924Y432354D01*
X146953Y432395D01*
X146974Y432465D01*
X147005Y432532D01*
X147009Y432581D01*
X147024Y432628D01*
X147021Y432701D01*
X147029Y432775D01*
X147017Y432823D01*
X147016Y432872D01*
X146990Y432941D01*
X146973Y433012D01*
X146947Y433054D01*
X146930Y433100D01*
X146884Y433157D01*
X146845Y433220D01*
X146807Y433251D01*
X146775Y433289D01*
X146713Y433328D01*
X146656Y433375D01*
X146610Y433392D01*
X146568Y433418D01*
X146497Y433435D01*
X146428Y433461D01*
X146355Y433468D01*
X146331Y433474D01*
X146314Y433472D01*
X146281Y433475D01*
X43356Y433475D01*
X43260Y433459D01*
X43163Y433450D01*
X43140Y433440D01*
X43115Y433436D01*
X43029Y433390D01*
X42941Y433349D01*
X42915Y433328D01*
X42900Y433321D01*
X42883Y433302D01*
X42826Y433256D01*
X39268Y429698D01*
X39223Y429634D01*
X39188Y429597D01*
X39180Y429581D01*
X39149Y429543D01*
X39141Y429520D01*
X39126Y429499D01*
X39098Y429406D01*
X39063Y429315D01*
X39060Y429282D01*
X39055Y429266D01*
X39056Y429241D01*
X39049Y429168D01*
X39049Y383356D01*
X39065Y383260D01*
X39074Y383163D01*
X39084Y383140D01*
X39088Y383115D01*
X39134Y383029D01*
X39175Y382941D01*
X39196Y382915D01*
X39203Y382900D01*
X39222Y382883D01*
X39268Y382826D01*
X40826Y381268D01*
X40906Y381211D01*
X40981Y381149D01*
X41004Y381141D01*
X41025Y381126D01*
X41118Y381098D01*
X41209Y381063D01*
X41242Y381060D01*
X41258Y381055D01*
X41283Y381056D01*
X41356Y381049D01*
X62506Y381049D01*
X63664Y379890D01*
X63724Y379847D01*
X63778Y379797D01*
X63822Y379777D01*
X63863Y379748D01*
X63933Y379727D01*
X64000Y379696D01*
X64049Y379691D01*
X64096Y379677D01*
X64169Y379679D01*
X64243Y379672D01*
X64291Y379683D01*
X64340Y379685D01*
X64409Y379711D01*
X64480Y379727D01*
X64522Y379753D01*
X64568Y379771D01*
X64625Y379817D01*
X64688Y379856D01*
X64719Y379894D01*
X64757Y379925D01*
X64796Y379988D01*
X64843Y380045D01*
X64860Y380091D01*
X64886Y380133D01*
X64903Y380204D01*
X64929Y380273D01*
X64936Y380346D01*
X64942Y380370D01*
X64940Y380387D01*
X64943Y380420D01*
X64943Y382095D01*
X67905Y385057D01*
X72095Y385057D01*
X75057Y382095D01*
X75057Y381436D01*
X75069Y381364D01*
X75071Y381290D01*
X75088Y381244D01*
X75096Y381195D01*
X75131Y381131D01*
X75157Y381062D01*
X75188Y381024D01*
X75211Y380980D01*
X75265Y380930D01*
X75312Y380873D01*
X75354Y380847D01*
X75389Y380813D01*
X75456Y380783D01*
X75519Y380744D01*
X75567Y380733D01*
X75612Y380712D01*
X75685Y380705D01*
X75756Y380688D01*
X75805Y380693D01*
X75855Y380688D01*
X75926Y380705D01*
X75999Y380712D01*
X76044Y380732D01*
X76092Y380744D01*
X76155Y380782D01*
X76222Y380813D01*
X76278Y380859D01*
X76300Y380872D01*
X76310Y380885D01*
X76336Y380906D01*
X77109Y381680D01*
X77124Y381700D01*
X77143Y381715D01*
X77194Y381798D01*
X77251Y381878D01*
X77259Y381902D01*
X77272Y381922D01*
X77294Y382018D01*
X77322Y382112D01*
X77322Y382136D01*
X77327Y382160D01*
X77318Y382257D01*
X77314Y382356D01*
X77306Y382378D01*
X77303Y382403D01*
X77263Y382492D01*
X77229Y382584D01*
X77213Y382603D01*
X77203Y382625D01*
X77109Y382739D01*
X74943Y384905D01*
X74943Y389095D01*
X77905Y392057D01*
X82095Y392057D01*
X85057Y389095D01*
X85057Y384905D01*
X82744Y382593D01*
X82687Y382513D01*
X82625Y382438D01*
X82617Y382415D01*
X82602Y382395D01*
X82574Y382301D01*
X82539Y382210D01*
X82536Y382177D01*
X82531Y382161D01*
X82532Y382136D01*
X82525Y382063D01*
X82525Y379954D01*
X76316Y373746D01*
X76259Y373666D01*
X76197Y373591D01*
X76189Y373568D01*
X76174Y373547D01*
X76146Y373454D01*
X76111Y373363D01*
X76108Y373330D01*
X76103Y373314D01*
X76104Y373289D01*
X76097Y373216D01*
X76097Y345476D01*
X76109Y345404D01*
X76111Y345330D01*
X76128Y345284D01*
X76136Y345235D01*
X76171Y345171D01*
X76197Y345102D01*
X76228Y345064D01*
X76251Y345020D01*
X76305Y344970D01*
X76352Y344913D01*
X76393Y344887D01*
X76429Y344853D01*
X76496Y344823D01*
X76559Y344784D01*
X76607Y344773D01*
X76652Y344752D01*
X76725Y344745D01*
X76796Y344728D01*
X76845Y344733D01*
X76895Y344728D01*
X76966Y344745D01*
X77039Y344752D01*
X77084Y344772D01*
X77132Y344784D01*
X77195Y344822D01*
X77262Y344853D01*
X77318Y344899D01*
X77340Y344912D01*
X77350Y344925D01*
X77376Y344946D01*
X81724Y349294D01*
X81781Y349374D01*
X81843Y349449D01*
X81851Y349472D01*
X81866Y349493D01*
X81894Y349586D01*
X81929Y349677D01*
X81932Y349710D01*
X81937Y349726D01*
X81936Y349751D01*
X81943Y349824D01*
X81943Y353095D01*
X84905Y356057D01*
X89095Y356057D01*
X92057Y353095D01*
X92057Y348905D01*
X89095Y345943D01*
X85824Y345943D01*
X85728Y345927D01*
X85631Y345918D01*
X85608Y345908D01*
X85583Y345904D01*
X85497Y345858D01*
X85409Y345817D01*
X85383Y345796D01*
X85368Y345789D01*
X85351Y345770D01*
X85294Y345724D01*
X81906Y342336D01*
X81863Y342276D01*
X81813Y342222D01*
X81793Y342178D01*
X81764Y342137D01*
X81743Y342067D01*
X81712Y342000D01*
X81708Y341951D01*
X81693Y341904D01*
X81696Y341831D01*
X81688Y341757D01*
X81700Y341709D01*
X81701Y341660D01*
X81727Y341591D01*
X81744Y341520D01*
X81770Y341478D01*
X81787Y341432D01*
X81834Y341375D01*
X81872Y341312D01*
X81910Y341281D01*
X81942Y341243D01*
X82004Y341204D01*
X82061Y341157D01*
X82107Y341140D01*
X82149Y341114D01*
X82220Y341097D01*
X82289Y341071D01*
X82362Y341064D01*
X82386Y341058D01*
X82403Y341060D01*
X82436Y341057D01*
X86095Y341057D01*
X89057Y338095D01*
X89057Y334436D01*
X89069Y334364D01*
X89071Y334290D01*
X89088Y334244D01*
X89096Y334195D01*
X89131Y334131D01*
X89157Y334062D01*
X89188Y334024D01*
X89211Y333980D01*
X89265Y333930D01*
X89312Y333873D01*
X89354Y333847D01*
X89389Y333813D01*
X89456Y333783D01*
X89519Y333744D01*
X89567Y333733D01*
X89612Y333712D01*
X89685Y333705D01*
X89756Y333688D01*
X89805Y333693D01*
X89855Y333688D01*
X89926Y333705D01*
X89999Y333712D01*
X90044Y333732D01*
X90092Y333744D01*
X90155Y333782D01*
X90222Y333813D01*
X90278Y333859D01*
X90300Y333872D01*
X90310Y333885D01*
X90336Y333906D01*
X92256Y335826D01*
X92313Y335906D01*
X92375Y335981D01*
X92383Y336004D01*
X92398Y336025D01*
X92426Y336118D01*
X92461Y336209D01*
X92464Y336242D01*
X92469Y336258D01*
X92468Y336283D01*
X92475Y336356D01*
X92475Y337063D01*
X92459Y337159D01*
X92450Y337256D01*
X92440Y337279D01*
X92436Y337304D01*
X92390Y337390D01*
X92349Y337479D01*
X92328Y337504D01*
X92321Y337519D01*
X92302Y337536D01*
X92256Y337593D01*
X89943Y339905D01*
X89943Y344095D01*
X92905Y347057D01*
X97095Y347057D01*
X100057Y344095D01*
X100057Y343806D01*
X100061Y343782D01*
X100058Y343757D01*
X100080Y343662D01*
X100096Y343565D01*
X100108Y343544D01*
X100114Y343520D01*
X100165Y343436D01*
X100211Y343350D01*
X100229Y343333D01*
X100242Y343312D01*
X100318Y343250D01*
X100389Y343183D01*
X100412Y343173D01*
X100431Y343157D01*
X100522Y343123D01*
X100612Y343082D01*
X100636Y343080D01*
X100659Y343071D01*
X100806Y343057D01*
X105095Y343057D01*
X108057Y340095D01*
X108057Y335905D01*
X105681Y333530D01*
X105667Y333510D01*
X105648Y333494D01*
X105596Y333411D01*
X105539Y333331D01*
X105532Y333308D01*
X105519Y333287D01*
X105497Y333192D01*
X105468Y333098D01*
X105469Y333073D01*
X105463Y333050D01*
X105473Y332952D01*
X105476Y332854D01*
X105485Y332831D01*
X105487Y332807D01*
X105527Y332718D01*
X105562Y332626D01*
X105577Y332607D01*
X105587Y332584D01*
X105681Y332470D01*
X107664Y330487D01*
X107724Y330444D01*
X107778Y330394D01*
X107806Y330381D01*
X107807Y330380D01*
X107813Y330378D01*
X107822Y330374D01*
X107863Y330345D01*
X107933Y330324D01*
X108000Y330293D01*
X108049Y330288D01*
X108096Y330274D01*
X108169Y330276D01*
X108243Y330269D01*
X108291Y330280D01*
G37*
G36*
X207823Y438549D02*
X207823Y438549D01*
X207872Y438551D01*
X207941Y438577D01*
X208012Y438593D01*
X208054Y438620D01*
X208100Y438637D01*
X208157Y438683D01*
X208220Y438722D01*
X208251Y438760D01*
X208289Y438792D01*
X208328Y438854D01*
X208375Y438911D01*
X208392Y438957D01*
X208418Y438999D01*
X208435Y439070D01*
X208461Y439139D01*
X208468Y439212D01*
X208474Y439236D01*
X208472Y439253D01*
X208475Y439286D01*
X208475Y449644D01*
X208459Y449740D01*
X208450Y449837D01*
X208440Y449860D01*
X208436Y449885D01*
X208390Y449971D01*
X208349Y450059D01*
X208328Y450085D01*
X208321Y450100D01*
X208302Y450117D01*
X208256Y450174D01*
X197174Y461256D01*
X197094Y461313D01*
X197019Y461375D01*
X196996Y461383D01*
X196975Y461398D01*
X196882Y461426D01*
X196791Y461461D01*
X196758Y461464D01*
X196742Y461469D01*
X196717Y461468D01*
X196644Y461475D01*
X107658Y461475D01*
X107562Y461459D01*
X107465Y461450D01*
X107442Y461440D01*
X107417Y461436D01*
X107331Y461389D01*
X107242Y461349D01*
X107224Y461332D01*
X107202Y461321D01*
X107135Y461249D01*
X107064Y461183D01*
X107052Y461161D01*
X107035Y461143D01*
X106995Y461054D01*
X106949Y460967D01*
X106945Y460943D01*
X106934Y460920D01*
X106925Y460823D01*
X106909Y460727D01*
X106913Y460702D01*
X106910Y460677D01*
X106933Y460582D01*
X106948Y460486D01*
X106962Y460456D01*
X106966Y460440D01*
X106979Y460419D01*
X107009Y460351D01*
X107368Y459731D01*
X107541Y459084D01*
X107541Y453499D01*
X102750Y453499D01*
X102726Y453495D01*
X102702Y453498D01*
X102606Y453475D01*
X102509Y453459D01*
X102488Y453448D01*
X102464Y453442D01*
X102381Y453391D01*
X102294Y453344D01*
X102277Y453327D01*
X102257Y453314D01*
X102194Y453238D01*
X102127Y453166D01*
X102117Y453144D01*
X102102Y453125D01*
X102067Y453034D01*
X102026Y452944D01*
X102024Y452920D01*
X102015Y452897D01*
X102001Y452750D01*
X102001Y451250D01*
X102005Y451226D01*
X102002Y451202D01*
X102025Y451106D01*
X102041Y451009D01*
X102052Y450988D01*
X102058Y450964D01*
X102109Y450880D01*
X102156Y450794D01*
X102173Y450777D01*
X102186Y450757D01*
X102262Y450694D01*
X102334Y450627D01*
X102356Y450617D01*
X102375Y450602D01*
X102466Y450567D01*
X102556Y450526D01*
X102580Y450524D01*
X102603Y450515D01*
X102750Y450501D01*
X107541Y450501D01*
X107541Y444916D01*
X107392Y444360D01*
X107368Y444269D01*
X107046Y443713D01*
X107012Y443621D01*
X106971Y443532D01*
X106969Y443508D01*
X106960Y443484D01*
X106957Y443387D01*
X106947Y443289D01*
X106953Y443265D01*
X106952Y443240D01*
X106980Y443147D01*
X107003Y443052D01*
X107016Y443031D01*
X107023Y443007D01*
X107080Y442927D01*
X107131Y442844D01*
X107150Y442829D01*
X107165Y442808D01*
X107244Y442751D01*
X107320Y442689D01*
X107343Y442681D01*
X107363Y442666D01*
X107457Y442638D01*
X107548Y442603D01*
X107581Y442600D01*
X107597Y442595D01*
X107622Y442596D01*
X107695Y442589D01*
X203364Y442589D01*
X205220Y440732D01*
X207196Y438756D01*
X207256Y438713D01*
X207310Y438663D01*
X207354Y438643D01*
X207395Y438614D01*
X207465Y438593D01*
X207532Y438562D01*
X207581Y438557D01*
X207628Y438543D01*
X207701Y438545D01*
X207775Y438538D01*
X207823Y438549D01*
G37*
G36*
X227153Y133146D02*
X227153Y133146D01*
X227263Y133164D01*
X227371Y133222D01*
X227478Y133279D01*
X227545Y133350D01*
X227645Y133457D01*
X227646Y133458D01*
X227715Y133587D01*
X229040Y136787D01*
X232113Y139860D01*
X236127Y141523D01*
X240473Y141523D01*
X244487Y139860D01*
X247339Y137008D01*
X247399Y136965D01*
X247453Y136915D01*
X247497Y136894D01*
X247538Y136866D01*
X247608Y136844D01*
X247675Y136814D01*
X247724Y136809D01*
X247771Y136795D01*
X247844Y136797D01*
X247918Y136790D01*
X247966Y136801D01*
X248015Y136803D01*
X248084Y136829D01*
X248155Y136845D01*
X248197Y136871D01*
X248243Y136889D01*
X248300Y136935D01*
X248363Y136974D01*
X248394Y137012D01*
X248432Y137043D01*
X248471Y137106D01*
X248518Y137162D01*
X248535Y137208D01*
X248561Y137250D01*
X248578Y137322D01*
X248604Y137391D01*
X248611Y137464D01*
X248617Y137488D01*
X248615Y137505D01*
X248618Y137538D01*
X248618Y149062D01*
X248606Y149135D01*
X248604Y149208D01*
X248587Y149254D01*
X248579Y149303D01*
X248544Y149368D01*
X248518Y149437D01*
X248487Y149475D01*
X248464Y149518D01*
X248410Y149569D01*
X248363Y149625D01*
X248322Y149651D01*
X248286Y149685D01*
X248219Y149716D01*
X248156Y149754D01*
X248108Y149766D01*
X248063Y149786D01*
X247990Y149793D01*
X247919Y149810D01*
X247870Y149805D01*
X247820Y149810D01*
X247749Y149793D01*
X247676Y149786D01*
X247631Y149766D01*
X247583Y149755D01*
X247520Y149716D01*
X247453Y149686D01*
X247397Y149639D01*
X247375Y149626D01*
X247365Y149613D01*
X247339Y149592D01*
X244487Y146740D01*
X240473Y145077D01*
X236127Y145077D01*
X232113Y146740D01*
X229040Y149813D01*
X227377Y153827D01*
X227377Y158173D01*
X229040Y162187D01*
X232113Y165260D01*
X236127Y166923D01*
X240473Y166923D01*
X244487Y165260D01*
X247339Y162408D01*
X247399Y162365D01*
X247453Y162315D01*
X247497Y162294D01*
X247538Y162266D01*
X247608Y162244D01*
X247675Y162214D01*
X247724Y162209D01*
X247771Y162195D01*
X247844Y162197D01*
X247918Y162190D01*
X247966Y162201D01*
X248015Y162203D01*
X248084Y162229D01*
X248155Y162245D01*
X248197Y162271D01*
X248243Y162289D01*
X248300Y162335D01*
X248363Y162374D01*
X248394Y162412D01*
X248432Y162443D01*
X248471Y162506D01*
X248518Y162562D01*
X248535Y162608D01*
X248561Y162650D01*
X248578Y162722D01*
X248604Y162791D01*
X248611Y162864D01*
X248617Y162888D01*
X248615Y162905D01*
X248618Y162938D01*
X248618Y174462D01*
X248616Y174476D01*
X248617Y174484D01*
X248610Y174514D01*
X248606Y174535D01*
X248604Y174608D01*
X248587Y174654D01*
X248579Y174703D01*
X248544Y174768D01*
X248518Y174837D01*
X248487Y174875D01*
X248464Y174918D01*
X248410Y174969D01*
X248363Y175025D01*
X248322Y175051D01*
X248286Y175085D01*
X248219Y175116D01*
X248156Y175154D01*
X248108Y175166D01*
X248063Y175186D01*
X247990Y175193D01*
X247919Y175210D01*
X247870Y175205D01*
X247820Y175210D01*
X247749Y175193D01*
X247676Y175186D01*
X247631Y175166D01*
X247583Y175155D01*
X247520Y175116D01*
X247453Y175086D01*
X247397Y175039D01*
X247375Y175026D01*
X247365Y175013D01*
X247339Y174992D01*
X244487Y172140D01*
X240473Y170477D01*
X236127Y170477D01*
X232113Y172140D01*
X229040Y175213D01*
X227377Y179227D01*
X227377Y183573D01*
X229040Y187587D01*
X232113Y190660D01*
X236127Y192323D01*
X240473Y192323D01*
X244487Y190660D01*
X247339Y187808D01*
X247399Y187765D01*
X247453Y187715D01*
X247497Y187694D01*
X247538Y187666D01*
X247608Y187644D01*
X247675Y187614D01*
X247724Y187609D01*
X247771Y187595D01*
X247844Y187597D01*
X247918Y187590D01*
X247966Y187601D01*
X248015Y187603D01*
X248084Y187629D01*
X248155Y187645D01*
X248197Y187671D01*
X248243Y187689D01*
X248300Y187735D01*
X248363Y187774D01*
X248394Y187812D01*
X248432Y187843D01*
X248471Y187906D01*
X248518Y187962D01*
X248535Y188008D01*
X248561Y188050D01*
X248578Y188122D01*
X248604Y188191D01*
X248611Y188264D01*
X248617Y188288D01*
X248615Y188305D01*
X248618Y188338D01*
X248618Y199862D01*
X248606Y199935D01*
X248604Y200008D01*
X248587Y200054D01*
X248579Y200103D01*
X248544Y200168D01*
X248518Y200237D01*
X248487Y200275D01*
X248464Y200318D01*
X248410Y200369D01*
X248363Y200425D01*
X248322Y200451D01*
X248286Y200485D01*
X248219Y200516D01*
X248156Y200554D01*
X248108Y200566D01*
X248063Y200586D01*
X247990Y200593D01*
X247919Y200610D01*
X247870Y200605D01*
X247820Y200610D01*
X247749Y200593D01*
X247676Y200586D01*
X247631Y200566D01*
X247583Y200555D01*
X247520Y200516D01*
X247453Y200486D01*
X247397Y200439D01*
X247375Y200426D01*
X247365Y200413D01*
X247339Y200392D01*
X244487Y197540D01*
X240473Y195877D01*
X236127Y195877D01*
X232113Y197540D01*
X229040Y200613D01*
X227377Y204627D01*
X227377Y208973D01*
X229040Y212987D01*
X232113Y216060D01*
X236127Y217723D01*
X240473Y217723D01*
X244487Y216060D01*
X247339Y213208D01*
X247399Y213165D01*
X247453Y213115D01*
X247497Y213094D01*
X247538Y213066D01*
X247608Y213044D01*
X247675Y213014D01*
X247724Y213009D01*
X247771Y212995D01*
X247844Y212997D01*
X247918Y212990D01*
X247966Y213001D01*
X248015Y213003D01*
X248084Y213029D01*
X248155Y213045D01*
X248197Y213071D01*
X248243Y213089D01*
X248300Y213135D01*
X248363Y213174D01*
X248394Y213212D01*
X248432Y213243D01*
X248471Y213306D01*
X248518Y213362D01*
X248535Y213408D01*
X248561Y213450D01*
X248578Y213522D01*
X248604Y213591D01*
X248611Y213664D01*
X248617Y213688D01*
X248615Y213705D01*
X248618Y213738D01*
X248618Y225262D01*
X248606Y225335D01*
X248604Y225408D01*
X248587Y225454D01*
X248579Y225503D01*
X248544Y225568D01*
X248518Y225637D01*
X248487Y225675D01*
X248464Y225718D01*
X248410Y225769D01*
X248363Y225825D01*
X248322Y225851D01*
X248286Y225885D01*
X248219Y225916D01*
X248156Y225954D01*
X248108Y225966D01*
X248063Y225986D01*
X247990Y225993D01*
X247919Y226010D01*
X247870Y226005D01*
X247820Y226010D01*
X247749Y225993D01*
X247676Y225986D01*
X247631Y225966D01*
X247583Y225955D01*
X247520Y225916D01*
X247453Y225886D01*
X247397Y225839D01*
X247375Y225826D01*
X247365Y225813D01*
X247339Y225792D01*
X244487Y222940D01*
X240473Y221277D01*
X236127Y221277D01*
X232113Y222940D01*
X229040Y226013D01*
X227377Y230027D01*
X227377Y234373D01*
X229040Y238387D01*
X232113Y241460D01*
X236127Y243123D01*
X240473Y243123D01*
X244487Y241460D01*
X247339Y238608D01*
X247399Y238565D01*
X247453Y238515D01*
X247497Y238494D01*
X247538Y238466D01*
X247608Y238444D01*
X247675Y238414D01*
X247724Y238409D01*
X247771Y238395D01*
X247844Y238397D01*
X247918Y238390D01*
X247966Y238401D01*
X248015Y238403D01*
X248084Y238429D01*
X248155Y238445D01*
X248197Y238471D01*
X248243Y238489D01*
X248300Y238535D01*
X248363Y238574D01*
X248394Y238612D01*
X248432Y238643D01*
X248471Y238706D01*
X248518Y238762D01*
X248535Y238808D01*
X248561Y238850D01*
X248578Y238922D01*
X248604Y238991D01*
X248611Y239064D01*
X248617Y239088D01*
X248615Y239105D01*
X248618Y239138D01*
X248618Y250662D01*
X248606Y250735D01*
X248604Y250808D01*
X248587Y250854D01*
X248579Y250903D01*
X248544Y250968D01*
X248518Y251037D01*
X248487Y251075D01*
X248464Y251118D01*
X248410Y251169D01*
X248363Y251225D01*
X248322Y251251D01*
X248286Y251285D01*
X248219Y251316D01*
X248156Y251354D01*
X248108Y251366D01*
X248063Y251386D01*
X247990Y251393D01*
X247919Y251410D01*
X247870Y251405D01*
X247820Y251410D01*
X247749Y251393D01*
X247676Y251386D01*
X247631Y251366D01*
X247583Y251355D01*
X247520Y251316D01*
X247453Y251286D01*
X247397Y251239D01*
X247375Y251226D01*
X247365Y251213D01*
X247339Y251192D01*
X244487Y248340D01*
X240473Y246677D01*
X236127Y246677D01*
X232113Y248340D01*
X229040Y251413D01*
X227377Y255427D01*
X227377Y259773D01*
X229040Y263787D01*
X232113Y266860D01*
X232418Y266986D01*
X232459Y267012D01*
X232505Y267029D01*
X232563Y267076D01*
X232625Y267115D01*
X232656Y267153D01*
X232694Y267184D01*
X232733Y267247D01*
X232780Y267304D01*
X232797Y267349D01*
X232823Y267391D01*
X232840Y267463D01*
X232866Y267532D01*
X232868Y267581D01*
X232879Y267629D01*
X232872Y267702D01*
X232874Y267776D01*
X232860Y267823D01*
X232855Y267872D01*
X232825Y267939D01*
X232803Y268009D01*
X232775Y268049D01*
X232755Y268094D01*
X232662Y268207D01*
X232661Y268208D01*
X222182Y278687D01*
X222122Y278730D01*
X222068Y278780D01*
X222024Y278801D01*
X221983Y278830D01*
X221913Y278851D01*
X221846Y278881D01*
X221797Y278886D01*
X221750Y278900D01*
X221677Y278898D01*
X221603Y278905D01*
X221555Y278894D01*
X221506Y278893D01*
X221437Y278867D01*
X221366Y278850D01*
X221324Y278824D01*
X221278Y278807D01*
X221221Y278760D01*
X221158Y278721D01*
X221127Y278683D01*
X221089Y278652D01*
X221050Y278590D01*
X221003Y278533D01*
X220986Y278487D01*
X220960Y278445D01*
X220943Y278373D01*
X220917Y278305D01*
X220910Y278231D01*
X220904Y278207D01*
X220906Y278191D01*
X220903Y278158D01*
X220903Y138418D01*
X220919Y138321D01*
X220928Y138225D01*
X220938Y138202D01*
X220942Y138177D01*
X220989Y138091D01*
X221029Y138002D01*
X221050Y137977D01*
X221057Y137962D01*
X221076Y137945D01*
X221122Y137888D01*
X225666Y133344D01*
X225745Y133287D01*
X225821Y133225D01*
X225844Y133217D01*
X225864Y133202D01*
X225958Y133174D01*
X226049Y133139D01*
X226082Y133136D01*
X226098Y133131D01*
X226123Y133132D01*
X226196Y133125D01*
X227022Y133125D01*
X227153Y133146D01*
G37*
G36*
X219677Y310314D02*
X219677Y310314D01*
X219726Y310315D01*
X219795Y310341D01*
X219866Y310358D01*
X219908Y310384D01*
X219954Y310401D01*
X220011Y310448D01*
X220074Y310486D01*
X220105Y310524D01*
X220143Y310556D01*
X220182Y310618D01*
X220229Y310675D01*
X220246Y310721D01*
X220272Y310763D01*
X220289Y310834D01*
X220315Y310903D01*
X220322Y310976D01*
X220328Y311000D01*
X220326Y311017D01*
X220329Y311050D01*
X220329Y339806D01*
X220313Y339902D01*
X220304Y339999D01*
X220294Y340022D01*
X220290Y340047D01*
X220244Y340133D01*
X220203Y340222D01*
X220182Y340247D01*
X220175Y340262D01*
X220156Y340279D01*
X220110Y340336D01*
X198328Y362117D01*
X198308Y362132D01*
X198293Y362151D01*
X198210Y362202D01*
X198130Y362260D01*
X198107Y362267D01*
X198086Y362280D01*
X197990Y362302D01*
X197896Y362330D01*
X197872Y362330D01*
X197848Y362335D01*
X197751Y362326D01*
X197653Y362323D01*
X197630Y362314D01*
X197605Y362312D01*
X197516Y362271D01*
X197424Y362237D01*
X197405Y362221D01*
X197383Y362211D01*
X197269Y362117D01*
X195095Y359943D01*
X190905Y359943D01*
X187943Y362905D01*
X187943Y367095D01*
X190819Y369970D01*
X190833Y369990D01*
X190852Y370006D01*
X190904Y370089D01*
X190961Y370169D01*
X190968Y370192D01*
X190981Y370213D01*
X191003Y370308D01*
X191032Y370402D01*
X191031Y370427D01*
X191037Y370450D01*
X191027Y370548D01*
X191024Y370646D01*
X191015Y370669D01*
X191013Y370693D01*
X190973Y370782D01*
X190938Y370874D01*
X190923Y370893D01*
X190913Y370916D01*
X190819Y371030D01*
X187943Y373905D01*
X187943Y378095D01*
X188775Y378926D01*
X188818Y378986D01*
X188868Y379040D01*
X188888Y379084D01*
X188917Y379125D01*
X188938Y379195D01*
X188969Y379262D01*
X188974Y379311D01*
X188988Y379358D01*
X188986Y379431D01*
X188993Y379505D01*
X188982Y379553D01*
X188980Y379602D01*
X188954Y379671D01*
X188938Y379742D01*
X188912Y379784D01*
X188894Y379830D01*
X188848Y379887D01*
X188809Y379950D01*
X188771Y379981D01*
X188740Y380019D01*
X188677Y380058D01*
X188620Y380105D01*
X188574Y380122D01*
X188532Y380148D01*
X188461Y380165D01*
X188392Y380191D01*
X188319Y380198D01*
X188295Y380204D01*
X188278Y380202D01*
X188245Y380205D01*
X174468Y380205D01*
X174372Y380189D01*
X174275Y380180D01*
X174252Y380170D01*
X174227Y380166D01*
X174141Y380120D01*
X174052Y380079D01*
X174027Y380058D01*
X174012Y380051D01*
X173995Y380032D01*
X173938Y379986D01*
X167014Y373062D01*
X166957Y372982D01*
X166895Y372907D01*
X166887Y372884D01*
X166872Y372863D01*
X166844Y372770D01*
X166809Y372679D01*
X166806Y372646D01*
X166801Y372630D01*
X166802Y372605D01*
X166795Y372532D01*
X166795Y355806D01*
X166799Y355782D01*
X166796Y355757D01*
X166818Y355662D01*
X166834Y355565D01*
X166846Y355544D01*
X166852Y355520D01*
X166903Y355436D01*
X166949Y355350D01*
X166967Y355333D01*
X166980Y355312D01*
X167056Y355250D01*
X167127Y355183D01*
X167150Y355173D01*
X167169Y355157D01*
X167260Y355123D01*
X167350Y355082D01*
X167374Y355080D01*
X167397Y355071D01*
X167544Y355057D01*
X171095Y355057D01*
X173407Y352744D01*
X173487Y352687D01*
X173562Y352625D01*
X173585Y352617D01*
X173605Y352602D01*
X173699Y352574D01*
X173790Y352539D01*
X173823Y352536D01*
X173839Y352531D01*
X173864Y352532D01*
X173937Y352525D01*
X177046Y352525D01*
X219050Y310520D01*
X219110Y310477D01*
X219164Y310427D01*
X219208Y310407D01*
X219249Y310378D01*
X219319Y310357D01*
X219386Y310326D01*
X219435Y310322D01*
X219482Y310307D01*
X219555Y310310D01*
X219629Y310302D01*
X219677Y310314D01*
G37*
G36*
X247966Y340001D02*
X247966Y340001D01*
X248015Y340003D01*
X248084Y340029D01*
X248155Y340045D01*
X248197Y340071D01*
X248243Y340089D01*
X248300Y340135D01*
X248363Y340174D01*
X248394Y340212D01*
X248432Y340243D01*
X248471Y340306D01*
X248518Y340362D01*
X248535Y340408D01*
X248561Y340450D01*
X248578Y340522D01*
X248604Y340591D01*
X248611Y340664D01*
X248617Y340688D01*
X248615Y340705D01*
X248618Y340738D01*
X248618Y350826D01*
X248606Y350898D01*
X248604Y350971D01*
X248587Y351018D01*
X248579Y351066D01*
X248544Y351131D01*
X248518Y351200D01*
X248487Y351238D01*
X248464Y351281D01*
X248410Y351332D01*
X248363Y351389D01*
X248321Y351415D01*
X248286Y351448D01*
X248219Y351479D01*
X248156Y351518D01*
X248108Y351529D01*
X248063Y351549D01*
X247990Y351556D01*
X247919Y351573D01*
X247870Y351568D01*
X247820Y351573D01*
X247749Y351557D01*
X247676Y351549D01*
X247631Y351529D01*
X247583Y351518D01*
X247520Y351479D01*
X247453Y351449D01*
X247397Y351402D01*
X247375Y351389D01*
X247365Y351376D01*
X247339Y351355D01*
X246078Y350094D01*
X244557Y348989D01*
X242883Y348136D01*
X241096Y347555D01*
X239799Y347350D01*
X239799Y358450D01*
X239795Y358474D01*
X239798Y358498D01*
X239775Y358594D01*
X239759Y358691D01*
X239748Y358712D01*
X239742Y358736D01*
X239691Y358819D01*
X239644Y358906D01*
X239627Y358923D01*
X239614Y358943D01*
X239538Y359006D01*
X239466Y359073D01*
X239444Y359083D01*
X239425Y359098D01*
X239334Y359133D01*
X239244Y359173D01*
X239220Y359176D01*
X239197Y359185D01*
X239050Y359199D01*
X238299Y359199D01*
X238299Y359201D01*
X239050Y359201D01*
X239074Y359205D01*
X239098Y359202D01*
X239194Y359225D01*
X239291Y359241D01*
X239312Y359252D01*
X239336Y359258D01*
X239420Y359309D01*
X239506Y359356D01*
X239523Y359373D01*
X239543Y359386D01*
X239606Y359462D01*
X239673Y359534D01*
X239683Y359556D01*
X239698Y359575D01*
X239733Y359667D01*
X239774Y359756D01*
X239776Y359780D01*
X239785Y359803D01*
X239799Y359950D01*
X239799Y371050D01*
X241096Y370845D01*
X242883Y370264D01*
X244557Y369411D01*
X246078Y368306D01*
X247339Y367045D01*
X247399Y367002D01*
X247453Y366952D01*
X247497Y366931D01*
X247538Y366903D01*
X247608Y366881D01*
X247675Y366851D01*
X247724Y366846D01*
X247771Y366832D01*
X247844Y366834D01*
X247918Y366827D01*
X247966Y366838D01*
X248015Y366840D01*
X248084Y366865D01*
X248155Y366882D01*
X248197Y366908D01*
X248243Y366925D01*
X248300Y366972D01*
X248363Y367011D01*
X248394Y367049D01*
X248432Y367080D01*
X248471Y367142D01*
X248518Y367199D01*
X248535Y367245D01*
X248561Y367287D01*
X248578Y367359D01*
X248604Y367428D01*
X248611Y367501D01*
X248617Y367525D01*
X248615Y367541D01*
X248618Y367574D01*
X248618Y377662D01*
X248606Y377735D01*
X248604Y377808D01*
X248587Y377854D01*
X248579Y377903D01*
X248544Y377968D01*
X248518Y378037D01*
X248487Y378075D01*
X248464Y378118D01*
X248410Y378169D01*
X248363Y378225D01*
X248322Y378251D01*
X248286Y378285D01*
X248219Y378316D01*
X248156Y378354D01*
X248108Y378366D01*
X248063Y378386D01*
X247990Y378393D01*
X247919Y378410D01*
X247870Y378405D01*
X247820Y378410D01*
X247749Y378393D01*
X247676Y378386D01*
X247631Y378366D01*
X247583Y378355D01*
X247520Y378316D01*
X247453Y378286D01*
X247397Y378239D01*
X247375Y378226D01*
X247365Y378213D01*
X247339Y378192D01*
X244487Y375340D01*
X240473Y373677D01*
X236127Y373677D01*
X232113Y375340D01*
X229040Y378413D01*
X227963Y381013D01*
X227916Y381088D01*
X227835Y381220D01*
X227834Y381220D01*
X227749Y381290D01*
X227646Y381375D01*
X227513Y381425D01*
X227418Y381461D01*
X227417Y381461D01*
X227416Y381461D01*
X227271Y381475D01*
X222954Y381475D01*
X221256Y383174D01*
X211280Y393150D01*
X211220Y393193D01*
X211166Y393243D01*
X211122Y393263D01*
X211081Y393292D01*
X211011Y393313D01*
X210944Y393344D01*
X210895Y393348D01*
X210848Y393363D01*
X210775Y393360D01*
X210701Y393368D01*
X210653Y393356D01*
X210604Y393355D01*
X210535Y393329D01*
X210464Y393312D01*
X210422Y393286D01*
X210376Y393269D01*
X210319Y393222D01*
X210256Y393184D01*
X210225Y393146D01*
X210187Y393114D01*
X210148Y393052D01*
X210101Y392995D01*
X210084Y392949D01*
X210058Y392907D01*
X210041Y392836D01*
X210015Y392767D01*
X210008Y392694D01*
X210002Y392670D01*
X210004Y392653D01*
X210001Y392620D01*
X210001Y389842D01*
X200364Y380205D01*
X197755Y380205D01*
X197682Y380193D01*
X197609Y380191D01*
X197563Y380174D01*
X197514Y380166D01*
X197449Y380131D01*
X197381Y380105D01*
X197342Y380074D01*
X197299Y380051D01*
X197249Y379997D01*
X197192Y379950D01*
X197166Y379908D01*
X197132Y379873D01*
X197102Y379806D01*
X197063Y379743D01*
X197052Y379695D01*
X197031Y379650D01*
X197024Y379577D01*
X197007Y379506D01*
X197012Y379457D01*
X197007Y379407D01*
X197024Y379336D01*
X197031Y379263D01*
X197051Y379218D01*
X197062Y379170D01*
X197101Y379107D01*
X197131Y379040D01*
X197178Y378984D01*
X197191Y378962D01*
X197204Y378952D01*
X197225Y378926D01*
X198057Y378095D01*
X198057Y374824D01*
X198073Y374728D01*
X198082Y374631D01*
X198092Y374608D01*
X198096Y374583D01*
X198142Y374497D01*
X198183Y374409D01*
X198204Y374383D01*
X198211Y374368D01*
X198230Y374351D01*
X198276Y374294D01*
X227204Y345366D01*
X228903Y343668D01*
X228903Y341659D01*
X228915Y341586D01*
X228917Y341513D01*
X228934Y341467D01*
X228942Y341418D01*
X228977Y341353D01*
X229003Y341284D01*
X229034Y341246D01*
X229057Y341203D01*
X229111Y341152D01*
X229158Y341096D01*
X229200Y341070D01*
X229235Y341036D01*
X229302Y341005D01*
X229365Y340967D01*
X229413Y340955D01*
X229458Y340935D01*
X229531Y340928D01*
X229602Y340911D01*
X229651Y340916D01*
X229701Y340911D01*
X229772Y340928D01*
X229845Y340935D01*
X229890Y340955D01*
X229938Y340966D01*
X230001Y341005D01*
X230068Y341035D01*
X230124Y341082D01*
X230146Y341095D01*
X230156Y341108D01*
X230182Y341129D01*
X232113Y343060D01*
X236127Y344723D01*
X240473Y344723D01*
X244487Y343060D01*
X247339Y340208D01*
X247399Y340165D01*
X247453Y340115D01*
X247497Y340094D01*
X247538Y340066D01*
X247608Y340044D01*
X247675Y340014D01*
X247724Y340009D01*
X247771Y339995D01*
X247844Y339997D01*
X247918Y339990D01*
X247966Y340001D01*
G37*
G36*
X163943Y91485D02*
X163943Y91485D01*
X164040Y91494D01*
X164063Y91504D01*
X164088Y91508D01*
X164174Y91554D01*
X164262Y91595D01*
X164288Y91616D01*
X164303Y91623D01*
X164320Y91642D01*
X164377Y91688D01*
X182732Y110043D01*
X182789Y110123D01*
X182851Y110198D01*
X182859Y110221D01*
X182874Y110242D01*
X182902Y110335D01*
X182937Y110426D01*
X182940Y110459D01*
X182945Y110475D01*
X182944Y110500D01*
X182951Y110573D01*
X182951Y154587D01*
X182935Y154683D01*
X182926Y154780D01*
X182916Y154803D01*
X182912Y154828D01*
X182866Y154914D01*
X182825Y155003D01*
X182804Y155028D01*
X182797Y155043D01*
X182778Y155060D01*
X182732Y155117D01*
X180943Y156905D01*
X180943Y157998D01*
X180927Y158094D01*
X180918Y158191D01*
X180908Y158214D01*
X180904Y158239D01*
X180858Y158325D01*
X180817Y158414D01*
X180796Y158439D01*
X180789Y158454D01*
X180770Y158471D01*
X180724Y158528D01*
X177336Y161916D01*
X177276Y161959D01*
X177222Y162009D01*
X177178Y162029D01*
X177137Y162058D01*
X177067Y162079D01*
X177000Y162110D01*
X176951Y162115D01*
X176904Y162129D01*
X176831Y162126D01*
X176757Y162134D01*
X176709Y162123D01*
X176660Y162121D01*
X176591Y162095D01*
X176520Y162078D01*
X176478Y162052D01*
X176432Y162035D01*
X176375Y161989D01*
X176312Y161950D01*
X176281Y161912D01*
X176243Y161880D01*
X176204Y161818D01*
X176157Y161761D01*
X176140Y161715D01*
X176114Y161673D01*
X176097Y161602D01*
X176071Y161533D01*
X176064Y161460D01*
X176058Y161436D01*
X176060Y161419D01*
X176057Y161386D01*
X176057Y159905D01*
X173095Y156943D01*
X168905Y156943D01*
X165943Y159905D01*
X165943Y160998D01*
X165927Y161094D01*
X165918Y161191D01*
X165908Y161214D01*
X165904Y161239D01*
X165858Y161325D01*
X165817Y161414D01*
X165796Y161439D01*
X165789Y161454D01*
X165770Y161471D01*
X165724Y161528D01*
X164132Y163120D01*
X163344Y163908D01*
X163284Y163951D01*
X163230Y164001D01*
X163186Y164021D01*
X163145Y164050D01*
X163075Y164071D01*
X163008Y164102D01*
X162959Y164107D01*
X162912Y164121D01*
X162839Y164118D01*
X162765Y164126D01*
X162717Y164115D01*
X162668Y164113D01*
X162599Y164087D01*
X162528Y164070D01*
X162486Y164044D01*
X162440Y164027D01*
X162383Y163981D01*
X162320Y163942D01*
X162289Y163904D01*
X162251Y163872D01*
X162212Y163810D01*
X162165Y163753D01*
X162148Y163707D01*
X162122Y163665D01*
X162105Y163594D01*
X162079Y163525D01*
X162072Y163452D01*
X162066Y163428D01*
X162068Y163411D01*
X162065Y163378D01*
X162065Y94101D01*
X162063Y94096D01*
X162064Y94071D01*
X162057Y93998D01*
X162057Y92905D01*
X161899Y92748D01*
X161856Y92688D01*
X161806Y92634D01*
X161786Y92590D01*
X161757Y92549D01*
X161736Y92479D01*
X161705Y92412D01*
X161700Y92363D01*
X161686Y92316D01*
X161688Y92243D01*
X161681Y92169D01*
X161692Y92121D01*
X161694Y92072D01*
X161720Y92003D01*
X161736Y91932D01*
X161762Y91890D01*
X161780Y91844D01*
X161826Y91787D01*
X161865Y91724D01*
X161903Y91693D01*
X161934Y91655D01*
X161997Y91616D01*
X162054Y91569D01*
X162100Y91552D01*
X162142Y91526D01*
X162213Y91509D01*
X162282Y91483D01*
X162355Y91476D01*
X162379Y91470D01*
X162396Y91472D01*
X162429Y91469D01*
X163847Y91469D01*
X163943Y91485D01*
G37*
%LPC*%
G36*
X52368Y403725D02*
X52368Y403725D01*
X51475Y404618D01*
X51475Y425882D01*
X52368Y426775D01*
X65632Y426775D01*
X66525Y425882D01*
X66525Y404618D01*
X65632Y403725D01*
X52368Y403725D01*
G37*
%LPD*%
%LPC*%
G36*
X108368Y403725D02*
X108368Y403725D01*
X107475Y404618D01*
X107475Y425882D01*
X108368Y426775D01*
X121632Y426775D01*
X122525Y425882D01*
X122525Y404618D01*
X121632Y403725D01*
X108368Y403725D01*
G37*
%LPD*%
G36*
X227438Y108566D02*
X227438Y108566D01*
X227512Y108569D01*
X227558Y108586D01*
X227606Y108594D01*
X227671Y108629D01*
X227740Y108655D01*
X227778Y108686D01*
X227822Y108709D01*
X227872Y108763D01*
X227929Y108809D01*
X227955Y108851D01*
X227989Y108887D01*
X228058Y109016D01*
X228058Y109017D01*
X229040Y111387D01*
X232113Y114460D01*
X236127Y116123D01*
X240473Y116123D01*
X244487Y114460D01*
X247339Y111608D01*
X247399Y111565D01*
X247453Y111515D01*
X247497Y111494D01*
X247538Y111466D01*
X247608Y111444D01*
X247675Y111414D01*
X247724Y111409D01*
X247771Y111395D01*
X247844Y111397D01*
X247918Y111390D01*
X247966Y111401D01*
X248015Y111403D01*
X248084Y111429D01*
X248155Y111445D01*
X248197Y111471D01*
X248243Y111489D01*
X248300Y111535D01*
X248363Y111574D01*
X248394Y111612D01*
X248432Y111643D01*
X248471Y111706D01*
X248518Y111762D01*
X248535Y111808D01*
X248561Y111850D01*
X248578Y111922D01*
X248604Y111991D01*
X248611Y112064D01*
X248617Y112088D01*
X248615Y112105D01*
X248618Y112138D01*
X248618Y123662D01*
X248606Y123735D01*
X248604Y123808D01*
X248587Y123854D01*
X248579Y123903D01*
X248544Y123968D01*
X248518Y124037D01*
X248487Y124075D01*
X248464Y124118D01*
X248410Y124169D01*
X248363Y124225D01*
X248322Y124251D01*
X248286Y124285D01*
X248219Y124316D01*
X248156Y124354D01*
X248108Y124366D01*
X248063Y124386D01*
X247990Y124393D01*
X247919Y124410D01*
X247870Y124405D01*
X247820Y124410D01*
X247749Y124393D01*
X247676Y124386D01*
X247631Y124366D01*
X247583Y124355D01*
X247520Y124316D01*
X247453Y124286D01*
X247397Y124239D01*
X247375Y124226D01*
X247365Y124213D01*
X247339Y124192D01*
X244487Y121340D01*
X240473Y119677D01*
X236127Y119677D01*
X232113Y121340D01*
X229040Y124413D01*
X227715Y127613D01*
X227663Y127696D01*
X227586Y127820D01*
X227494Y127895D01*
X227398Y127975D01*
X227397Y127975D01*
X227273Y128022D01*
X227169Y128061D01*
X227168Y128061D01*
X227022Y128075D01*
X223794Y128075D01*
X218658Y133211D01*
X218598Y133254D01*
X218544Y133304D01*
X218500Y133325D01*
X218459Y133354D01*
X218389Y133375D01*
X218322Y133405D01*
X218273Y133410D01*
X218226Y133424D01*
X218153Y133422D01*
X218079Y133429D01*
X218031Y133418D01*
X217982Y133417D01*
X217913Y133391D01*
X217842Y133374D01*
X217800Y133348D01*
X217754Y133331D01*
X217697Y133284D01*
X217634Y133245D01*
X217603Y133207D01*
X217565Y133176D01*
X217526Y133114D01*
X217479Y133057D01*
X217462Y133011D01*
X217436Y132969D01*
X217419Y132897D01*
X217393Y132829D01*
X217386Y132755D01*
X217380Y132731D01*
X217382Y132715D01*
X217379Y132682D01*
X217379Y118542D01*
X217395Y118445D01*
X217404Y118349D01*
X217414Y118326D01*
X217418Y118301D01*
X217464Y118215D01*
X217505Y118126D01*
X217526Y118101D01*
X217533Y118086D01*
X217552Y118069D01*
X217598Y118012D01*
X226836Y108774D01*
X226876Y108745D01*
X226910Y108709D01*
X226975Y108675D01*
X227035Y108632D01*
X227082Y108617D01*
X227125Y108594D01*
X227198Y108582D01*
X227268Y108561D01*
X227317Y108562D01*
X227366Y108554D01*
X227438Y108566D01*
G37*
G36*
X106823Y258748D02*
X106823Y258748D01*
X106872Y258750D01*
X106941Y258776D01*
X107012Y258792D01*
X107054Y258818D01*
X107100Y258836D01*
X107157Y258882D01*
X107220Y258921D01*
X107251Y258959D01*
X107289Y258990D01*
X107328Y259053D01*
X107375Y259110D01*
X107392Y259156D01*
X107418Y259198D01*
X107435Y259269D01*
X107461Y259338D01*
X107468Y259411D01*
X107474Y259435D01*
X107472Y259452D01*
X107475Y259485D01*
X107475Y285046D01*
X113110Y290680D01*
X113153Y290740D01*
X113203Y290794D01*
X113223Y290838D01*
X113252Y290879D01*
X113273Y290949D01*
X113304Y291016D01*
X113308Y291065D01*
X113323Y291112D01*
X113320Y291185D01*
X113328Y291259D01*
X113316Y291307D01*
X113315Y291356D01*
X113289Y291425D01*
X113272Y291496D01*
X113246Y291538D01*
X113229Y291584D01*
X113182Y291641D01*
X113144Y291704D01*
X113106Y291735D01*
X113074Y291773D01*
X113012Y291812D01*
X112955Y291859D01*
X112909Y291876D01*
X112867Y291902D01*
X112796Y291919D01*
X112727Y291945D01*
X112654Y291952D01*
X112630Y291958D01*
X112613Y291956D01*
X112580Y291959D01*
X104666Y291959D01*
X104019Y292132D01*
X103440Y292467D01*
X102967Y292940D01*
X102632Y293519D01*
X102459Y294166D01*
X102459Y306001D01*
X122250Y306001D01*
X122274Y306005D01*
X122298Y306002D01*
X122394Y306025D01*
X122491Y306041D01*
X122512Y306052D01*
X122536Y306058D01*
X122619Y306109D01*
X122706Y306156D01*
X122723Y306173D01*
X122743Y306186D01*
X122806Y306262D01*
X122873Y306334D01*
X122883Y306356D01*
X122898Y306375D01*
X122933Y306466D01*
X122974Y306556D01*
X122976Y306580D01*
X122985Y306603D01*
X122999Y306750D01*
X122999Y308250D01*
X122995Y308274D01*
X122998Y308298D01*
X122975Y308394D01*
X122959Y308491D01*
X122948Y308512D01*
X122942Y308536D01*
X122891Y308619D01*
X122844Y308706D01*
X122827Y308723D01*
X122814Y308743D01*
X122738Y308806D01*
X122666Y308873D01*
X122644Y308883D01*
X122625Y308898D01*
X122534Y308933D01*
X122444Y308974D01*
X122420Y308976D01*
X122397Y308985D01*
X122250Y308999D01*
X102459Y308999D01*
X102459Y320834D01*
X102529Y321094D01*
X102632Y321481D01*
X102828Y321819D01*
X102862Y321911D01*
X102903Y322000D01*
X102905Y322024D01*
X102914Y322048D01*
X102917Y322145D01*
X102927Y322243D01*
X102921Y322267D01*
X102922Y322292D01*
X102894Y322385D01*
X102872Y322480D01*
X102858Y322501D01*
X102851Y322525D01*
X102795Y322604D01*
X102743Y322688D01*
X102724Y322703D01*
X102709Y322724D01*
X102630Y322781D01*
X102554Y322843D01*
X102531Y322851D01*
X102511Y322866D01*
X102417Y322894D01*
X102326Y322929D01*
X102293Y322932D01*
X102277Y322937D01*
X102252Y322936D01*
X102179Y322943D01*
X100905Y322943D01*
X99804Y324045D01*
X99744Y324088D01*
X99690Y324138D01*
X99646Y324158D01*
X99605Y324187D01*
X99535Y324208D01*
X99468Y324239D01*
X99419Y324244D01*
X99372Y324258D01*
X99299Y324256D01*
X99225Y324263D01*
X99177Y324252D01*
X99128Y324250D01*
X99059Y324224D01*
X98988Y324208D01*
X98946Y324182D01*
X98900Y324164D01*
X98843Y324118D01*
X98780Y324079D01*
X98749Y324041D01*
X98711Y324010D01*
X98672Y323947D01*
X98625Y323890D01*
X98608Y323844D01*
X98582Y323802D01*
X98565Y323731D01*
X98539Y323662D01*
X98532Y323589D01*
X98526Y323565D01*
X98528Y323548D01*
X98525Y323515D01*
X98525Y294356D01*
X98541Y294260D01*
X98550Y294163D01*
X98560Y294140D01*
X98564Y294115D01*
X98610Y294029D01*
X98651Y293941D01*
X98672Y293915D01*
X98679Y293900D01*
X98698Y293883D01*
X98744Y293826D01*
X105525Y287046D01*
X105525Y259937D01*
X105541Y259841D01*
X105550Y259744D01*
X105560Y259721D01*
X105564Y259696D01*
X105611Y259610D01*
X105651Y259521D01*
X105672Y259496D01*
X105679Y259481D01*
X105698Y259464D01*
X105744Y259407D01*
X106196Y258955D01*
X106256Y258912D01*
X106310Y258862D01*
X106354Y258842D01*
X106395Y258813D01*
X106465Y258792D01*
X106532Y258761D01*
X106581Y258756D01*
X106628Y258742D01*
X106701Y258744D01*
X106775Y258737D01*
X106823Y258748D01*
G37*
%LPC*%
G36*
X118905Y61943D02*
X118905Y61943D01*
X115943Y64905D01*
X115943Y69095D01*
X118905Y72057D01*
X123095Y72057D01*
X125407Y69744D01*
X125487Y69687D01*
X125562Y69625D01*
X125585Y69617D01*
X125605Y69602D01*
X125699Y69574D01*
X125790Y69539D01*
X125823Y69536D01*
X125839Y69531D01*
X125864Y69532D01*
X125937Y69525D01*
X129063Y69525D01*
X129159Y69541D01*
X129256Y69550D01*
X129279Y69560D01*
X129304Y69564D01*
X129390Y69610D01*
X129479Y69651D01*
X129504Y69672D01*
X129519Y69679D01*
X129533Y69694D01*
X129535Y69695D01*
X129540Y69701D01*
X129593Y69744D01*
X131905Y72057D01*
X136095Y72057D01*
X139057Y69095D01*
X139057Y64905D01*
X136095Y61943D01*
X131905Y61943D01*
X129593Y64256D01*
X129513Y64313D01*
X129438Y64375D01*
X129415Y64383D01*
X129395Y64398D01*
X129301Y64426D01*
X129210Y64461D01*
X129177Y64464D01*
X129161Y64469D01*
X129136Y64468D01*
X129063Y64475D01*
X125937Y64475D01*
X125841Y64459D01*
X125744Y64450D01*
X125721Y64440D01*
X125696Y64436D01*
X125610Y64390D01*
X125521Y64349D01*
X125496Y64328D01*
X125481Y64321D01*
X125464Y64302D01*
X125407Y64256D01*
X123095Y61943D01*
X118905Y61943D01*
G37*
%LPD*%
%LPC*%
G36*
X81299Y69301D02*
X81299Y69301D01*
X88131Y69301D01*
X88131Y69119D01*
X88143Y69046D01*
X88145Y68973D01*
X88162Y68927D01*
X88170Y68878D01*
X88205Y68813D01*
X88231Y68744D01*
X88262Y68706D01*
X88285Y68663D01*
X88339Y68613D01*
X88386Y68556D01*
X88428Y68530D01*
X88463Y68496D01*
X88530Y68466D01*
X88593Y68427D01*
X88641Y68416D01*
X88686Y68395D01*
X88759Y68388D01*
X88830Y68371D01*
X88879Y68376D01*
X88929Y68371D01*
X89000Y68388D01*
X89073Y68395D01*
X89118Y68415D01*
X89166Y68426D01*
X89229Y68465D01*
X89296Y68495D01*
X89352Y68542D01*
X89374Y68555D01*
X89384Y68568D01*
X89410Y68589D01*
X90984Y70163D01*
X93006Y71001D01*
X95194Y71001D01*
X97216Y70163D01*
X98763Y68616D01*
X99601Y66594D01*
X99601Y64406D01*
X98763Y62384D01*
X97216Y60837D01*
X95194Y59999D01*
X93006Y59999D01*
X90984Y60837D01*
X89437Y62384D01*
X89257Y62818D01*
X89244Y62839D01*
X89237Y62862D01*
X89180Y62942D01*
X89128Y63025D01*
X89109Y63041D01*
X89095Y63061D01*
X89015Y63118D01*
X88940Y63180D01*
X88916Y63189D01*
X88896Y63203D01*
X88803Y63231D01*
X88711Y63266D01*
X88687Y63267D01*
X88663Y63274D01*
X88565Y63271D01*
X88467Y63274D01*
X88444Y63267D01*
X88419Y63266D01*
X88328Y63232D01*
X88234Y63203D01*
X88214Y63189D01*
X88191Y63180D01*
X88115Y63118D01*
X88035Y63061D01*
X88021Y63041D01*
X88002Y63026D01*
X87950Y62943D01*
X87893Y62863D01*
X87886Y62840D01*
X87873Y62819D01*
X87830Y62677D01*
X87811Y62580D01*
X87183Y61064D01*
X86271Y59700D01*
X85110Y58539D01*
X83746Y57627D01*
X82230Y56999D01*
X81299Y56814D01*
X81299Y69301D01*
G37*
%LPD*%
%LPC*%
G36*
X55905Y138943D02*
X55905Y138943D01*
X52943Y141905D01*
X52943Y146095D01*
X55905Y149057D01*
X60095Y149057D01*
X63057Y146095D01*
X63057Y141905D01*
X60095Y138943D01*
X55905Y138943D01*
G37*
%LPD*%
%LPC*%
G36*
X11499Y487699D02*
X11499Y487699D01*
X11499Y498050D01*
X12796Y497845D01*
X14583Y497264D01*
X16257Y496411D01*
X17777Y495306D01*
X19106Y493977D01*
X20211Y492457D01*
X21064Y490783D01*
X21645Y488996D01*
X21850Y487699D01*
X11499Y487699D01*
G37*
%LPD*%
%LPC*%
G36*
X11499Y30499D02*
X11499Y30499D01*
X11499Y40850D01*
X12796Y40645D01*
X14583Y40064D01*
X16257Y39211D01*
X17777Y38106D01*
X19106Y36777D01*
X20211Y35257D01*
X21064Y33583D01*
X21645Y31796D01*
X21850Y30499D01*
X11499Y30499D01*
G37*
%LPD*%
%LPC*%
G36*
X11499Y484701D02*
X11499Y484701D01*
X21850Y484701D01*
X21645Y483404D01*
X21064Y481617D01*
X20211Y479943D01*
X19106Y478423D01*
X17777Y477094D01*
X16257Y475989D01*
X14583Y475136D01*
X12796Y474555D01*
X11499Y474350D01*
X11499Y484701D01*
G37*
%LPD*%
%LPC*%
G36*
X226450Y360699D02*
X226450Y360699D01*
X226655Y361996D01*
X227236Y363783D01*
X228089Y365457D01*
X229194Y366977D01*
X230523Y368306D01*
X232043Y369411D01*
X233717Y370264D01*
X235504Y370845D01*
X236801Y371050D01*
X236801Y360699D01*
X226450Y360699D01*
G37*
%LPD*%
%LPC*%
G36*
X11499Y27501D02*
X11499Y27501D01*
X21850Y27501D01*
X21645Y26204D01*
X21064Y24417D01*
X20211Y22743D01*
X19106Y21223D01*
X17777Y19894D01*
X16257Y18789D01*
X14583Y17936D01*
X12796Y17355D01*
X11499Y17150D01*
X11499Y27501D01*
G37*
%LPD*%
%LPC*%
G36*
X235504Y347555D02*
X235504Y347555D01*
X233717Y348136D01*
X232043Y348989D01*
X230523Y350094D01*
X229194Y351423D01*
X228089Y352943D01*
X227236Y354617D01*
X226655Y356404D01*
X226450Y357701D01*
X236801Y357701D01*
X236801Y347350D01*
X235504Y347555D01*
G37*
%LPD*%
%LPC*%
G36*
X81299Y72299D02*
X81299Y72299D01*
X81299Y84786D01*
X82230Y84601D01*
X83746Y83973D01*
X85110Y83061D01*
X86271Y81900D01*
X87183Y80536D01*
X87811Y79020D01*
X88131Y77411D01*
X88131Y72299D01*
X81299Y72299D01*
G37*
%LPD*%
%LPC*%
G36*
X81299Y30499D02*
X81299Y30499D01*
X81299Y42986D01*
X82230Y42801D01*
X83746Y42173D01*
X85110Y41261D01*
X86271Y40100D01*
X87183Y38736D01*
X87811Y37220D01*
X88131Y35611D01*
X88131Y30499D01*
X81299Y30499D01*
G37*
%LPD*%
%LPC*%
G36*
X167699Y30499D02*
X167699Y30499D01*
X167699Y42986D01*
X168630Y42801D01*
X170146Y42173D01*
X171510Y41261D01*
X172671Y40100D01*
X173583Y38736D01*
X174211Y37220D01*
X174531Y35611D01*
X174531Y30499D01*
X167699Y30499D01*
G37*
%LPD*%
%LPC*%
G36*
X167699Y27501D02*
X167699Y27501D01*
X174531Y27501D01*
X174531Y22389D01*
X174211Y20780D01*
X173583Y19264D01*
X173412Y19008D01*
X172911Y18259D01*
X172671Y17900D01*
X171510Y16739D01*
X170146Y15827D01*
X168630Y15199D01*
X167699Y15014D01*
X167699Y27501D01*
G37*
%LPD*%
%LPC*%
G36*
X81299Y27501D02*
X81299Y27501D01*
X88131Y27501D01*
X88131Y22389D01*
X87811Y20780D01*
X87183Y19264D01*
X87012Y19008D01*
X86511Y18259D01*
X86271Y17900D01*
X85110Y16739D01*
X83746Y15827D01*
X82230Y15199D01*
X81299Y15014D01*
X81299Y27501D01*
G37*
%LPD*%
%LPC*%
G36*
X71469Y30499D02*
X71469Y30499D01*
X71469Y35611D01*
X71789Y37220D01*
X72417Y38736D01*
X72697Y39154D01*
X73197Y39903D01*
X73329Y40100D01*
X74490Y41261D01*
X75854Y42173D01*
X77370Y42801D01*
X78301Y42986D01*
X78301Y30499D01*
X71469Y30499D01*
G37*
%LPD*%
%LPC*%
G36*
X157869Y30499D02*
X157869Y30499D01*
X157869Y35611D01*
X158189Y37220D01*
X158817Y38736D01*
X159097Y39154D01*
X159597Y39903D01*
X159729Y40100D01*
X160890Y41261D01*
X162254Y42173D01*
X163770Y42801D01*
X164701Y42986D01*
X164701Y30499D01*
X157869Y30499D01*
G37*
%LPD*%
%LPC*%
G36*
X71469Y72299D02*
X71469Y72299D01*
X71469Y77411D01*
X71789Y79020D01*
X72417Y80536D01*
X72802Y81112D01*
X73303Y81861D01*
X73329Y81900D01*
X74490Y83061D01*
X75854Y83973D01*
X77370Y84601D01*
X78301Y84786D01*
X78301Y72299D01*
X71469Y72299D01*
G37*
%LPD*%
%LPC*%
G36*
X77370Y56999D02*
X77370Y56999D01*
X75854Y57627D01*
X74490Y58539D01*
X73329Y59700D01*
X72417Y61064D01*
X71789Y62580D01*
X71469Y64189D01*
X71469Y69301D01*
X78301Y69301D01*
X78301Y56814D01*
X77370Y56999D01*
G37*
%LPD*%
%LPC*%
G36*
X163770Y15199D02*
X163770Y15199D01*
X162254Y15827D01*
X160890Y16739D01*
X159729Y17900D01*
X158817Y19264D01*
X158189Y20780D01*
X157869Y22389D01*
X157869Y27501D01*
X164701Y27501D01*
X164701Y15014D01*
X163770Y15199D01*
G37*
%LPD*%
%LPC*%
G36*
X77370Y15199D02*
X77370Y15199D01*
X75854Y15827D01*
X74490Y16739D01*
X73329Y17900D01*
X72417Y19264D01*
X71789Y20780D01*
X71469Y22389D01*
X71469Y27501D01*
X78301Y27501D01*
X78301Y15014D01*
X77370Y15199D01*
G37*
%LPD*%
%LPC*%
G36*
X163666Y400459D02*
X163666Y400459D01*
X163019Y400632D01*
X162440Y400967D01*
X161967Y401440D01*
X161632Y402019D01*
X161459Y402666D01*
X161459Y405751D01*
X167251Y405751D01*
X167251Y400459D01*
X163666Y400459D01*
G37*
%LPD*%
G36*
X182524Y417255D02*
X182524Y417255D01*
X182548Y417252D01*
X182644Y417275D01*
X182741Y417291D01*
X182762Y417302D01*
X182786Y417308D01*
X182869Y417359D01*
X182956Y417406D01*
X182973Y417423D01*
X182993Y417436D01*
X183056Y417512D01*
X183123Y417584D01*
X183133Y417606D01*
X183148Y417625D01*
X183183Y417716D01*
X183224Y417806D01*
X183226Y417830D01*
X183235Y417853D01*
X183249Y418000D01*
X183249Y419500D01*
X183245Y419524D01*
X183248Y419548D01*
X183225Y419644D01*
X183209Y419741D01*
X183198Y419762D01*
X183192Y419786D01*
X183141Y419869D01*
X183094Y419956D01*
X183077Y419973D01*
X183064Y419993D01*
X182988Y420056D01*
X182916Y420123D01*
X182894Y420133D01*
X182875Y420148D01*
X182784Y420183D01*
X182694Y420224D01*
X182670Y420226D01*
X182647Y420235D01*
X182500Y420249D01*
X175774Y420249D01*
X175750Y420245D01*
X175725Y420248D01*
X175630Y420225D01*
X175533Y420209D01*
X175512Y420198D01*
X175488Y420192D01*
X175404Y420141D01*
X175318Y420094D01*
X175301Y420077D01*
X175280Y420064D01*
X175218Y419988D01*
X175151Y419916D01*
X175141Y419894D01*
X175125Y419875D01*
X175091Y419784D01*
X175050Y419694D01*
X175048Y419670D01*
X175039Y419647D01*
X175025Y419500D01*
X175025Y418000D01*
X175029Y417976D01*
X175026Y417952D01*
X175048Y417856D01*
X175064Y417759D01*
X175076Y417738D01*
X175082Y417714D01*
X175133Y417630D01*
X175179Y417544D01*
X175197Y417527D01*
X175210Y417507D01*
X175286Y417444D01*
X175357Y417377D01*
X175380Y417367D01*
X175399Y417352D01*
X175490Y417317D01*
X175580Y417276D01*
X175604Y417274D01*
X175627Y417265D01*
X175774Y417251D01*
X182500Y417251D01*
X182524Y417255D01*
G37*
%LPC*%
G36*
X79799Y70799D02*
X79799Y70799D01*
X79799Y70801D01*
X79801Y70801D01*
X79801Y70799D01*
X79799Y70799D01*
G37*
%LPD*%
%LPC*%
G36*
X166199Y28999D02*
X166199Y28999D01*
X166199Y29001D01*
X166201Y29001D01*
X166201Y28999D01*
X166199Y28999D01*
G37*
%LPD*%
%LPC*%
G36*
X79799Y28999D02*
X79799Y28999D01*
X79799Y29001D01*
X79801Y29001D01*
X79801Y28999D01*
X79799Y28999D01*
G37*
%LPD*%
D10*
X10000Y29000D03*
X10000Y54400D03*
X10000Y79800D03*
X10000Y105200D03*
X10000Y130600D03*
X10000Y156000D03*
X10000Y181400D03*
X10000Y206800D03*
X10000Y232200D03*
X10000Y257600D03*
X10000Y283000D03*
X10000Y308400D03*
X10000Y333800D03*
X10000Y359200D03*
X10000Y384600D03*
X10000Y410000D03*
X10000Y435400D03*
X10000Y460800D03*
X10000Y486200D03*
X238300Y29000D03*
X238300Y54400D03*
X238300Y79800D03*
X238300Y105200D03*
X238300Y130600D03*
X238300Y156000D03*
X238300Y181400D03*
X238300Y206800D03*
X238300Y232200D03*
X238300Y257600D03*
X238300Y283000D03*
X238300Y308400D03*
X238300Y333800D03*
X238300Y359200D03*
X238300Y384600D03*
X238300Y410000D03*
X238300Y435400D03*
X238300Y460800D03*
X238300Y486200D03*
D11*
X79800Y76590D02*
X79800Y65010D01*
X166200Y65010D02*
X166200Y76590D01*
X79800Y34790D02*
X79800Y23210D01*
X166200Y23210D02*
X166200Y34790D01*
D12*
X123000Y14500D03*
X123000Y307500D03*
D13*
X115000Y415250D03*
X59000Y415250D03*
D14*
X102000Y452000D03*
X92000Y452000D03*
X82000Y452000D03*
X72000Y452000D03*
D15*
X168750Y418750D03*
X183250Y418750D03*
X183250Y407250D03*
X168750Y407250D03*
D16*
X160670Y430650D02*
X157970Y430650D01*
X160670Y430650D02*
X160670Y427350D01*
X157970Y427350D01*
X157970Y430650D01*
X157970Y429915D02*
X160670Y429915D01*
X152030Y430650D02*
X149330Y430650D01*
X152030Y430650D02*
X152030Y427350D01*
X149330Y427350D01*
X149330Y430650D01*
X149330Y429915D02*
X152030Y429915D01*
X199970Y398650D02*
X202670Y398650D01*
X202670Y395350D01*
X199970Y395350D01*
X199970Y398650D01*
X199970Y397915D02*
X202670Y397915D01*
X194030Y398650D02*
X191330Y398650D01*
X194030Y398650D02*
X194030Y395350D01*
X191330Y395350D01*
X191330Y398650D01*
X191330Y397915D02*
X194030Y397915D01*
D17*
X224000Y470000D03*
X207000Y504000D03*
X245000Y500000D03*
X150000Y323000D03*
X54000Y495000D03*
X62000Y487000D03*
X70000Y495000D03*
X86000Y495000D03*
X102000Y495000D03*
X118000Y495000D03*
X134000Y495000D03*
X150000Y495000D03*
X166000Y495000D03*
X182000Y495000D03*
X198000Y495000D03*
X78000Y487000D03*
X94000Y487000D03*
X110000Y487000D03*
X127000Y487000D03*
X142000Y487000D03*
X159000Y486000D03*
X175000Y486000D03*
X191000Y486000D03*
X21000Y448000D03*
X61000Y504000D03*
X79000Y504000D03*
X94000Y504000D03*
X110000Y504000D03*
X126000Y504000D03*
X142000Y504000D03*
X158000Y504000D03*
X174000Y504000D03*
X191000Y504000D03*
X46000Y504000D03*
X6000Y504000D03*
X45000Y487000D03*
X207000Y487000D03*
X227000Y118000D03*
X232000Y11000D03*
X227000Y143000D03*
X197000Y208000D03*
X53000Y75000D03*
X208000Y85000D03*
X220000Y36000D03*
X19000Y13000D03*
X32000Y92000D03*
X59000Y395000D03*
X55000Y268000D03*
X83000Y279000D03*
X105000Y39000D03*
X148000Y38000D03*
X53000Y87000D03*
X90000Y56000D03*
X64000Y70000D03*
X183000Y221000D03*
X47000Y104000D03*
X225000Y449000D03*
X49000Y29000D03*
X198000Y28000D03*
X214000Y66000D03*
X88000Y196000D03*
X112000Y201000D03*
X147000Y203000D03*
X54000Y208000D03*
X101000Y172000D03*
X108000Y65000D03*
X193000Y453000D03*
X133000Y450000D03*
X154000Y450000D03*
X174000Y450000D03*
X112000Y394000D03*
X135000Y381000D03*
X109000Y374000D03*
X121000Y360000D03*
X142000Y404000D03*
X156000Y386000D03*
X90000Y409000D03*
X130000Y427000D03*
X86000Y369000D03*
X167000Y143000D03*
D18*
X182181Y418750D02*
X183250Y418750D01*
X168750Y407250D02*
X160500Y399000D01*
X160000Y399000D01*
D17*
X160000Y399000D03*
D18*
X170681Y407250D02*
X182181Y418750D01*
X170681Y407250D02*
X168750Y407250D01*
D17*
X230000Y372000D03*
X229000Y398000D03*
X193000Y343000D03*
X175000Y366000D03*
X135000Y270000D03*
X150000Y226000D03*
X197000Y292000D03*
X128000Y232000D03*
D18*
X115944Y289944D02*
X143509Y289944D01*
X110000Y284000D02*
X110000Y248000D01*
X103000Y241000D01*
X110000Y284000D02*
X115944Y289944D01*
X103000Y241000D02*
X76000Y241000D01*
X70000Y235000D01*
D17*
X68000Y132000D03*
D18*
X70000Y134000D01*
X70000Y235000D01*
D17*
X177000Y296000D03*
D18*
X172000Y301000D01*
X154565Y301000D01*
X143509Y289944D01*
D17*
X135000Y342000D03*
D18*
X179016Y342000D02*
X214854Y306162D01*
X179016Y342000D02*
X135000Y342000D01*
X214854Y306162D02*
X214854Y117186D01*
X226840Y105200D02*
X238300Y105200D01*
X226840Y105200D02*
X214854Y117186D01*
D17*
X125000Y336000D03*
D18*
X142509Y335944D02*
X145041Y338476D01*
X177557Y338476D01*
X125056Y335944D02*
X125000Y336000D01*
X125056Y335944D02*
X142509Y335944D01*
X177557Y338476D02*
X211330Y304703D01*
X238300Y88340D02*
X238300Y79800D01*
X211330Y115310D02*
X211330Y304703D01*
X211330Y115310D02*
X238300Y88340D01*
D17*
X114000Y332000D03*
D18*
X114056Y329944D02*
X141492Y329944D01*
X114000Y330000D02*
X114000Y332000D01*
X114000Y330000D02*
X114056Y329944D01*
X141492Y329944D02*
X146500Y334952D01*
X176097Y334952D01*
X207806Y303243D01*
X207806Y113850D01*
X226378Y95278D01*
X238300Y62940D02*
X238300Y54400D01*
X226378Y74862D02*
X226378Y95278D01*
X226378Y74862D02*
X238300Y62940D01*
D17*
X103000Y328000D03*
D18*
X238300Y37540D02*
X238300Y29000D01*
X238300Y37540D02*
X222000Y53840D01*
X222000Y94256D01*
X204282Y111974D01*
X204282Y301783D01*
X174637Y331428D02*
X147960Y331428D01*
X141952Y325420D01*
X174637Y331428D02*
X204282Y301783D01*
X141952Y325420D02*
X105580Y325420D01*
X103000Y328000D01*
D17*
X103000Y338000D03*
X103000Y255000D03*
D18*
X103000Y286000D01*
X96000Y293000D01*
X96000Y331000D01*
X103000Y338000D01*
D17*
X95000Y342000D03*
X90000Y255000D03*
D18*
X99476Y264476D01*
X99476Y284540D02*
X92476Y291540D01*
X92476Y332476D01*
X95000Y335000D02*
X95000Y342000D01*
X95000Y335000D02*
X92476Y332476D01*
X99476Y284540D02*
X99476Y264476D01*
D17*
X84000Y336000D03*
X78000Y255000D03*
D18*
X71500Y261500D01*
X70000Y263000D01*
X68524Y264476D01*
X68524Y306524D02*
X84000Y322000D01*
X84000Y336000D01*
X68524Y306524D02*
X68524Y264476D01*
D17*
X87000Y351000D03*
X65000Y255000D03*
D18*
X77096Y341096D02*
X87000Y351000D01*
X65000Y309065D02*
X65000Y255000D01*
X77096Y321161D02*
X77096Y341096D01*
X77096Y321161D02*
X65000Y309065D01*
D17*
X56000Y333000D03*
D18*
X44970Y333000D01*
X32970Y321000D01*
X10000Y189940D02*
X10000Y181400D01*
X32970Y212910D02*
X32970Y321000D01*
X32970Y212910D02*
X10000Y189940D01*
D17*
X56000Y343000D03*
D18*
X49446Y343000D01*
X29446Y323000D01*
X10000Y215340D02*
X10000Y206800D01*
X29446Y234786D02*
X29446Y323000D01*
X29446Y234786D02*
X10000Y215340D01*
D17*
X56000Y354000D03*
D18*
X54922Y354000D01*
X25922Y325000D01*
X10000Y240740D02*
X10000Y232200D01*
X10000Y240740D02*
X25922Y256662D01*
X25922Y325000D01*
X21922Y269522D02*
X10000Y257600D01*
D17*
X56000Y365000D03*
D18*
X49944Y358944D01*
X49944Y354006D01*
X21922Y325984D02*
X21922Y269522D01*
X21922Y325984D02*
X49944Y354006D01*
X47873Y317952D02*
X43542Y313621D01*
X47873Y317952D02*
X63920Y317952D01*
X70048Y324081D01*
X70048Y379952D01*
D17*
X70000Y380000D03*
D18*
X70048Y379952D01*
X43542Y313621D02*
X43542Y248458D01*
X49000Y243000D01*
D17*
X49000Y243000D03*
D18*
X47066Y310494D02*
X51000Y314428D01*
X65379Y314428D01*
D17*
X80000Y387000D03*
D18*
X73572Y322621D02*
X65379Y314428D01*
X73572Y374572D02*
X80000Y381000D01*
X80000Y387000D01*
X73572Y374572D02*
X73572Y322621D01*
X55056Y250509D02*
X55056Y237492D01*
X43542Y225978D01*
X47066Y258499D02*
X47066Y310494D01*
X47066Y258499D02*
X55056Y250509D01*
X43542Y225978D02*
X43542Y190458D01*
X57056Y176944D02*
X57056Y162492D01*
X57056Y176944D02*
X43542Y190458D01*
X57056Y162492D02*
X45000Y150436D01*
D17*
X45000Y144000D03*
D18*
X45000Y150436D01*
D17*
X56000Y443000D03*
D18*
X63000Y443000D01*
X66476Y439524D01*
X79000Y439524D02*
X82000Y442524D01*
X82000Y452000D01*
X79000Y439524D02*
X66476Y439524D01*
D17*
X56000Y453000D03*
D18*
X71000Y453000D01*
X72000Y452000D01*
X42954Y325000D02*
X36494Y318540D01*
X58000Y325000D02*
X63000Y330000D01*
X63000Y369000D01*
X57000Y375000D02*
X38000Y375000D01*
X33000Y380000D01*
X42954Y325000D02*
X58000Y325000D01*
X63000Y369000D02*
X57000Y375000D01*
D17*
X43000Y161000D03*
D18*
X36494Y167522D02*
X36494Y318540D01*
X43000Y161016D02*
X43000Y161000D01*
X43000Y161016D02*
X36494Y167522D01*
X224000Y384000D02*
X211000Y397000D01*
X224000Y384000D02*
X237700Y384000D01*
X238300Y384600D01*
X211000Y451000D02*
X198000Y464000D01*
X211000Y451000D02*
X211000Y397000D01*
D17*
X56000Y464000D03*
D18*
X33000Y432000D02*
X33000Y380000D01*
X33000Y432000D02*
X43000Y442000D01*
X43000Y459000D01*
X48000Y464000D01*
X56000Y464000D01*
X198000Y464000D01*
D17*
X158000Y349000D03*
X159000Y289000D03*
X171000Y162000D03*
D19*
X165596Y167404D01*
X165596Y282404D02*
X159000Y289000D01*
X165596Y282404D02*
X165596Y167404D01*
D20*
X158000Y349000D02*
X164000Y355000D01*
X164000Y374000D01*
X199206Y383000D02*
X207206Y391000D01*
X207206Y434794D01*
X202206Y439794D01*
X95206Y439794D01*
X92000Y443000D01*
X92000Y452000D01*
X164000Y374000D02*
X173000Y383000D01*
X199206Y383000D01*
D17*
X193000Y376000D03*
D18*
X226378Y342622D01*
X238300Y291540D02*
X238300Y283000D01*
X238300Y291540D02*
X226378Y303462D01*
X226378Y342622D01*
D17*
X193000Y365000D03*
D18*
X199016Y365000D01*
X222854Y341162D01*
X238300Y266140D02*
X238300Y257600D01*
X222854Y281586D02*
X222854Y341162D01*
X222854Y281586D02*
X238300Y266140D01*
D17*
X169000Y350000D03*
D18*
X176000Y350000D01*
X218378Y307622D01*
X218378Y137062D01*
X224840Y130600D02*
X238300Y130600D01*
X224840Y130600D02*
X218378Y137062D01*
D17*
X194000Y431000D03*
D18*
X45414Y321476D02*
X40018Y316081D01*
X45414Y321476D02*
X62460Y321476D01*
X66524Y325540D01*
X66524Y373460D02*
X61460Y378524D01*
X40000Y378524D01*
X36524Y382000D01*
X36524Y430524D01*
X66524Y373460D02*
X66524Y325540D01*
X42000Y436000D02*
X189000Y436000D01*
X194000Y431000D01*
X42000Y436000D02*
X36524Y430524D01*
D17*
X50000Y169000D03*
D18*
X40018Y173982D02*
X40018Y316081D01*
X40018Y173982D02*
X45000Y169000D01*
X50000Y169000D01*
D21*
X123000Y43000D02*
X123000Y14500D01*
X131000Y51000D02*
X179000Y51000D01*
X188000Y60000D01*
X188000Y91000D01*
X131000Y51000D02*
X123000Y43000D01*
D17*
X188000Y91000D03*
X158000Y169000D03*
X157000Y95000D03*
X123000Y123000D03*
D19*
X158000Y123000D02*
X158000Y169000D01*
X158000Y123000D02*
X158000Y96000D01*
X157000Y95000D01*
X158000Y123000D02*
X123000Y123000D01*
D17*
X121000Y67000D03*
X134000Y67000D03*
D18*
X121000Y67000D01*
D17*
X58000Y144000D03*
X174000Y249000D03*
D19*
X174000Y171000D01*
X186000Y159000D01*
D17*
X186000Y159000D03*
X87000Y149000D03*
D22*
X186000Y159000D02*
X186000Y109000D01*
X165420Y88420D02*
X97580Y88420D01*
X87000Y99000D01*
X87000Y128000D01*
X87000Y149000D01*
X165420Y88420D02*
X186000Y109000D01*
D17*
X76000Y128000D03*
D22*
X87000Y128000D01*
D17*
X194206Y419939D03*
D18*
X169320Y419320D02*
X168750Y418750D01*
X177000Y427000D01*
X194206Y420364D02*
X194206Y419939D01*
X194206Y420364D02*
X187570Y427000D01*
X177000Y427000D01*
X159320Y428180D02*
X159320Y429000D01*
X159320Y428180D02*
X168750Y418750D01*
D17*
X194449Y409304D03*
D18*
X192395Y407250D02*
X183250Y407250D01*
X192395Y407250D02*
X194449Y409304D01*
X192680Y398000D02*
X192680Y397000D01*
X192680Y398000D02*
X183430Y407250D01*
X183250Y407250D01*
M02*
