G04 EAGLE Gerber RS-274X export*
G75*
%MOMM*%
%FSLAX34Y34*%
%LPD*%
%INSilkscreen Bottom*%
%IPPOS*%
%AMOC8*
5,1,8,0,0,1.08239X$1,22.5*%
G01*
%ADD10C,0.228600*%
%ADD11C,0.152400*%
%ADD12C,0.254000*%
%ADD13C,0.400000*%
%ADD14C,0.203200*%
%ADD15C,0.200000*%
%ADD16C,0.076200*%


D10*
X217139Y403328D02*
X217139Y406799D01*
X220611Y404485D02*
X211932Y404485D01*
X211849Y404487D01*
X211767Y404493D01*
X211685Y404503D01*
X211603Y404516D01*
X211523Y404534D01*
X211443Y404555D01*
X211364Y404580D01*
X211287Y404609D01*
X211211Y404642D01*
X211137Y404678D01*
X211064Y404718D01*
X210993Y404761D01*
X210925Y404807D01*
X210859Y404856D01*
X210795Y404909D01*
X210734Y404965D01*
X210676Y405023D01*
X210620Y405084D01*
X210567Y405148D01*
X210518Y405214D01*
X210472Y405282D01*
X210429Y405353D01*
X210389Y405426D01*
X210353Y405500D01*
X210320Y405576D01*
X210291Y405653D01*
X210266Y405732D01*
X210245Y405812D01*
X210227Y405892D01*
X210214Y405974D01*
X210204Y406056D01*
X210198Y406138D01*
X210196Y406221D01*
X210197Y406221D02*
X210197Y406799D01*
X210197Y411020D02*
X210775Y411020D01*
X210775Y411599D01*
X210197Y411599D01*
X210197Y411020D01*
X210197Y416982D02*
X217139Y416982D01*
X217139Y422189D01*
X217140Y422189D02*
X217138Y422272D01*
X217132Y422354D01*
X217122Y422436D01*
X217109Y422518D01*
X217091Y422598D01*
X217070Y422678D01*
X217045Y422757D01*
X217016Y422834D01*
X216983Y422910D01*
X216947Y422984D01*
X216907Y423057D01*
X216864Y423128D01*
X216818Y423196D01*
X216769Y423262D01*
X216716Y423326D01*
X216660Y423387D01*
X216602Y423445D01*
X216541Y423501D01*
X216477Y423554D01*
X216411Y423603D01*
X216343Y423649D01*
X216272Y423692D01*
X216199Y423732D01*
X216125Y423768D01*
X216049Y423801D01*
X215972Y423830D01*
X215893Y423855D01*
X215813Y423876D01*
X215733Y423894D01*
X215651Y423907D01*
X215569Y423917D01*
X215487Y423923D01*
X215404Y423925D01*
X210197Y423925D01*
X210197Y420454D02*
X217139Y420454D01*
X210197Y431686D02*
X210197Y434579D01*
X210196Y431686D02*
X210198Y431603D01*
X210204Y431521D01*
X210214Y431439D01*
X210227Y431357D01*
X210245Y431277D01*
X210266Y431197D01*
X210291Y431118D01*
X210320Y431041D01*
X210353Y430965D01*
X210389Y430891D01*
X210429Y430818D01*
X210472Y430747D01*
X210518Y430679D01*
X210567Y430613D01*
X210620Y430549D01*
X210676Y430488D01*
X210734Y430430D01*
X210795Y430374D01*
X210859Y430321D01*
X210925Y430272D01*
X210993Y430226D01*
X211064Y430183D01*
X211137Y430143D01*
X211211Y430107D01*
X211287Y430074D01*
X211364Y430045D01*
X211443Y430020D01*
X211523Y429999D01*
X211603Y429981D01*
X211685Y429968D01*
X211767Y429958D01*
X211849Y429952D01*
X211932Y429950D01*
X214825Y429950D01*
X214825Y429951D02*
X214919Y429953D01*
X215014Y429959D01*
X215108Y429968D01*
X215201Y429982D01*
X215294Y429999D01*
X215386Y430020D01*
X215477Y430045D01*
X215567Y430073D01*
X215656Y430105D01*
X215743Y430141D01*
X215829Y430180D01*
X215913Y430223D01*
X215996Y430269D01*
X216076Y430318D01*
X216154Y430371D01*
X216231Y430427D01*
X216304Y430486D01*
X216376Y430547D01*
X216444Y430612D01*
X216511Y430680D01*
X216574Y430750D01*
X216634Y430822D01*
X216692Y430897D01*
X216746Y430975D01*
X216797Y431054D01*
X216845Y431135D01*
X216889Y431219D01*
X216930Y431304D01*
X216967Y431390D01*
X217001Y431478D01*
X217032Y431568D01*
X217058Y431658D01*
X217081Y431750D01*
X217100Y431843D01*
X217115Y431936D01*
X217127Y432029D01*
X217135Y432123D01*
X217139Y432218D01*
X217139Y432312D01*
X217135Y432407D01*
X217127Y432501D01*
X217115Y432594D01*
X217100Y432687D01*
X217081Y432780D01*
X217058Y432872D01*
X217032Y432962D01*
X217001Y433052D01*
X216967Y433140D01*
X216930Y433226D01*
X216889Y433311D01*
X216845Y433395D01*
X216797Y433476D01*
X216746Y433555D01*
X216692Y433633D01*
X216634Y433708D01*
X216574Y433780D01*
X216511Y433850D01*
X216444Y433918D01*
X216376Y433983D01*
X216304Y434044D01*
X216231Y434103D01*
X216154Y434159D01*
X216076Y434212D01*
X215996Y434261D01*
X215913Y434307D01*
X215829Y434350D01*
X215743Y434389D01*
X215656Y434425D01*
X215567Y434457D01*
X215477Y434485D01*
X215386Y434510D01*
X215294Y434531D01*
X215201Y434548D01*
X215108Y434562D01*
X215014Y434571D01*
X214919Y434577D01*
X214825Y434579D01*
X213668Y434579D01*
X213668Y429950D01*
X209039Y439475D02*
X221768Y444104D01*
X220611Y453533D02*
X210197Y453533D01*
X210197Y450640D01*
X210196Y450640D02*
X210198Y450557D01*
X210204Y450475D01*
X210214Y450393D01*
X210227Y450311D01*
X210245Y450231D01*
X210266Y450151D01*
X210291Y450072D01*
X210320Y449995D01*
X210353Y449919D01*
X210389Y449845D01*
X210429Y449772D01*
X210472Y449701D01*
X210518Y449633D01*
X210567Y449567D01*
X210620Y449503D01*
X210676Y449442D01*
X210734Y449384D01*
X210795Y449328D01*
X210859Y449275D01*
X210925Y449226D01*
X210993Y449180D01*
X211064Y449137D01*
X211137Y449097D01*
X211211Y449061D01*
X211287Y449028D01*
X211364Y448999D01*
X211443Y448974D01*
X211523Y448953D01*
X211603Y448935D01*
X211685Y448922D01*
X211767Y448912D01*
X211849Y448906D01*
X211932Y448904D01*
X211932Y448905D02*
X215404Y448905D01*
X215404Y448904D02*
X215487Y448906D01*
X215569Y448912D01*
X215651Y448922D01*
X215733Y448935D01*
X215813Y448953D01*
X215893Y448974D01*
X215972Y448999D01*
X216049Y449028D01*
X216125Y449061D01*
X216199Y449097D01*
X216272Y449137D01*
X216343Y449180D01*
X216411Y449226D01*
X216477Y449275D01*
X216541Y449328D01*
X216602Y449384D01*
X216660Y449442D01*
X216716Y449503D01*
X216769Y449567D01*
X216818Y449633D01*
X216864Y449701D01*
X216907Y449772D01*
X216947Y449845D01*
X216983Y449919D01*
X217016Y449995D01*
X217045Y450072D01*
X217070Y450151D01*
X217091Y450231D01*
X217109Y450311D01*
X217122Y450393D01*
X217132Y450475D01*
X217138Y450557D01*
X217140Y450640D01*
X217139Y450640D02*
X217139Y453533D01*
X210197Y461023D02*
X210197Y463916D01*
X210196Y461023D02*
X210198Y460940D01*
X210204Y460858D01*
X210214Y460776D01*
X210227Y460694D01*
X210245Y460614D01*
X210266Y460534D01*
X210291Y460455D01*
X210320Y460378D01*
X210353Y460302D01*
X210389Y460228D01*
X210429Y460155D01*
X210472Y460084D01*
X210518Y460016D01*
X210567Y459950D01*
X210620Y459886D01*
X210676Y459825D01*
X210734Y459767D01*
X210795Y459711D01*
X210859Y459658D01*
X210925Y459609D01*
X210993Y459563D01*
X211064Y459520D01*
X211137Y459480D01*
X211211Y459444D01*
X211287Y459411D01*
X211364Y459382D01*
X211443Y459357D01*
X211523Y459336D01*
X211603Y459318D01*
X211685Y459305D01*
X211767Y459295D01*
X211849Y459289D01*
X211932Y459287D01*
X214825Y459287D01*
X214825Y459288D02*
X214919Y459290D01*
X215014Y459296D01*
X215108Y459305D01*
X215201Y459319D01*
X215294Y459336D01*
X215386Y459357D01*
X215477Y459382D01*
X215567Y459410D01*
X215656Y459442D01*
X215743Y459478D01*
X215829Y459517D01*
X215913Y459560D01*
X215996Y459606D01*
X216076Y459655D01*
X216154Y459708D01*
X216231Y459764D01*
X216304Y459823D01*
X216376Y459884D01*
X216444Y459949D01*
X216511Y460017D01*
X216574Y460087D01*
X216634Y460159D01*
X216692Y460234D01*
X216746Y460312D01*
X216797Y460391D01*
X216845Y460472D01*
X216889Y460556D01*
X216930Y460641D01*
X216967Y460727D01*
X217001Y460815D01*
X217032Y460905D01*
X217058Y460995D01*
X217081Y461087D01*
X217100Y461180D01*
X217115Y461273D01*
X217127Y461366D01*
X217135Y461460D01*
X217139Y461555D01*
X217139Y461649D01*
X217135Y461744D01*
X217127Y461838D01*
X217115Y461931D01*
X217100Y462024D01*
X217081Y462117D01*
X217058Y462209D01*
X217032Y462299D01*
X217001Y462389D01*
X216967Y462477D01*
X216930Y462563D01*
X216889Y462648D01*
X216845Y462732D01*
X216797Y462813D01*
X216746Y462892D01*
X216692Y462970D01*
X216634Y463045D01*
X216574Y463117D01*
X216511Y463187D01*
X216444Y463255D01*
X216376Y463320D01*
X216304Y463381D01*
X216231Y463440D01*
X216154Y463496D01*
X216076Y463549D01*
X215996Y463598D01*
X215913Y463644D01*
X215829Y463687D01*
X215743Y463726D01*
X215656Y463762D01*
X215567Y463794D01*
X215477Y463822D01*
X215386Y463847D01*
X215294Y463868D01*
X215201Y463885D01*
X215108Y463899D01*
X215014Y463908D01*
X214919Y463914D01*
X214825Y463916D01*
X213668Y463916D01*
X213668Y459287D01*
X214246Y471123D02*
X214246Y473726D01*
X214247Y471123D02*
X214245Y471035D01*
X214239Y470947D01*
X214230Y470859D01*
X214216Y470771D01*
X214199Y470685D01*
X214178Y470599D01*
X214153Y470514D01*
X214125Y470430D01*
X214093Y470348D01*
X214057Y470267D01*
X214018Y470188D01*
X213976Y470111D01*
X213930Y470035D01*
X213881Y469962D01*
X213829Y469890D01*
X213773Y469821D01*
X213715Y469755D01*
X213654Y469691D01*
X213590Y469630D01*
X213524Y469572D01*
X213455Y469516D01*
X213383Y469464D01*
X213310Y469415D01*
X213235Y469369D01*
X213157Y469327D01*
X213078Y469288D01*
X212997Y469252D01*
X212915Y469220D01*
X212831Y469192D01*
X212746Y469167D01*
X212660Y469146D01*
X212574Y469129D01*
X212486Y469115D01*
X212398Y469106D01*
X212310Y469100D01*
X212222Y469098D01*
X212134Y469100D01*
X212046Y469106D01*
X211958Y469115D01*
X211870Y469129D01*
X211784Y469146D01*
X211698Y469167D01*
X211613Y469192D01*
X211529Y469220D01*
X211447Y469252D01*
X211366Y469288D01*
X211287Y469327D01*
X211210Y469369D01*
X211134Y469415D01*
X211061Y469464D01*
X210989Y469516D01*
X210920Y469572D01*
X210854Y469630D01*
X210790Y469691D01*
X210729Y469755D01*
X210671Y469821D01*
X210615Y469890D01*
X210563Y469962D01*
X210514Y470035D01*
X210468Y470111D01*
X210426Y470188D01*
X210387Y470267D01*
X210351Y470348D01*
X210319Y470430D01*
X210291Y470514D01*
X210266Y470599D01*
X210245Y470685D01*
X210228Y470771D01*
X210214Y470859D01*
X210205Y470947D01*
X210199Y471035D01*
X210197Y471123D01*
X210197Y473726D01*
X215404Y473726D01*
X215487Y473724D01*
X215569Y473718D01*
X215651Y473708D01*
X215733Y473695D01*
X215813Y473677D01*
X215893Y473656D01*
X215972Y473631D01*
X216049Y473602D01*
X216125Y473569D01*
X216199Y473533D01*
X216272Y473493D01*
X216343Y473450D01*
X216411Y473404D01*
X216477Y473355D01*
X216541Y473302D01*
X216602Y473246D01*
X216660Y473188D01*
X216716Y473127D01*
X216769Y473063D01*
X216818Y472997D01*
X216864Y472929D01*
X216907Y472858D01*
X216947Y472785D01*
X216983Y472711D01*
X217016Y472635D01*
X217045Y472558D01*
X217070Y472479D01*
X217091Y472399D01*
X217109Y472319D01*
X217122Y472237D01*
X217132Y472155D01*
X217138Y472073D01*
X217140Y471990D01*
X217139Y471990D02*
X217139Y469676D01*
X210197Y479099D02*
X217139Y483728D01*
X217139Y479099D02*
X210197Y483728D01*
X210197Y488243D02*
X217139Y492872D01*
X217139Y488243D02*
X210197Y492872D01*
D11*
X158052Y19000D02*
X142304Y19000D01*
X158052Y19000D02*
X158052Y51018D01*
X203010Y51018D01*
X203010Y270982D01*
X158052Y270982D01*
X158052Y303000D01*
X87948Y303000D02*
X87948Y270982D01*
X42990Y270982D01*
X42990Y61018D01*
X52990Y51018D01*
X87948Y51018D01*
X87948Y19000D01*
X103696Y19000D01*
X142558Y303000D02*
X158052Y303000D01*
X103696Y303000D02*
X87948Y303000D01*
D12*
X102000Y406000D02*
X72000Y406000D01*
X117000Y432000D02*
X117000Y448500D01*
X64500Y448500D02*
X57000Y448500D01*
X57000Y432000D01*
X109500Y448500D02*
X117000Y448500D01*
D13*
X110586Y455000D02*
X110588Y455075D01*
X110594Y455149D01*
X110604Y455223D01*
X110617Y455296D01*
X110635Y455369D01*
X110656Y455440D01*
X110681Y455511D01*
X110710Y455580D01*
X110743Y455647D01*
X110779Y455712D01*
X110818Y455776D01*
X110860Y455837D01*
X110906Y455896D01*
X110955Y455953D01*
X111007Y456006D01*
X111061Y456057D01*
X111118Y456106D01*
X111178Y456150D01*
X111240Y456192D01*
X111304Y456231D01*
X111370Y456266D01*
X111437Y456297D01*
X111507Y456325D01*
X111577Y456349D01*
X111649Y456370D01*
X111722Y456386D01*
X111795Y456399D01*
X111870Y456408D01*
X111944Y456413D01*
X112019Y456414D01*
X112093Y456411D01*
X112168Y456404D01*
X112241Y456393D01*
X112315Y456379D01*
X112387Y456360D01*
X112458Y456338D01*
X112528Y456312D01*
X112597Y456282D01*
X112663Y456249D01*
X112728Y456212D01*
X112791Y456172D01*
X112852Y456128D01*
X112910Y456082D01*
X112966Y456032D01*
X113019Y455980D01*
X113070Y455925D01*
X113117Y455867D01*
X113161Y455807D01*
X113202Y455744D01*
X113240Y455680D01*
X113274Y455614D01*
X113305Y455545D01*
X113332Y455476D01*
X113355Y455405D01*
X113374Y455333D01*
X113390Y455260D01*
X113402Y455186D01*
X113410Y455112D01*
X113414Y455037D01*
X113414Y454963D01*
X113410Y454888D01*
X113402Y454814D01*
X113390Y454740D01*
X113374Y454667D01*
X113355Y454595D01*
X113332Y454524D01*
X113305Y454455D01*
X113274Y454386D01*
X113240Y454320D01*
X113202Y454256D01*
X113161Y454193D01*
X113117Y454133D01*
X113070Y454075D01*
X113019Y454020D01*
X112966Y453968D01*
X112910Y453918D01*
X112852Y453872D01*
X112791Y453828D01*
X112728Y453788D01*
X112663Y453751D01*
X112597Y453718D01*
X112528Y453688D01*
X112458Y453662D01*
X112387Y453640D01*
X112315Y453621D01*
X112241Y453607D01*
X112168Y453596D01*
X112093Y453589D01*
X112019Y453586D01*
X111944Y453587D01*
X111870Y453592D01*
X111795Y453601D01*
X111722Y453614D01*
X111649Y453630D01*
X111577Y453651D01*
X111507Y453675D01*
X111437Y453703D01*
X111370Y453734D01*
X111304Y453769D01*
X111240Y453808D01*
X111178Y453850D01*
X111118Y453894D01*
X111061Y453943D01*
X111007Y453994D01*
X110955Y454047D01*
X110906Y454104D01*
X110860Y454163D01*
X110818Y454224D01*
X110779Y454288D01*
X110743Y454353D01*
X110710Y454420D01*
X110681Y454489D01*
X110656Y454560D01*
X110635Y454631D01*
X110617Y454704D01*
X110604Y454777D01*
X110594Y454851D01*
X110588Y454925D01*
X110586Y455000D01*
D14*
X96051Y466426D02*
X96051Y474554D01*
X96954Y466426D02*
X95148Y466426D01*
X95148Y474554D02*
X96954Y474554D01*
X88510Y474554D02*
X88421Y474552D01*
X88333Y474546D01*
X88245Y474537D01*
X88157Y474523D01*
X88070Y474506D01*
X87984Y474485D01*
X87899Y474460D01*
X87815Y474431D01*
X87732Y474399D01*
X87651Y474364D01*
X87572Y474324D01*
X87494Y474282D01*
X87418Y474236D01*
X87344Y474187D01*
X87273Y474134D01*
X87204Y474079D01*
X87137Y474020D01*
X87073Y473959D01*
X87012Y473895D01*
X86953Y473828D01*
X86898Y473759D01*
X86845Y473688D01*
X86796Y473614D01*
X86750Y473538D01*
X86708Y473460D01*
X86668Y473381D01*
X86633Y473300D01*
X86601Y473217D01*
X86572Y473133D01*
X86547Y473048D01*
X86526Y472962D01*
X86509Y472875D01*
X86495Y472787D01*
X86486Y472699D01*
X86480Y472611D01*
X86478Y472522D01*
X88510Y474555D02*
X88609Y474553D01*
X88709Y474547D01*
X88808Y474538D01*
X88906Y474525D01*
X89005Y474508D01*
X89102Y474487D01*
X89198Y474463D01*
X89294Y474435D01*
X89388Y474403D01*
X89481Y474368D01*
X89573Y474329D01*
X89663Y474287D01*
X89751Y474241D01*
X89838Y474192D01*
X89923Y474140D01*
X90005Y474084D01*
X90086Y474026D01*
X90164Y473964D01*
X90240Y473900D01*
X90313Y473833D01*
X90384Y473763D01*
X90451Y473690D01*
X90517Y473615D01*
X90579Y473537D01*
X90638Y473457D01*
X90694Y473375D01*
X90747Y473291D01*
X90797Y473204D01*
X90843Y473116D01*
X90886Y473027D01*
X90926Y472935D01*
X90962Y472842D01*
X90994Y472748D01*
X87155Y470941D02*
X87089Y471007D01*
X87026Y471075D01*
X86966Y471146D01*
X86909Y471220D01*
X86855Y471295D01*
X86805Y471373D01*
X86757Y471454D01*
X86714Y471536D01*
X86673Y471620D01*
X86637Y471705D01*
X86604Y471792D01*
X86574Y471880D01*
X86549Y471970D01*
X86527Y472060D01*
X86510Y472152D01*
X86496Y472244D01*
X86486Y472336D01*
X86480Y472429D01*
X86478Y472522D01*
X87155Y470942D02*
X90994Y466426D01*
X86478Y466426D01*
X80090Y466426D02*
X78284Y466426D01*
X80090Y466426D02*
X80173Y466428D01*
X80257Y466434D01*
X80340Y466443D01*
X80422Y466457D01*
X80503Y466474D01*
X80584Y466495D01*
X80664Y466520D01*
X80742Y466548D01*
X80819Y466580D01*
X80895Y466615D01*
X80969Y466654D01*
X81041Y466697D01*
X81111Y466742D01*
X81178Y466791D01*
X81244Y466843D01*
X81307Y466897D01*
X81367Y466955D01*
X81425Y467015D01*
X81479Y467078D01*
X81531Y467144D01*
X81580Y467211D01*
X81626Y467281D01*
X81668Y467353D01*
X81707Y467427D01*
X81742Y467503D01*
X81774Y467580D01*
X81802Y467658D01*
X81827Y467738D01*
X81848Y467819D01*
X81865Y467900D01*
X81879Y467983D01*
X81888Y468065D01*
X81894Y468149D01*
X81896Y468232D01*
X81896Y472748D01*
X81894Y472831D01*
X81888Y472915D01*
X81879Y472998D01*
X81865Y473080D01*
X81848Y473161D01*
X81827Y473242D01*
X81802Y473322D01*
X81774Y473400D01*
X81742Y473477D01*
X81707Y473553D01*
X81668Y473627D01*
X81626Y473699D01*
X81580Y473769D01*
X81531Y473836D01*
X81479Y473902D01*
X81425Y473965D01*
X81367Y474025D01*
X81307Y474083D01*
X81244Y474137D01*
X81178Y474189D01*
X81111Y474238D01*
X81041Y474283D01*
X80969Y474326D01*
X80895Y474365D01*
X80820Y474400D01*
X80742Y474432D01*
X80664Y474460D01*
X80584Y474485D01*
X80504Y474506D01*
X80422Y474523D01*
X80340Y474537D01*
X80257Y474546D01*
X80173Y474552D01*
X80090Y474554D01*
X78284Y474554D01*
D15*
X160540Y419000D02*
X160542Y419062D01*
X160548Y419123D01*
X160557Y419184D01*
X160570Y419244D01*
X160587Y419303D01*
X160608Y419361D01*
X160632Y419418D01*
X160659Y419473D01*
X160690Y419526D01*
X160724Y419578D01*
X160761Y419627D01*
X160801Y419674D01*
X160844Y419718D01*
X160889Y419759D01*
X160937Y419798D01*
X160988Y419834D01*
X161040Y419866D01*
X161094Y419895D01*
X161150Y419921D01*
X161208Y419943D01*
X161266Y419962D01*
X161326Y419977D01*
X161387Y419988D01*
X161448Y419996D01*
X161509Y420000D01*
X161571Y420000D01*
X161632Y419996D01*
X161693Y419988D01*
X161754Y419977D01*
X161814Y419962D01*
X161872Y419943D01*
X161930Y419921D01*
X161986Y419895D01*
X162040Y419866D01*
X162092Y419834D01*
X162143Y419798D01*
X162191Y419759D01*
X162236Y419718D01*
X162279Y419674D01*
X162319Y419627D01*
X162356Y419578D01*
X162390Y419526D01*
X162421Y419473D01*
X162448Y419418D01*
X162472Y419361D01*
X162493Y419303D01*
X162510Y419244D01*
X162523Y419184D01*
X162532Y419123D01*
X162538Y419062D01*
X162540Y419000D01*
X162538Y418938D01*
X162532Y418877D01*
X162523Y418816D01*
X162510Y418756D01*
X162493Y418697D01*
X162472Y418639D01*
X162448Y418582D01*
X162421Y418527D01*
X162390Y418474D01*
X162356Y418422D01*
X162319Y418373D01*
X162279Y418326D01*
X162236Y418282D01*
X162191Y418241D01*
X162143Y418202D01*
X162092Y418166D01*
X162040Y418134D01*
X161986Y418105D01*
X161930Y418079D01*
X161872Y418057D01*
X161814Y418038D01*
X161754Y418023D01*
X161693Y418012D01*
X161632Y418004D01*
X161571Y418000D01*
X161509Y418000D01*
X161448Y418004D01*
X161387Y418012D01*
X161326Y418023D01*
X161266Y418038D01*
X161208Y418057D01*
X161150Y418079D01*
X161094Y418105D01*
X161040Y418134D01*
X160988Y418166D01*
X160937Y418202D01*
X160889Y418241D01*
X160844Y418282D01*
X160801Y418326D01*
X160761Y418373D01*
X160724Y418422D01*
X160690Y418474D01*
X160659Y418527D01*
X160632Y418582D01*
X160608Y418639D01*
X160587Y418697D01*
X160570Y418756D01*
X160557Y418816D01*
X160548Y418877D01*
X160542Y418938D01*
X160540Y419000D01*
D16*
X180464Y430569D02*
X182919Y434047D01*
X180464Y430569D02*
X178008Y434047D01*
X180464Y430569D02*
X180464Y426681D01*
X172944Y434048D02*
X172859Y434046D01*
X172774Y434040D01*
X172690Y434030D01*
X172606Y434017D01*
X172522Y433999D01*
X172440Y433978D01*
X172359Y433953D01*
X172279Y433924D01*
X172200Y433891D01*
X172123Y433855D01*
X172048Y433815D01*
X171974Y433772D01*
X171903Y433726D01*
X171834Y433676D01*
X171767Y433623D01*
X171703Y433567D01*
X171642Y433508D01*
X171583Y433447D01*
X171527Y433383D01*
X171474Y433316D01*
X171424Y433247D01*
X171378Y433176D01*
X171335Y433102D01*
X171295Y433027D01*
X171259Y432950D01*
X171226Y432871D01*
X171197Y432791D01*
X171172Y432710D01*
X171151Y432628D01*
X171133Y432544D01*
X171120Y432460D01*
X171110Y432376D01*
X171104Y432291D01*
X171102Y432206D01*
X172944Y434047D02*
X173040Y434045D01*
X173136Y434039D01*
X173231Y434029D01*
X173326Y434016D01*
X173421Y433998D01*
X173514Y433977D01*
X173607Y433952D01*
X173698Y433923D01*
X173789Y433891D01*
X173878Y433855D01*
X173965Y433815D01*
X174051Y433772D01*
X174135Y433726D01*
X174217Y433676D01*
X174297Y433622D01*
X174374Y433566D01*
X174449Y433506D01*
X174522Y433444D01*
X174592Y433378D01*
X174660Y433310D01*
X174725Y433239D01*
X174786Y433166D01*
X174845Y433090D01*
X174901Y433011D01*
X174953Y432931D01*
X175002Y432848D01*
X175048Y432764D01*
X175090Y432678D01*
X175128Y432590D01*
X175163Y432501D01*
X175195Y432410D01*
X171716Y430774D02*
X171656Y430833D01*
X171599Y430895D01*
X171544Y430959D01*
X171493Y431026D01*
X171444Y431095D01*
X171398Y431165D01*
X171355Y431238D01*
X171315Y431312D01*
X171279Y431388D01*
X171246Y431466D01*
X171216Y431545D01*
X171189Y431625D01*
X171166Y431706D01*
X171147Y431788D01*
X171131Y431870D01*
X171118Y431954D01*
X171109Y432038D01*
X171104Y432122D01*
X171102Y432206D01*
X171716Y430773D02*
X175195Y426681D01*
X171102Y426681D01*
X162482Y435681D02*
X160845Y435681D01*
X162482Y435681D02*
X162560Y435683D01*
X162638Y435688D01*
X162715Y435698D01*
X162792Y435711D01*
X162868Y435727D01*
X162943Y435747D01*
X163017Y435771D01*
X163090Y435798D01*
X163162Y435829D01*
X163232Y435863D01*
X163301Y435900D01*
X163367Y435941D01*
X163432Y435985D01*
X163494Y436031D01*
X163554Y436081D01*
X163612Y436133D01*
X163667Y436188D01*
X163719Y436246D01*
X163769Y436306D01*
X163815Y436368D01*
X163859Y436433D01*
X163900Y436500D01*
X163937Y436568D01*
X163971Y436638D01*
X164002Y436710D01*
X164029Y436783D01*
X164053Y436857D01*
X164073Y436932D01*
X164089Y437008D01*
X164102Y437085D01*
X164112Y437162D01*
X164117Y437240D01*
X164119Y437318D01*
X164119Y441410D01*
X164117Y441488D01*
X164112Y441566D01*
X164102Y441643D01*
X164089Y441720D01*
X164073Y441796D01*
X164053Y441871D01*
X164029Y441945D01*
X164002Y442018D01*
X163971Y442090D01*
X163937Y442160D01*
X163900Y442229D01*
X163859Y442295D01*
X163815Y442360D01*
X163769Y442422D01*
X163719Y442482D01*
X163667Y442540D01*
X163612Y442595D01*
X163554Y442647D01*
X163494Y442697D01*
X163432Y442743D01*
X163367Y442787D01*
X163301Y442828D01*
X163232Y442865D01*
X163162Y442899D01*
X163090Y442930D01*
X163017Y442957D01*
X162943Y442981D01*
X162868Y443001D01*
X162792Y443017D01*
X162715Y443030D01*
X162638Y443040D01*
X162560Y443045D01*
X162482Y443047D01*
X160845Y443047D01*
X155749Y443048D02*
X155664Y443046D01*
X155579Y443040D01*
X155495Y443030D01*
X155411Y443017D01*
X155327Y442999D01*
X155245Y442978D01*
X155164Y442953D01*
X155084Y442924D01*
X155005Y442891D01*
X154928Y442855D01*
X154853Y442815D01*
X154779Y442772D01*
X154708Y442726D01*
X154639Y442676D01*
X154572Y442623D01*
X154508Y442567D01*
X154447Y442508D01*
X154388Y442447D01*
X154332Y442383D01*
X154279Y442316D01*
X154229Y442247D01*
X154183Y442176D01*
X154140Y442102D01*
X154100Y442027D01*
X154064Y441950D01*
X154031Y441871D01*
X154002Y441791D01*
X153977Y441710D01*
X153956Y441628D01*
X153938Y441544D01*
X153925Y441460D01*
X153915Y441376D01*
X153909Y441291D01*
X153907Y441206D01*
X155749Y443047D02*
X155845Y443045D01*
X155941Y443039D01*
X156036Y443029D01*
X156131Y443016D01*
X156226Y442998D01*
X156319Y442977D01*
X156412Y442952D01*
X156503Y442923D01*
X156594Y442891D01*
X156683Y442855D01*
X156770Y442815D01*
X156856Y442772D01*
X156940Y442726D01*
X157022Y442676D01*
X157102Y442622D01*
X157179Y442566D01*
X157254Y442506D01*
X157327Y442444D01*
X157397Y442378D01*
X157465Y442310D01*
X157530Y442239D01*
X157591Y442166D01*
X157650Y442090D01*
X157706Y442011D01*
X157758Y441931D01*
X157807Y441848D01*
X157853Y441764D01*
X157895Y441678D01*
X157933Y441590D01*
X157968Y441501D01*
X158000Y441410D01*
X154522Y439774D02*
X154462Y439833D01*
X154405Y439895D01*
X154350Y439959D01*
X154299Y440026D01*
X154250Y440095D01*
X154204Y440165D01*
X154161Y440238D01*
X154121Y440312D01*
X154085Y440388D01*
X154052Y440466D01*
X154022Y440545D01*
X153995Y440625D01*
X153972Y440706D01*
X153953Y440788D01*
X153937Y440870D01*
X153924Y440954D01*
X153915Y441038D01*
X153910Y441122D01*
X153908Y441206D01*
X154522Y439773D02*
X158000Y435681D01*
X153908Y435681D01*
X150684Y439364D02*
X150682Y439517D01*
X150676Y439670D01*
X150667Y439822D01*
X150653Y439975D01*
X150636Y440127D01*
X150615Y440278D01*
X150590Y440429D01*
X150561Y440579D01*
X150529Y440729D01*
X150492Y440877D01*
X150452Y441025D01*
X150409Y441172D01*
X150361Y441317D01*
X150310Y441461D01*
X150256Y441604D01*
X150197Y441746D01*
X150136Y441885D01*
X150070Y442024D01*
X150071Y442024D02*
X150045Y442094D01*
X150015Y442163D01*
X149983Y442231D01*
X149946Y442297D01*
X149907Y442361D01*
X149864Y442423D01*
X149819Y442482D01*
X149770Y442540D01*
X149719Y442594D01*
X149665Y442647D01*
X149608Y442696D01*
X149549Y442743D01*
X149488Y442786D01*
X149425Y442827D01*
X149360Y442864D01*
X149293Y442899D01*
X149224Y442929D01*
X149154Y442957D01*
X149083Y442980D01*
X149011Y443001D01*
X148938Y443017D01*
X148864Y443030D01*
X148789Y443040D01*
X148714Y443045D01*
X148639Y443047D01*
X148564Y443045D01*
X148489Y443040D01*
X148414Y443030D01*
X148340Y443017D01*
X148267Y443001D01*
X148195Y442980D01*
X148124Y442957D01*
X148054Y442929D01*
X147985Y442899D01*
X147918Y442864D01*
X147853Y442827D01*
X147790Y442786D01*
X147729Y442743D01*
X147670Y442696D01*
X147613Y442647D01*
X147559Y442594D01*
X147508Y442540D01*
X147460Y442482D01*
X147414Y442423D01*
X147371Y442361D01*
X147332Y442297D01*
X147296Y442231D01*
X147263Y442164D01*
X147233Y442094D01*
X147207Y442024D01*
X147142Y441886D01*
X147080Y441746D01*
X147022Y441604D01*
X146967Y441461D01*
X146916Y441317D01*
X146868Y441172D01*
X146825Y441025D01*
X146785Y440878D01*
X146748Y440729D01*
X146716Y440579D01*
X146687Y440429D01*
X146662Y440278D01*
X146641Y440127D01*
X146624Y439975D01*
X146610Y439822D01*
X146601Y439670D01*
X146595Y439517D01*
X146593Y439364D01*
X150685Y439364D02*
X150683Y439211D01*
X150677Y439058D01*
X150668Y438905D01*
X150654Y438753D01*
X150637Y438601D01*
X150616Y438450D01*
X150591Y438299D01*
X150562Y438148D01*
X150530Y437999D01*
X150493Y437850D01*
X150453Y437703D01*
X150410Y437556D01*
X150362Y437411D01*
X150311Y437266D01*
X150256Y437124D01*
X150198Y436982D01*
X150136Y436842D01*
X150071Y436704D01*
X150045Y436634D01*
X150015Y436564D01*
X149983Y436497D01*
X149946Y436431D01*
X149907Y436367D01*
X149864Y436305D01*
X149818Y436246D01*
X149770Y436188D01*
X149719Y436134D01*
X149665Y436081D01*
X149608Y436032D01*
X149549Y435985D01*
X149488Y435942D01*
X149425Y435901D01*
X149360Y435864D01*
X149293Y435829D01*
X149224Y435799D01*
X149154Y435771D01*
X149083Y435748D01*
X149011Y435727D01*
X148938Y435711D01*
X148864Y435698D01*
X148789Y435688D01*
X148714Y435683D01*
X148639Y435681D01*
X147207Y436704D02*
X147142Y436842D01*
X147080Y436982D01*
X147022Y437124D01*
X146967Y437267D01*
X146916Y437411D01*
X146868Y437556D01*
X146825Y437703D01*
X146785Y437851D01*
X146748Y437999D01*
X146716Y438149D01*
X146687Y438299D01*
X146662Y438450D01*
X146641Y438601D01*
X146624Y438753D01*
X146610Y438906D01*
X146601Y439058D01*
X146595Y439211D01*
X146593Y439364D01*
X147207Y436704D02*
X147233Y436633D01*
X147263Y436564D01*
X147296Y436497D01*
X147332Y436431D01*
X147371Y436367D01*
X147414Y436305D01*
X147460Y436246D01*
X147508Y436188D01*
X147559Y436134D01*
X147613Y436081D01*
X147670Y436032D01*
X147729Y435985D01*
X147790Y435942D01*
X147853Y435901D01*
X147918Y435864D01*
X147985Y435829D01*
X148054Y435799D01*
X148124Y435771D01*
X148195Y435748D01*
X148267Y435727D01*
X148340Y435711D01*
X148414Y435698D01*
X148489Y435688D01*
X148564Y435683D01*
X148639Y435681D01*
X150276Y437318D02*
X147002Y441410D01*
X203845Y383681D02*
X205482Y383681D01*
X205560Y383683D01*
X205638Y383688D01*
X205715Y383698D01*
X205792Y383711D01*
X205868Y383727D01*
X205943Y383747D01*
X206017Y383771D01*
X206090Y383798D01*
X206162Y383829D01*
X206232Y383863D01*
X206301Y383900D01*
X206367Y383941D01*
X206432Y383985D01*
X206494Y384031D01*
X206554Y384081D01*
X206612Y384133D01*
X206667Y384188D01*
X206719Y384246D01*
X206769Y384306D01*
X206815Y384368D01*
X206859Y384433D01*
X206900Y384500D01*
X206937Y384568D01*
X206971Y384638D01*
X207002Y384710D01*
X207029Y384783D01*
X207053Y384857D01*
X207073Y384932D01*
X207089Y385008D01*
X207102Y385085D01*
X207112Y385162D01*
X207117Y385240D01*
X207119Y385318D01*
X207119Y389410D01*
X207117Y389488D01*
X207112Y389566D01*
X207102Y389643D01*
X207089Y389720D01*
X207073Y389796D01*
X207053Y389871D01*
X207029Y389945D01*
X207002Y390018D01*
X206971Y390090D01*
X206937Y390160D01*
X206900Y390229D01*
X206859Y390295D01*
X206815Y390360D01*
X206769Y390422D01*
X206719Y390482D01*
X206667Y390540D01*
X206612Y390595D01*
X206554Y390647D01*
X206494Y390697D01*
X206432Y390743D01*
X206367Y390787D01*
X206301Y390828D01*
X206232Y390865D01*
X206162Y390899D01*
X206090Y390930D01*
X206017Y390957D01*
X205943Y390981D01*
X205868Y391001D01*
X205792Y391017D01*
X205715Y391030D01*
X205638Y391040D01*
X205560Y391045D01*
X205482Y391047D01*
X203845Y391047D01*
X198749Y391048D02*
X198664Y391046D01*
X198579Y391040D01*
X198495Y391030D01*
X198411Y391017D01*
X198327Y390999D01*
X198245Y390978D01*
X198164Y390953D01*
X198084Y390924D01*
X198005Y390891D01*
X197928Y390855D01*
X197853Y390815D01*
X197779Y390772D01*
X197708Y390726D01*
X197639Y390676D01*
X197572Y390623D01*
X197508Y390567D01*
X197447Y390508D01*
X197388Y390447D01*
X197332Y390383D01*
X197279Y390316D01*
X197229Y390247D01*
X197183Y390176D01*
X197140Y390102D01*
X197100Y390027D01*
X197064Y389950D01*
X197031Y389871D01*
X197002Y389791D01*
X196977Y389710D01*
X196956Y389628D01*
X196938Y389544D01*
X196925Y389460D01*
X196915Y389376D01*
X196909Y389291D01*
X196907Y389206D01*
X198749Y391047D02*
X198845Y391045D01*
X198941Y391039D01*
X199036Y391029D01*
X199131Y391016D01*
X199226Y390998D01*
X199319Y390977D01*
X199412Y390952D01*
X199503Y390923D01*
X199594Y390891D01*
X199683Y390855D01*
X199770Y390815D01*
X199856Y390772D01*
X199940Y390726D01*
X200022Y390676D01*
X200102Y390622D01*
X200179Y390566D01*
X200254Y390506D01*
X200327Y390444D01*
X200397Y390378D01*
X200465Y390310D01*
X200530Y390239D01*
X200591Y390166D01*
X200650Y390090D01*
X200706Y390011D01*
X200758Y389931D01*
X200807Y389848D01*
X200853Y389764D01*
X200895Y389678D01*
X200933Y389590D01*
X200968Y389501D01*
X201000Y389410D01*
X197522Y387774D02*
X197462Y387833D01*
X197405Y387895D01*
X197350Y387959D01*
X197299Y388026D01*
X197250Y388095D01*
X197204Y388165D01*
X197161Y388238D01*
X197121Y388312D01*
X197085Y388388D01*
X197052Y388466D01*
X197022Y388545D01*
X196995Y388625D01*
X196972Y388706D01*
X196953Y388788D01*
X196937Y388870D01*
X196924Y388954D01*
X196915Y389038D01*
X196910Y389122D01*
X196908Y389206D01*
X197522Y387773D02*
X201000Y383681D01*
X196908Y383681D01*
X189592Y389206D02*
X189594Y389291D01*
X189600Y389376D01*
X189610Y389460D01*
X189623Y389544D01*
X189641Y389628D01*
X189662Y389710D01*
X189687Y389791D01*
X189716Y389871D01*
X189749Y389950D01*
X189785Y390027D01*
X189825Y390102D01*
X189868Y390176D01*
X189914Y390247D01*
X189964Y390316D01*
X190017Y390383D01*
X190073Y390447D01*
X190132Y390508D01*
X190193Y390567D01*
X190257Y390623D01*
X190324Y390676D01*
X190393Y390726D01*
X190464Y390772D01*
X190538Y390815D01*
X190613Y390855D01*
X190690Y390891D01*
X190769Y390924D01*
X190849Y390953D01*
X190930Y390978D01*
X191012Y390999D01*
X191096Y391017D01*
X191180Y391030D01*
X191264Y391040D01*
X191349Y391046D01*
X191434Y391048D01*
X191434Y391047D02*
X191530Y391045D01*
X191626Y391039D01*
X191721Y391029D01*
X191816Y391016D01*
X191911Y390998D01*
X192004Y390977D01*
X192097Y390952D01*
X192188Y390923D01*
X192279Y390891D01*
X192368Y390855D01*
X192455Y390815D01*
X192541Y390772D01*
X192625Y390726D01*
X192707Y390676D01*
X192787Y390622D01*
X192864Y390566D01*
X192939Y390506D01*
X193012Y390444D01*
X193082Y390378D01*
X193150Y390310D01*
X193215Y390239D01*
X193276Y390166D01*
X193335Y390090D01*
X193391Y390011D01*
X193443Y389931D01*
X193492Y389848D01*
X193538Y389764D01*
X193580Y389678D01*
X193618Y389590D01*
X193653Y389501D01*
X193685Y389410D01*
X190206Y387774D02*
X190146Y387833D01*
X190089Y387895D01*
X190034Y387959D01*
X189983Y388026D01*
X189934Y388095D01*
X189888Y388165D01*
X189845Y388238D01*
X189805Y388312D01*
X189769Y388388D01*
X189736Y388466D01*
X189706Y388545D01*
X189679Y388625D01*
X189656Y388706D01*
X189637Y388788D01*
X189621Y388870D01*
X189608Y388954D01*
X189599Y389038D01*
X189594Y389122D01*
X189592Y389206D01*
X190206Y387773D02*
X193685Y383681D01*
X189593Y383681D01*
M02*
