G04 EAGLE Gerber RS-274X export*
G75*
%MOMM*%
%FSLAX34Y34*%
%LPD*%
%INSilkscreen Bottom*%
%IPPOS*%
%AMOC8*
5,1,8,0,0,1.08239X$1,22.5*%
G01*
%ADD10C,0.101600*%
%ADD11C,0.152400*%
%ADD12C,0.200000*%
%ADD13C,0.076200*%
%ADD14C,0.254000*%
%ADD15C,0.400000*%
%ADD16C,0.203200*%


D10*
X212297Y392508D02*
X212297Y396403D01*
X216192Y393806D02*
X206455Y393806D01*
X206455Y393807D02*
X206368Y393809D01*
X206280Y393815D01*
X206194Y393825D01*
X206107Y393838D01*
X206022Y393856D01*
X205937Y393877D01*
X205853Y393902D01*
X205771Y393931D01*
X205690Y393964D01*
X205610Y394000D01*
X205532Y394039D01*
X205456Y394083D01*
X205382Y394129D01*
X205311Y394179D01*
X205241Y394232D01*
X205174Y394288D01*
X205110Y394347D01*
X205048Y394409D01*
X204989Y394473D01*
X204933Y394540D01*
X204880Y394610D01*
X204830Y394681D01*
X204784Y394755D01*
X204740Y394831D01*
X204701Y394909D01*
X204665Y394989D01*
X204632Y395070D01*
X204603Y395152D01*
X204578Y395236D01*
X204557Y395321D01*
X204539Y395406D01*
X204526Y395493D01*
X204516Y395579D01*
X204510Y395667D01*
X204508Y395754D01*
X204508Y396403D01*
X204508Y400319D02*
X205157Y400319D01*
X205157Y400968D01*
X204508Y400968D01*
X204508Y400319D01*
X204508Y405893D02*
X212297Y405893D01*
X212297Y411735D01*
X212295Y411822D01*
X212289Y411910D01*
X212279Y411996D01*
X212266Y412083D01*
X212248Y412168D01*
X212227Y412253D01*
X212202Y412337D01*
X212173Y412419D01*
X212140Y412500D01*
X212104Y412580D01*
X212065Y412658D01*
X212021Y412734D01*
X211975Y412808D01*
X211925Y412879D01*
X211872Y412949D01*
X211816Y413016D01*
X211757Y413080D01*
X211695Y413142D01*
X211631Y413201D01*
X211564Y413257D01*
X211494Y413310D01*
X211423Y413360D01*
X211349Y413406D01*
X211273Y413450D01*
X211195Y413489D01*
X211115Y413525D01*
X211034Y413558D01*
X210952Y413587D01*
X210868Y413612D01*
X210783Y413633D01*
X210698Y413651D01*
X210611Y413664D01*
X210525Y413674D01*
X210437Y413680D01*
X210350Y413682D01*
X204508Y413682D01*
X204508Y409788D02*
X212297Y409788D01*
X204508Y420950D02*
X204508Y424195D01*
X204508Y420950D02*
X204510Y420863D01*
X204516Y420775D01*
X204526Y420689D01*
X204539Y420602D01*
X204557Y420517D01*
X204578Y420432D01*
X204603Y420348D01*
X204632Y420266D01*
X204665Y420185D01*
X204701Y420105D01*
X204740Y420027D01*
X204784Y419951D01*
X204830Y419877D01*
X204880Y419806D01*
X204933Y419736D01*
X204989Y419669D01*
X205048Y419605D01*
X205110Y419543D01*
X205174Y419484D01*
X205241Y419428D01*
X205311Y419375D01*
X205382Y419325D01*
X205456Y419279D01*
X205532Y419235D01*
X205610Y419196D01*
X205690Y419160D01*
X205771Y419127D01*
X205853Y419098D01*
X205937Y419073D01*
X206022Y419052D01*
X206107Y419034D01*
X206194Y419021D01*
X206280Y419011D01*
X206368Y419005D01*
X206455Y419003D01*
X206455Y419002D02*
X209701Y419002D01*
X209701Y419003D02*
X209802Y419005D01*
X209902Y419011D01*
X210002Y419021D01*
X210102Y419034D01*
X210201Y419052D01*
X210300Y419073D01*
X210397Y419098D01*
X210494Y419127D01*
X210589Y419160D01*
X210683Y419196D01*
X210775Y419236D01*
X210866Y419279D01*
X210955Y419326D01*
X211042Y419376D01*
X211128Y419430D01*
X211211Y419487D01*
X211291Y419547D01*
X211370Y419610D01*
X211446Y419677D01*
X211519Y419746D01*
X211589Y419818D01*
X211657Y419892D01*
X211722Y419969D01*
X211783Y420049D01*
X211842Y420131D01*
X211897Y420215D01*
X211949Y420301D01*
X211998Y420389D01*
X212043Y420479D01*
X212085Y420571D01*
X212123Y420664D01*
X212157Y420759D01*
X212188Y420854D01*
X212215Y420951D01*
X212238Y421049D01*
X212258Y421148D01*
X212273Y421248D01*
X212285Y421348D01*
X212293Y421448D01*
X212297Y421549D01*
X212297Y421649D01*
X212293Y421750D01*
X212285Y421850D01*
X212273Y421950D01*
X212258Y422050D01*
X212238Y422149D01*
X212215Y422247D01*
X212188Y422344D01*
X212157Y422439D01*
X212123Y422534D01*
X212085Y422627D01*
X212043Y422719D01*
X211998Y422809D01*
X211949Y422897D01*
X211897Y422983D01*
X211842Y423067D01*
X211783Y423149D01*
X211722Y423229D01*
X211657Y423306D01*
X211589Y423380D01*
X211519Y423452D01*
X211446Y423521D01*
X211370Y423588D01*
X211291Y423651D01*
X211211Y423711D01*
X211128Y423768D01*
X211042Y423822D01*
X210955Y423872D01*
X210866Y423919D01*
X210775Y423962D01*
X210683Y424002D01*
X210589Y424038D01*
X210494Y424071D01*
X210397Y424100D01*
X210300Y424125D01*
X210201Y424146D01*
X210102Y424164D01*
X210002Y424177D01*
X209902Y424187D01*
X209802Y424193D01*
X209701Y424195D01*
X208403Y424195D01*
X208403Y419002D01*
X203210Y428527D02*
X217490Y433720D01*
X216192Y443186D02*
X204508Y443186D01*
X204508Y439941D01*
X204510Y439854D01*
X204516Y439766D01*
X204526Y439680D01*
X204539Y439593D01*
X204557Y439508D01*
X204578Y439423D01*
X204603Y439339D01*
X204632Y439257D01*
X204665Y439176D01*
X204701Y439096D01*
X204740Y439018D01*
X204784Y438942D01*
X204830Y438868D01*
X204880Y438797D01*
X204933Y438727D01*
X204989Y438660D01*
X205048Y438596D01*
X205110Y438534D01*
X205174Y438475D01*
X205241Y438419D01*
X205311Y438366D01*
X205382Y438316D01*
X205456Y438270D01*
X205532Y438226D01*
X205610Y438187D01*
X205690Y438151D01*
X205771Y438118D01*
X205853Y438089D01*
X205937Y438064D01*
X206022Y438043D01*
X206107Y438025D01*
X206194Y438012D01*
X206280Y438002D01*
X206368Y437996D01*
X206455Y437994D01*
X206455Y437993D02*
X210350Y437993D01*
X210350Y437994D02*
X210437Y437996D01*
X210525Y438002D01*
X210611Y438012D01*
X210698Y438025D01*
X210783Y438043D01*
X210868Y438064D01*
X210952Y438089D01*
X211034Y438118D01*
X211115Y438151D01*
X211195Y438187D01*
X211273Y438226D01*
X211349Y438270D01*
X211423Y438316D01*
X211494Y438366D01*
X211564Y438419D01*
X211631Y438475D01*
X211695Y438534D01*
X211757Y438596D01*
X211816Y438660D01*
X211872Y438727D01*
X211925Y438797D01*
X211975Y438868D01*
X212021Y438942D01*
X212065Y439018D01*
X212104Y439096D01*
X212140Y439176D01*
X212173Y439257D01*
X212202Y439339D01*
X212227Y439423D01*
X212248Y439508D01*
X212266Y439593D01*
X212279Y439680D01*
X212289Y439766D01*
X212295Y439854D01*
X212297Y439941D01*
X212297Y443186D01*
X204508Y450287D02*
X204508Y453532D01*
X204508Y450287D02*
X204510Y450200D01*
X204516Y450112D01*
X204526Y450026D01*
X204539Y449939D01*
X204557Y449854D01*
X204578Y449769D01*
X204603Y449685D01*
X204632Y449603D01*
X204665Y449522D01*
X204701Y449442D01*
X204740Y449364D01*
X204784Y449288D01*
X204830Y449214D01*
X204880Y449143D01*
X204933Y449073D01*
X204989Y449006D01*
X205048Y448942D01*
X205110Y448880D01*
X205174Y448821D01*
X205241Y448765D01*
X205311Y448712D01*
X205382Y448662D01*
X205456Y448616D01*
X205532Y448572D01*
X205610Y448533D01*
X205690Y448497D01*
X205771Y448464D01*
X205853Y448435D01*
X205937Y448410D01*
X206022Y448389D01*
X206107Y448371D01*
X206194Y448358D01*
X206280Y448348D01*
X206368Y448342D01*
X206455Y448340D01*
X206455Y448339D02*
X209701Y448339D01*
X209701Y448340D02*
X209802Y448342D01*
X209902Y448348D01*
X210002Y448358D01*
X210102Y448371D01*
X210201Y448389D01*
X210300Y448410D01*
X210397Y448435D01*
X210494Y448464D01*
X210589Y448497D01*
X210683Y448533D01*
X210775Y448573D01*
X210866Y448616D01*
X210955Y448663D01*
X211042Y448713D01*
X211128Y448767D01*
X211211Y448824D01*
X211291Y448884D01*
X211370Y448947D01*
X211446Y449014D01*
X211519Y449083D01*
X211589Y449155D01*
X211657Y449229D01*
X211722Y449306D01*
X211783Y449386D01*
X211842Y449468D01*
X211897Y449552D01*
X211949Y449638D01*
X211998Y449726D01*
X212043Y449816D01*
X212085Y449908D01*
X212123Y450001D01*
X212157Y450096D01*
X212188Y450191D01*
X212215Y450288D01*
X212238Y450386D01*
X212258Y450485D01*
X212273Y450585D01*
X212285Y450685D01*
X212293Y450785D01*
X212297Y450886D01*
X212297Y450986D01*
X212293Y451087D01*
X212285Y451187D01*
X212273Y451287D01*
X212258Y451387D01*
X212238Y451486D01*
X212215Y451584D01*
X212188Y451681D01*
X212157Y451776D01*
X212123Y451871D01*
X212085Y451964D01*
X212043Y452056D01*
X211998Y452146D01*
X211949Y452234D01*
X211897Y452320D01*
X211842Y452404D01*
X211783Y452486D01*
X211722Y452566D01*
X211657Y452643D01*
X211589Y452717D01*
X211519Y452789D01*
X211446Y452858D01*
X211370Y452925D01*
X211291Y452988D01*
X211211Y453048D01*
X211128Y453105D01*
X211042Y453159D01*
X210955Y453209D01*
X210866Y453256D01*
X210775Y453299D01*
X210683Y453339D01*
X210589Y453375D01*
X210494Y453408D01*
X210397Y453437D01*
X210300Y453462D01*
X210201Y453483D01*
X210102Y453501D01*
X210002Y453514D01*
X209902Y453524D01*
X209802Y453530D01*
X209701Y453532D01*
X208403Y453532D01*
X208403Y448339D01*
X209052Y460458D02*
X209052Y463379D01*
X209052Y460458D02*
X209050Y460364D01*
X209044Y460270D01*
X209035Y460177D01*
X209021Y460084D01*
X209004Y459992D01*
X208982Y459900D01*
X208958Y459810D01*
X208929Y459720D01*
X208897Y459632D01*
X208861Y459545D01*
X208821Y459460D01*
X208778Y459377D01*
X208732Y459295D01*
X208682Y459215D01*
X208629Y459138D01*
X208573Y459063D01*
X208514Y458990D01*
X208452Y458919D01*
X208387Y458851D01*
X208319Y458786D01*
X208248Y458724D01*
X208175Y458665D01*
X208100Y458609D01*
X208023Y458556D01*
X207943Y458506D01*
X207861Y458460D01*
X207778Y458417D01*
X207693Y458377D01*
X207606Y458341D01*
X207518Y458309D01*
X207428Y458280D01*
X207338Y458256D01*
X207246Y458234D01*
X207154Y458217D01*
X207061Y458203D01*
X206968Y458194D01*
X206874Y458188D01*
X206780Y458186D01*
X206686Y458188D01*
X206592Y458194D01*
X206499Y458203D01*
X206406Y458217D01*
X206314Y458234D01*
X206222Y458256D01*
X206132Y458280D01*
X206042Y458309D01*
X205954Y458341D01*
X205867Y458377D01*
X205782Y458417D01*
X205699Y458460D01*
X205617Y458506D01*
X205537Y458556D01*
X205460Y458609D01*
X205385Y458665D01*
X205312Y458724D01*
X205241Y458786D01*
X205173Y458851D01*
X205108Y458919D01*
X205046Y458990D01*
X204987Y459063D01*
X204931Y459138D01*
X204878Y459215D01*
X204828Y459295D01*
X204782Y459377D01*
X204739Y459460D01*
X204699Y459545D01*
X204663Y459632D01*
X204631Y459720D01*
X204602Y459810D01*
X204578Y459900D01*
X204556Y459992D01*
X204539Y460084D01*
X204525Y460177D01*
X204516Y460270D01*
X204510Y460364D01*
X204508Y460458D01*
X204508Y463379D01*
X210350Y463379D01*
X210437Y463377D01*
X210525Y463371D01*
X210611Y463361D01*
X210698Y463348D01*
X210783Y463330D01*
X210868Y463309D01*
X210952Y463284D01*
X211034Y463255D01*
X211115Y463222D01*
X211195Y463186D01*
X211273Y463147D01*
X211349Y463103D01*
X211423Y463057D01*
X211494Y463007D01*
X211564Y462954D01*
X211631Y462898D01*
X211695Y462839D01*
X211757Y462777D01*
X211816Y462713D01*
X211872Y462646D01*
X211925Y462576D01*
X211975Y462505D01*
X212021Y462431D01*
X212065Y462355D01*
X212104Y462277D01*
X212140Y462197D01*
X212173Y462116D01*
X212202Y462034D01*
X212227Y461950D01*
X212248Y461865D01*
X212266Y461780D01*
X212279Y461693D01*
X212289Y461607D01*
X212295Y461519D01*
X212297Y461432D01*
X212297Y458835D01*
X204508Y468151D02*
X212297Y473344D01*
X212297Y468151D02*
X204508Y473344D01*
X204508Y477295D02*
X212297Y482488D01*
X212297Y477295D02*
X204508Y482488D01*
D11*
X158052Y19000D02*
X142304Y19000D01*
X158052Y19000D02*
X158052Y51018D01*
X203010Y51018D01*
X203010Y270982D01*
X158052Y270982D01*
X158052Y303000D01*
X87948Y303000D02*
X87948Y270982D01*
X42990Y270982D01*
X42990Y61018D01*
X52990Y51018D01*
X87948Y51018D01*
X87948Y19000D01*
X103696Y19000D01*
X142558Y303000D02*
X158052Y303000D01*
X103696Y303000D02*
X87948Y303000D01*
D12*
X158540Y420000D02*
X158542Y420062D01*
X158548Y420123D01*
X158557Y420184D01*
X158570Y420244D01*
X158587Y420303D01*
X158608Y420361D01*
X158632Y420418D01*
X158659Y420473D01*
X158690Y420526D01*
X158724Y420578D01*
X158761Y420627D01*
X158801Y420674D01*
X158844Y420718D01*
X158889Y420759D01*
X158937Y420798D01*
X158988Y420834D01*
X159040Y420866D01*
X159094Y420895D01*
X159150Y420921D01*
X159208Y420943D01*
X159266Y420962D01*
X159326Y420977D01*
X159387Y420988D01*
X159448Y420996D01*
X159509Y421000D01*
X159571Y421000D01*
X159632Y420996D01*
X159693Y420988D01*
X159754Y420977D01*
X159814Y420962D01*
X159872Y420943D01*
X159930Y420921D01*
X159986Y420895D01*
X160040Y420866D01*
X160092Y420834D01*
X160143Y420798D01*
X160191Y420759D01*
X160236Y420718D01*
X160279Y420674D01*
X160319Y420627D01*
X160356Y420578D01*
X160390Y420526D01*
X160421Y420473D01*
X160448Y420418D01*
X160472Y420361D01*
X160493Y420303D01*
X160510Y420244D01*
X160523Y420184D01*
X160532Y420123D01*
X160538Y420062D01*
X160540Y420000D01*
X160538Y419938D01*
X160532Y419877D01*
X160523Y419816D01*
X160510Y419756D01*
X160493Y419697D01*
X160472Y419639D01*
X160448Y419582D01*
X160421Y419527D01*
X160390Y419474D01*
X160356Y419422D01*
X160319Y419373D01*
X160279Y419326D01*
X160236Y419282D01*
X160191Y419241D01*
X160143Y419202D01*
X160092Y419166D01*
X160040Y419134D01*
X159986Y419105D01*
X159930Y419079D01*
X159872Y419057D01*
X159814Y419038D01*
X159754Y419023D01*
X159693Y419012D01*
X159632Y419004D01*
X159571Y419000D01*
X159509Y419000D01*
X159448Y419004D01*
X159387Y419012D01*
X159326Y419023D01*
X159266Y419038D01*
X159208Y419057D01*
X159150Y419079D01*
X159094Y419105D01*
X159040Y419134D01*
X158988Y419166D01*
X158937Y419202D01*
X158889Y419241D01*
X158844Y419282D01*
X158801Y419326D01*
X158761Y419373D01*
X158724Y419422D01*
X158690Y419474D01*
X158659Y419527D01*
X158632Y419582D01*
X158608Y419639D01*
X158587Y419697D01*
X158570Y419756D01*
X158557Y419816D01*
X158548Y419877D01*
X158542Y419938D01*
X158540Y420000D01*
D13*
X179498Y401919D02*
X177042Y398441D01*
X174587Y401919D01*
X177042Y398441D02*
X177042Y394553D01*
X171773Y400282D02*
X169727Y401919D01*
X169727Y394553D01*
X171773Y394553D02*
X167681Y394553D01*
D14*
X102000Y406000D02*
X72000Y406000D01*
X117000Y432000D02*
X117000Y448500D01*
X64500Y448500D02*
X57000Y448500D01*
X57000Y432000D01*
X109500Y448500D02*
X117000Y448500D01*
D15*
X110586Y455000D02*
X110588Y455075D01*
X110594Y455149D01*
X110604Y455223D01*
X110617Y455296D01*
X110635Y455369D01*
X110656Y455440D01*
X110681Y455511D01*
X110710Y455580D01*
X110743Y455647D01*
X110779Y455712D01*
X110818Y455776D01*
X110860Y455837D01*
X110906Y455896D01*
X110955Y455953D01*
X111007Y456006D01*
X111061Y456057D01*
X111118Y456106D01*
X111178Y456150D01*
X111240Y456192D01*
X111304Y456231D01*
X111370Y456266D01*
X111437Y456297D01*
X111507Y456325D01*
X111577Y456349D01*
X111649Y456370D01*
X111722Y456386D01*
X111795Y456399D01*
X111870Y456408D01*
X111944Y456413D01*
X112019Y456414D01*
X112093Y456411D01*
X112168Y456404D01*
X112241Y456393D01*
X112315Y456379D01*
X112387Y456360D01*
X112458Y456338D01*
X112528Y456312D01*
X112597Y456282D01*
X112663Y456249D01*
X112728Y456212D01*
X112791Y456172D01*
X112852Y456128D01*
X112910Y456082D01*
X112966Y456032D01*
X113019Y455980D01*
X113070Y455925D01*
X113117Y455867D01*
X113161Y455807D01*
X113202Y455744D01*
X113240Y455680D01*
X113274Y455614D01*
X113305Y455545D01*
X113332Y455476D01*
X113355Y455405D01*
X113374Y455333D01*
X113390Y455260D01*
X113402Y455186D01*
X113410Y455112D01*
X113414Y455037D01*
X113414Y454963D01*
X113410Y454888D01*
X113402Y454814D01*
X113390Y454740D01*
X113374Y454667D01*
X113355Y454595D01*
X113332Y454524D01*
X113305Y454455D01*
X113274Y454386D01*
X113240Y454320D01*
X113202Y454256D01*
X113161Y454193D01*
X113117Y454133D01*
X113070Y454075D01*
X113019Y454020D01*
X112966Y453968D01*
X112910Y453918D01*
X112852Y453872D01*
X112791Y453828D01*
X112728Y453788D01*
X112663Y453751D01*
X112597Y453718D01*
X112528Y453688D01*
X112458Y453662D01*
X112387Y453640D01*
X112315Y453621D01*
X112241Y453607D01*
X112168Y453596D01*
X112093Y453589D01*
X112019Y453586D01*
X111944Y453587D01*
X111870Y453592D01*
X111795Y453601D01*
X111722Y453614D01*
X111649Y453630D01*
X111577Y453651D01*
X111507Y453675D01*
X111437Y453703D01*
X111370Y453734D01*
X111304Y453769D01*
X111240Y453808D01*
X111178Y453850D01*
X111118Y453894D01*
X111061Y453943D01*
X111007Y453994D01*
X110955Y454047D01*
X110906Y454104D01*
X110860Y454163D01*
X110818Y454224D01*
X110779Y454288D01*
X110743Y454353D01*
X110710Y454420D01*
X110681Y454489D01*
X110656Y454560D01*
X110635Y454631D01*
X110617Y454704D01*
X110604Y454777D01*
X110594Y454851D01*
X110588Y454925D01*
X110586Y455000D01*
D16*
X96051Y466426D02*
X96051Y474554D01*
X96954Y466426D02*
X95148Y466426D01*
X95148Y474554D02*
X96954Y474554D01*
X88510Y474554D02*
X88421Y474552D01*
X88333Y474546D01*
X88245Y474537D01*
X88157Y474523D01*
X88070Y474506D01*
X87984Y474485D01*
X87899Y474460D01*
X87815Y474431D01*
X87732Y474399D01*
X87651Y474364D01*
X87572Y474324D01*
X87494Y474282D01*
X87418Y474236D01*
X87344Y474187D01*
X87273Y474134D01*
X87204Y474079D01*
X87137Y474020D01*
X87073Y473959D01*
X87012Y473895D01*
X86953Y473828D01*
X86898Y473759D01*
X86845Y473688D01*
X86796Y473614D01*
X86750Y473538D01*
X86708Y473460D01*
X86668Y473381D01*
X86633Y473300D01*
X86601Y473217D01*
X86572Y473133D01*
X86547Y473048D01*
X86526Y472962D01*
X86509Y472875D01*
X86495Y472787D01*
X86486Y472699D01*
X86480Y472611D01*
X86478Y472522D01*
X88510Y474555D02*
X88609Y474553D01*
X88709Y474547D01*
X88808Y474538D01*
X88906Y474525D01*
X89005Y474508D01*
X89102Y474487D01*
X89198Y474463D01*
X89294Y474435D01*
X89388Y474403D01*
X89481Y474368D01*
X89573Y474329D01*
X89663Y474287D01*
X89751Y474241D01*
X89838Y474192D01*
X89923Y474140D01*
X90005Y474084D01*
X90086Y474026D01*
X90164Y473964D01*
X90240Y473900D01*
X90313Y473833D01*
X90384Y473763D01*
X90451Y473690D01*
X90517Y473615D01*
X90579Y473537D01*
X90638Y473457D01*
X90694Y473375D01*
X90747Y473291D01*
X90797Y473204D01*
X90843Y473116D01*
X90886Y473027D01*
X90926Y472935D01*
X90962Y472842D01*
X90994Y472748D01*
X87155Y470941D02*
X87089Y471007D01*
X87026Y471075D01*
X86966Y471146D01*
X86909Y471220D01*
X86855Y471295D01*
X86805Y471373D01*
X86757Y471454D01*
X86714Y471536D01*
X86673Y471620D01*
X86637Y471705D01*
X86604Y471792D01*
X86574Y471880D01*
X86549Y471970D01*
X86527Y472060D01*
X86510Y472152D01*
X86496Y472244D01*
X86486Y472336D01*
X86480Y472429D01*
X86478Y472522D01*
X87155Y470942D02*
X90994Y466426D01*
X86478Y466426D01*
X80090Y466426D02*
X78284Y466426D01*
X80090Y466426D02*
X80173Y466428D01*
X80257Y466434D01*
X80340Y466443D01*
X80422Y466457D01*
X80503Y466474D01*
X80584Y466495D01*
X80664Y466520D01*
X80742Y466548D01*
X80819Y466580D01*
X80895Y466615D01*
X80969Y466654D01*
X81041Y466697D01*
X81111Y466742D01*
X81178Y466791D01*
X81244Y466843D01*
X81307Y466897D01*
X81367Y466955D01*
X81425Y467015D01*
X81479Y467078D01*
X81531Y467144D01*
X81580Y467211D01*
X81626Y467281D01*
X81668Y467353D01*
X81707Y467427D01*
X81742Y467503D01*
X81774Y467580D01*
X81802Y467658D01*
X81827Y467738D01*
X81848Y467819D01*
X81865Y467900D01*
X81879Y467983D01*
X81888Y468065D01*
X81894Y468149D01*
X81896Y468232D01*
X81896Y472748D01*
X81894Y472831D01*
X81888Y472915D01*
X81879Y472998D01*
X81865Y473080D01*
X81848Y473161D01*
X81827Y473242D01*
X81802Y473322D01*
X81774Y473400D01*
X81742Y473477D01*
X81707Y473553D01*
X81668Y473627D01*
X81626Y473699D01*
X81580Y473769D01*
X81531Y473836D01*
X81479Y473902D01*
X81425Y473965D01*
X81367Y474025D01*
X81307Y474083D01*
X81244Y474137D01*
X81178Y474189D01*
X81111Y474238D01*
X81041Y474283D01*
X80969Y474326D01*
X80895Y474365D01*
X80820Y474400D01*
X80742Y474432D01*
X80664Y474460D01*
X80584Y474485D01*
X80504Y474506D01*
X80422Y474523D01*
X80340Y474537D01*
X80257Y474546D01*
X80173Y474552D01*
X80090Y474554D01*
X78284Y474554D01*
M02*
