G04 EAGLE Gerber RS-274X export*
G75*
%MOMM*%
%FSLAX34Y34*%
%LPD*%
%INSolderpaste Bottom*%
%IPPOS*%
%AMOC8*
5,1,8,0,0,1.08239X$1,22.5*%
G01*
%ADD10R,3.600000X2.600000*%
%ADD11R,1.200000X2.000000*%
%ADD12R,0.600000X1.350000*%
%ADD13R,0.950000X0.850000*%
%ADD14C,0.270000*%


D10*
X123000Y14500D03*
X123000Y307500D03*
D11*
X115000Y415250D03*
X59000Y415250D03*
D12*
X102000Y452000D03*
X92000Y452000D03*
X82000Y452000D03*
X72000Y452000D03*
D13*
X168750Y418750D03*
X183250Y418750D03*
X183250Y407250D03*
X168750Y407250D03*
D14*
X160670Y430650D02*
X157970Y430650D01*
X160670Y430650D02*
X160670Y427350D01*
X157970Y427350D01*
X157970Y430650D01*
X157970Y429915D02*
X160670Y429915D01*
X152030Y430650D02*
X149330Y430650D01*
X152030Y430650D02*
X152030Y427350D01*
X149330Y427350D01*
X149330Y430650D01*
X149330Y429915D02*
X152030Y429915D01*
X199970Y398650D02*
X202670Y398650D01*
X202670Y395350D01*
X199970Y395350D01*
X199970Y398650D01*
X199970Y397915D02*
X202670Y397915D01*
X194030Y398650D02*
X191330Y398650D01*
X194030Y398650D02*
X194030Y395350D01*
X191330Y395350D01*
X191330Y398650D01*
X191330Y397915D02*
X194030Y397915D01*
M02*
