G04 EAGLE Gerber RS-274X export*
G75*
%MOMM*%
%FSLAX34Y34*%
%LPD*%
%INSoldermask Bottom*%
%IPPOS*%
%AMOC8*
5,1,8,0,0,1.08239X$1,22.5*%
G01*
%ADD10C,2.006600*%
%ADD11C,1.285000*%
%ADD12C,0.827000*%
%ADD13R,3.727000X2.727000*%
%ADD14R,1.327000X2.127000*%
%ADD15R,0.727000X1.477000*%
%ADD16R,1.077000X0.977000*%
%ADD17C,0.400200*%


D10*
X10000Y29000D03*
X10000Y54400D03*
X10000Y79800D03*
X10000Y105200D03*
X10000Y130600D03*
X10000Y156000D03*
X10000Y181400D03*
X10000Y206800D03*
X10000Y232200D03*
X10000Y257600D03*
X10000Y283000D03*
X10000Y308400D03*
X10000Y333800D03*
X10000Y359200D03*
X10000Y384600D03*
X10000Y410000D03*
X10000Y435400D03*
X10000Y460800D03*
X10000Y486200D03*
X238300Y29000D03*
X238300Y54400D03*
X238300Y79800D03*
X238300Y105200D03*
X238300Y130600D03*
X238300Y156000D03*
X238300Y181400D03*
X238300Y206800D03*
X238300Y232200D03*
X238300Y257600D03*
X238300Y283000D03*
X238300Y308400D03*
X238300Y333800D03*
X238300Y359200D03*
X238300Y384600D03*
X238300Y410000D03*
X238300Y435400D03*
X238300Y460800D03*
X238300Y486200D03*
D11*
X79800Y76590D02*
X79800Y65010D01*
X166200Y65010D02*
X166200Y76590D01*
X79800Y34790D02*
X79800Y23210D01*
X166200Y23210D02*
X166200Y34790D01*
D12*
X94100Y65500D03*
X151900Y65500D03*
D13*
X123000Y14500D03*
X123000Y307500D03*
D14*
X115000Y415250D03*
X59000Y415250D03*
D15*
X102000Y452000D03*
X92000Y452000D03*
X82000Y452000D03*
X72000Y452000D03*
D16*
X168750Y418750D03*
X183250Y418750D03*
X183250Y407250D03*
X168750Y407250D03*
D17*
X160654Y430634D02*
X157986Y430634D01*
X160654Y430634D02*
X160654Y427366D01*
X157986Y427366D01*
X157986Y430634D01*
X152014Y430634D02*
X149346Y430634D01*
X152014Y430634D02*
X152014Y427366D01*
X149346Y427366D01*
X149346Y430634D01*
X199986Y398634D02*
X202654Y398634D01*
X202654Y395366D01*
X199986Y395366D01*
X199986Y398634D01*
X194014Y398634D02*
X191346Y398634D01*
X194014Y398634D02*
X194014Y395366D01*
X191346Y395366D01*
X191346Y398634D01*
M02*
