G04 EAGLE Gerber RS-274X export*
G75*
%MOMM*%
%FSLAX34Y34*%
%LPD*%
%INSoldermask Top*%
%IPPOS*%
%AMOC8*
5,1,8,0,0,1.08239X$1,22.5*%
G01*
%ADD10R,1.627000X0.777000*%
%ADD11R,0.777000X1.627000*%
%ADD12C,2.006600*%
%ADD13R,0.677000X1.327000*%
%ADD14R,2.495000X2.530600*%
%ADD15R,1.127000X1.027000*%
%ADD16R,1.027000X1.127000*%
%ADD17C,0.428259*%
%ADD18R,0.667000X0.727000*%
%ADD19R,1.227000X1.127000*%
%ADD20R,0.727000X0.667000*%
%ADD21R,0.727000X1.577000*%
%ADD22R,0.427000X1.577000*%
%ADD23C,1.285000*%
%ADD24C,0.827000*%
%ADD25C,0.326738*%
%ADD26R,1.127000X1.527000*%
%ADD27R,0.927000X0.727000*%
%ADD28C,0.379778*%
%ADD29C,0.272459*%
%ADD30R,0.635000X1.397000*%
%ADD31R,1.100000X0.400000*%
%ADD32R,1.127000X1.227000*%


D10*
X43100Y453400D03*
X43100Y442400D03*
X43100Y431400D03*
X43100Y420400D03*
X43100Y409400D03*
X43100Y398400D03*
X43100Y387400D03*
X43100Y376400D03*
X43100Y365400D03*
X43100Y354400D03*
X43100Y343400D03*
X43100Y332400D03*
D11*
X59300Y308900D03*
X70300Y308900D03*
X81300Y308900D03*
X92300Y308900D03*
X103300Y308900D03*
X114300Y308900D03*
X125300Y308900D03*
D10*
X43100Y464400D03*
X207000Y453400D03*
X207000Y442400D03*
X207000Y431400D03*
X207000Y420400D03*
X207000Y409400D03*
X207000Y398400D03*
X207000Y387400D03*
X207000Y376400D03*
X207000Y365400D03*
X207000Y354400D03*
X207000Y343400D03*
X207000Y332400D03*
X207000Y464400D03*
D11*
X136300Y308900D03*
X147300Y308900D03*
X158300Y308900D03*
X169300Y308900D03*
X180300Y308900D03*
X191300Y308900D03*
D12*
X10000Y29000D03*
X10000Y54400D03*
X10000Y79800D03*
X10000Y105200D03*
X10000Y130600D03*
X10000Y156000D03*
X10000Y181400D03*
X10000Y206800D03*
X10000Y232200D03*
X10000Y257600D03*
X10000Y283000D03*
X10000Y308400D03*
X10000Y333800D03*
X10000Y359200D03*
X10000Y384600D03*
X10000Y410000D03*
X10000Y435400D03*
X10000Y460800D03*
X10000Y486200D03*
X238300Y29000D03*
X238300Y54400D03*
X238300Y79800D03*
X238300Y105200D03*
X238300Y130600D03*
X238300Y156000D03*
X238300Y181400D03*
X238300Y206800D03*
X238300Y232200D03*
X238300Y257600D03*
X238300Y283000D03*
X238300Y308400D03*
X238300Y333800D03*
X238300Y359200D03*
X238300Y384600D03*
X238300Y410000D03*
X238300Y435400D03*
X238300Y460800D03*
X238300Y486200D03*
D13*
X172500Y192999D03*
X182000Y192999D03*
X191500Y192999D03*
X191500Y219001D03*
X172500Y219001D03*
D14*
X129000Y184000D03*
X66576Y184000D03*
D15*
X41000Y48500D03*
X57000Y48500D03*
X57000Y7500D03*
X41000Y7500D03*
D16*
X161500Y261000D03*
X161500Y277000D03*
X202500Y277000D03*
X202500Y261000D03*
D17*
X16724Y515506D02*
X16724Y522494D01*
X16724Y515506D02*
X9736Y515506D01*
X9736Y522494D01*
X16724Y522494D01*
X16724Y519575D02*
X9736Y519575D01*
X34264Y522494D02*
X34264Y515506D01*
X27276Y515506D01*
X27276Y522494D01*
X34264Y522494D01*
X34264Y519575D02*
X27276Y519575D01*
X234276Y522494D02*
X234276Y515506D01*
X234276Y522494D02*
X241264Y522494D01*
X241264Y515506D01*
X234276Y515506D01*
X234276Y519575D02*
X241264Y519575D01*
X216736Y522494D02*
X216736Y515506D01*
X216736Y522494D02*
X223724Y522494D01*
X223724Y515506D01*
X216736Y515506D01*
X216736Y519575D02*
X223724Y519575D01*
D18*
X225680Y504000D03*
X234320Y504000D03*
X25320Y504000D03*
X16680Y504000D03*
D19*
X173000Y178000D03*
X190000Y178000D03*
X173000Y235000D03*
X190000Y235000D03*
D15*
X190000Y48500D03*
X206000Y48500D03*
X206000Y7500D03*
X190000Y7500D03*
D20*
X158000Y186320D03*
X158000Y177680D03*
D21*
X90500Y79950D03*
X98500Y79950D03*
D22*
X120500Y79950D03*
X115500Y79950D03*
X110500Y79950D03*
X105500Y79950D03*
X125500Y79950D03*
X130500Y79950D03*
X135500Y79950D03*
X140500Y79950D03*
D21*
X147500Y79950D03*
X155500Y79950D03*
D23*
X79800Y76590D02*
X79800Y65010D01*
X166200Y65010D02*
X166200Y76590D01*
X79800Y34790D02*
X79800Y23210D01*
X166200Y23210D02*
X166200Y34790D01*
D24*
X94100Y65500D03*
X151900Y65500D03*
D20*
X90000Y118320D03*
X90000Y109680D03*
D25*
X56498Y128748D02*
X56498Y137652D01*
X58502Y137652D01*
X58502Y128748D01*
X56498Y128748D01*
X56498Y131852D02*
X58502Y131852D01*
X58502Y134956D02*
X56498Y134956D01*
X49998Y137652D02*
X49998Y128748D01*
X49998Y137652D02*
X52002Y137652D01*
X52002Y128748D01*
X49998Y128748D01*
X49998Y131852D02*
X52002Y131852D01*
X52002Y134956D02*
X49998Y134956D01*
X43498Y137652D02*
X43498Y128748D01*
X43498Y137652D02*
X45502Y137652D01*
X45502Y128748D01*
X43498Y128748D01*
X43498Y131852D02*
X45502Y131852D01*
X45502Y134956D02*
X43498Y134956D01*
X45502Y119252D02*
X45502Y110348D01*
X43498Y110348D01*
X43498Y119252D01*
X45502Y119252D01*
X45502Y113452D02*
X43498Y113452D01*
X43498Y116556D02*
X45502Y116556D01*
X52002Y119252D02*
X52002Y110348D01*
X49998Y110348D01*
X49998Y119252D01*
X52002Y119252D01*
X52002Y113452D02*
X49998Y113452D01*
X49998Y116556D02*
X52002Y116556D01*
X58502Y119252D02*
X58502Y110348D01*
X56498Y110348D01*
X56498Y119252D01*
X58502Y119252D01*
X58502Y113452D02*
X56498Y113452D01*
X56498Y116556D02*
X58502Y116556D01*
D20*
X165000Y111320D03*
X165000Y102680D03*
D26*
X188000Y113000D03*
X178500Y135000D03*
X197500Y135000D03*
D27*
X174500Y153000D03*
X199500Y153000D03*
D20*
X211000Y144680D03*
X211000Y153320D03*
D28*
X117386Y111914D02*
X107514Y111914D01*
X107514Y119286D01*
X117386Y119286D01*
X117386Y111914D01*
X117386Y115522D02*
X107514Y115522D01*
X107514Y119130D02*
X117386Y119130D01*
D29*
X117923Y96177D02*
X106977Y96177D01*
X106977Y100623D01*
X117923Y100623D01*
X117923Y96177D01*
X117923Y98766D02*
X106977Y98766D01*
X128077Y96177D02*
X139023Y96177D01*
X128077Y96177D02*
X128077Y100623D01*
X139023Y100623D01*
X139023Y96177D01*
X139023Y98766D02*
X128077Y98766D01*
X128077Y115377D02*
X139023Y115377D01*
X128077Y115377D02*
X128077Y119823D01*
X139023Y119823D01*
X139023Y115377D01*
X139023Y117966D02*
X128077Y117966D01*
D30*
X90000Y267130D03*
X102700Y267130D03*
X115400Y267130D03*
X77300Y267130D03*
X64600Y267130D03*
X64600Y218870D03*
X77300Y218870D03*
X90000Y218870D03*
X102700Y218870D03*
X115400Y218870D03*
D31*
X145500Y132000D03*
X145500Y137000D03*
X145500Y142000D03*
X145500Y147000D03*
X145500Y152000D03*
X100500Y152000D03*
X100500Y147000D03*
X100500Y142000D03*
X100500Y137000D03*
X100500Y132000D03*
D32*
X75000Y99500D03*
X75000Y116500D03*
M02*
