G04 EAGLE Gerber RS-274X export*
G75*
%MOMM*%
%FSLAX34Y34*%
%LPD*%
%INSolderpaste Top*%
%IPPOS*%
%AMOC8*
5,1,8,0,0,1.08239X$1,22.5*%
G01*
%ADD10R,1.500000X0.650000*%
%ADD11R,0.650000X1.500000*%
%ADD12R,0.550000X1.200000*%
%ADD13R,2.368000X2.403600*%
%ADD14R,1.000000X0.900000*%
%ADD15R,0.900000X1.000000*%
%ADD16C,0.300000*%
%ADD17R,0.540000X0.600000*%
%ADD18R,1.100000X1.000000*%
%ADD19R,0.600000X0.540000*%
%ADD20R,0.600000X1.450000*%
%ADD21R,0.300000X1.450000*%
%ADD22C,0.200000*%
%ADD23R,1.000000X1.400000*%
%ADD24R,0.800000X0.600000*%
%ADD25C,0.247500*%
%ADD26C,0.147500*%
%ADD27R,0.508000X1.270000*%
%ADD28R,0.875000X0.250000*%
%ADD29R,1.000000X1.100000*%


D10*
X43100Y453400D03*
X43100Y442400D03*
X43100Y431400D03*
X43100Y420400D03*
X43100Y409400D03*
X43100Y398400D03*
X43100Y387400D03*
X43100Y376400D03*
X43100Y365400D03*
X43100Y354400D03*
X43100Y343400D03*
X43100Y332400D03*
D11*
X59300Y308900D03*
X70300Y308900D03*
X81300Y308900D03*
X92300Y308900D03*
X103300Y308900D03*
X114300Y308900D03*
X125300Y308900D03*
D10*
X43100Y464400D03*
X207000Y453400D03*
X207000Y442400D03*
X207000Y431400D03*
X207000Y420400D03*
X207000Y409400D03*
X207000Y398400D03*
X207000Y387400D03*
X207000Y376400D03*
X207000Y365400D03*
X207000Y354400D03*
X207000Y343400D03*
X207000Y332400D03*
X207000Y464400D03*
D11*
X136300Y308900D03*
X147300Y308900D03*
X158300Y308900D03*
X169300Y308900D03*
X180300Y308900D03*
X191300Y308900D03*
D12*
X172500Y192999D03*
X182000Y192999D03*
X191500Y192999D03*
X191500Y219001D03*
X172500Y219001D03*
D13*
X129000Y184000D03*
X66576Y184000D03*
D14*
X41000Y48500D03*
X57000Y48500D03*
X57000Y7500D03*
X41000Y7500D03*
D15*
X161500Y258000D03*
X161500Y274000D03*
X202500Y274000D03*
X202500Y258000D03*
D16*
X16730Y515500D02*
X16730Y522500D01*
X16730Y515500D02*
X9730Y515500D01*
X9730Y522500D01*
X16730Y522500D01*
X16730Y518350D02*
X9730Y518350D01*
X9730Y521200D02*
X16730Y521200D01*
X34270Y522500D02*
X34270Y515500D01*
X27270Y515500D01*
X27270Y522500D01*
X34270Y522500D01*
X34270Y518350D02*
X27270Y518350D01*
X27270Y521200D02*
X34270Y521200D01*
X234270Y522500D02*
X234270Y515500D01*
X234270Y522500D02*
X241270Y522500D01*
X241270Y515500D01*
X234270Y515500D01*
X234270Y518350D02*
X241270Y518350D01*
X241270Y521200D02*
X234270Y521200D01*
X216730Y522500D02*
X216730Y515500D01*
X216730Y522500D02*
X223730Y522500D01*
X223730Y515500D01*
X216730Y515500D01*
X216730Y518350D02*
X223730Y518350D01*
X223730Y521200D02*
X216730Y521200D01*
D17*
X225680Y504000D03*
X234320Y504000D03*
X25320Y504000D03*
X16680Y504000D03*
D18*
X173000Y178000D03*
X190000Y178000D03*
X173000Y235000D03*
X190000Y235000D03*
D14*
X190000Y48500D03*
X206000Y48500D03*
X206000Y7500D03*
X190000Y7500D03*
D19*
X158000Y186320D03*
X158000Y177680D03*
D20*
X90500Y79950D03*
X98500Y79950D03*
D21*
X120500Y79950D03*
X115500Y79950D03*
X110500Y79950D03*
X105500Y79950D03*
X125500Y79950D03*
X130500Y79950D03*
X135500Y79950D03*
X140500Y79950D03*
D20*
X147500Y79950D03*
X155500Y79950D03*
D19*
X90000Y118320D03*
X90000Y109680D03*
D22*
X56500Y128750D02*
X56500Y137650D01*
X58500Y137650D01*
X58500Y128750D01*
X56500Y128750D01*
X56500Y130650D02*
X58500Y130650D01*
X58500Y132550D02*
X56500Y132550D01*
X56500Y134450D02*
X58500Y134450D01*
X58500Y136350D02*
X56500Y136350D01*
X50000Y137650D02*
X50000Y128750D01*
X50000Y137650D02*
X52000Y137650D01*
X52000Y128750D01*
X50000Y128750D01*
X50000Y130650D02*
X52000Y130650D01*
X52000Y132550D02*
X50000Y132550D01*
X50000Y134450D02*
X52000Y134450D01*
X52000Y136350D02*
X50000Y136350D01*
X43500Y137650D02*
X43500Y128750D01*
X43500Y137650D02*
X45500Y137650D01*
X45500Y128750D01*
X43500Y128750D01*
X43500Y130650D02*
X45500Y130650D01*
X45500Y132550D02*
X43500Y132550D01*
X43500Y134450D02*
X45500Y134450D01*
X45500Y136350D02*
X43500Y136350D01*
X45500Y119250D02*
X45500Y110350D01*
X43500Y110350D01*
X43500Y119250D01*
X45500Y119250D01*
X45500Y112250D02*
X43500Y112250D01*
X43500Y114150D02*
X45500Y114150D01*
X45500Y116050D02*
X43500Y116050D01*
X43500Y117950D02*
X45500Y117950D01*
X52000Y119250D02*
X52000Y110350D01*
X50000Y110350D01*
X50000Y119250D01*
X52000Y119250D01*
X52000Y112250D02*
X50000Y112250D01*
X50000Y114150D02*
X52000Y114150D01*
X52000Y116050D02*
X50000Y116050D01*
X50000Y117950D02*
X52000Y117950D01*
X58500Y119250D02*
X58500Y110350D01*
X56500Y110350D01*
X56500Y119250D01*
X58500Y119250D01*
X58500Y112250D02*
X56500Y112250D01*
X56500Y114150D02*
X58500Y114150D01*
X58500Y116050D02*
X56500Y116050D01*
X56500Y117950D02*
X58500Y117950D01*
D19*
X165000Y111320D03*
X165000Y102680D03*
D23*
X188000Y113000D03*
X178500Y135000D03*
X197500Y135000D03*
D24*
X174500Y153000D03*
X199500Y153000D03*
D19*
X211000Y144680D03*
X211000Y153320D03*
D25*
X117413Y111887D02*
X107487Y111887D01*
X107487Y119313D01*
X117413Y119313D01*
X117413Y111887D01*
X117413Y114238D02*
X107487Y114238D01*
X107487Y116589D02*
X117413Y116589D01*
X117413Y118940D02*
X107487Y118940D01*
D26*
X106987Y96187D02*
X117913Y96187D01*
X106987Y96187D02*
X106987Y100613D01*
X117913Y100613D01*
X117913Y96187D01*
X117913Y97588D02*
X106987Y97588D01*
X106987Y98989D02*
X117913Y98989D01*
X117913Y100390D02*
X106987Y100390D01*
X128087Y96187D02*
X139013Y96187D01*
X128087Y96187D02*
X128087Y100613D01*
X139013Y100613D01*
X139013Y96187D01*
X139013Y97588D02*
X128087Y97588D01*
X128087Y98989D02*
X139013Y98989D01*
X139013Y100390D02*
X128087Y100390D01*
X128087Y115387D02*
X139013Y115387D01*
X128087Y115387D02*
X128087Y119813D01*
X139013Y119813D01*
X139013Y115387D01*
X139013Y116788D02*
X128087Y116788D01*
X128087Y118189D02*
X139013Y118189D01*
X139013Y119590D02*
X128087Y119590D01*
D27*
X90000Y267130D03*
X102700Y267130D03*
X115400Y267130D03*
X77300Y267130D03*
X64600Y267130D03*
X64600Y218870D03*
X77300Y218870D03*
X90000Y218870D03*
X102700Y218870D03*
X115400Y218870D03*
D28*
X145625Y132000D03*
X145625Y137000D03*
X145625Y142000D03*
X145625Y147000D03*
X145625Y152000D03*
X100375Y152000D03*
X100375Y147000D03*
X100375Y142000D03*
X100375Y137000D03*
X100375Y132000D03*
D29*
X75000Y99500D03*
X75000Y116500D03*
M02*
