M48
;GenerationSoftware,Autodesk,EAGLE,9.6.2*%
;CreationDate,2022-05-07T09:39:36Z*%
FMAT,2
ICI,OFF
METRIC,TZ,000.000
T4C0.300
T3C0.650
T2C0.700
T1C1.016
%
G90
M71
T1
X1000Y5440
X23830Y2900
X23830Y43540
X23830Y46080
X1000Y2900
X1000Y18140
X1000Y7980
X1000Y10520
X1000Y13060
X1000Y15600
X23830Y48620
X1000Y20680
X1000Y23220
X1000Y25760
X1000Y28300
X1000Y30840
X1000Y33380
X1000Y35920
X1000Y38460
X1000Y41000
X1000Y43540
X1000Y46080
X1000Y48620
X23830Y5440
X23830Y7980
X23830Y10520
X23830Y13060
X23830Y15600
X23830Y18140
X23830Y20680
X23830Y23220
X23830Y25760
X23830Y28300
X23830Y30840
X23830Y33380
X23830Y35920
X23830Y38460
X23830Y41000
T2
X9410Y6550
X15190Y6550
T3
X16620Y2900
X7980Y7080
X16620Y7080
X7980Y2900
T4
X1900Y1300
X3200Y9200
X5900Y39500
X5500Y26800
X8300Y27900
X10500Y3900
X14800Y3800
X5300Y8700
X9000Y5600
X6400Y7000
X18300Y22100
X4700Y10400
X22500Y44900
X4900Y2900
X19800Y2800
X21400Y6600
X8800Y19600
X11200Y20100
X14700Y20300
X5400Y20800
X10100Y17200
X10800Y6500
X19300Y45300
X13300Y45000
X15400Y45000
X17400Y45000
X11200Y39400
X13500Y38100
X10900Y37400
X12100Y36000
X14200Y40400
X15600Y38600
X9000Y40900
X13000Y42700
X8600Y36900
X16700Y14300
X16000Y39900
X23000Y37200
X22900Y39800
X19300Y34300
X17500Y36600
X13500Y27000
X15000Y22600
X19700Y29200
X12800Y23200
X6800Y13200
X19100Y48600
X13500Y34200
X12500Y33600
X11400Y33200
X10300Y32800
X10300Y33800
X10300Y25500
X9500Y34200
X9000Y25500
X8400Y33600
X7800Y25500
X8700Y35100
X6500Y25500
X5600Y33300
X5600Y34300
X5600Y35400
X5600Y36500
X7000Y38000
X4900Y24300
X8000Y38700
X4500Y14400
X5600Y44300
X5600Y45300
X4300Y16100
X5600Y46400
X15800Y34900
X15900Y28900
X17100Y16200
X19300Y37600
X19300Y36500
X16900Y35000
X19400Y43100
X5000Y16900
X18800Y9100
X15800Y16900
X15700Y9500
X12300Y12300
X12100Y6700
X13400Y6700
X5800Y14400
X17400Y24900
X18600Y15900
X8700Y14900
X7600Y12800
X19421Y41994
X22400Y47000
X20700Y50400
X24500Y50000
X15000Y32300
X5400Y49500
X6200Y48700
X7000Y49500
X8600Y49500
X10200Y49500
X11800Y49500
X13400Y49500
X15000Y49500
X16600Y49500
X18200Y49500
X19800Y49500
X7800Y48700
X9400Y48700
X11000Y48700
X12700Y48700
X14200Y48700
X15900Y48600
X17500Y48600
X17700Y29600
X2100Y44800
X6100Y50400
X7900Y50400
X9400Y50400
X11000Y50400
X12600Y50400
X14200Y50400
X15800Y50400
X17400Y50400
X19100Y50400
X4600Y50400
X600Y50400
X4500Y48700
X20700Y48700
X22700Y11800
X23200Y1100
X22700Y14300
X19700Y20800
X5300Y7500
X20800Y8500
X22000Y3600
X19445Y40930
M30