G04 EAGLE Gerber RS-274X export*
G75*
%MOMM*%
%FSLAX34Y34*%
%LPD*%
%INSoldermask Bottom*%
%IPPOS*%
%AMOC8*
5,1,8,0,0,1.08239X$1,22.5*%
G01*
%ADD10C,2.082800*%
%ADD11R,2.606800X2.571200*%
%ADD12C,1.361200*%
%ADD13C,0.903200*%
%ADD14R,3.803200X2.803200*%
%ADD15R,1.403200X2.203200*%
%ADD16R,0.803200X1.553200*%


D10*
X10000Y29000D03*
X10000Y54400D03*
X10000Y79800D03*
X10000Y105200D03*
X10000Y130600D03*
X10000Y156000D03*
X10000Y181400D03*
X10000Y206800D03*
X10000Y232200D03*
X10000Y257600D03*
X10000Y283000D03*
X10000Y308400D03*
X10000Y333800D03*
X10000Y359200D03*
X10000Y384600D03*
X10000Y410000D03*
X10000Y435400D03*
X10000Y460800D03*
X10000Y486200D03*
X238300Y29000D03*
X238300Y54400D03*
X238300Y79800D03*
X238300Y105200D03*
X238300Y130600D03*
X238300Y156000D03*
X238300Y181400D03*
X238300Y206800D03*
X238300Y232200D03*
X238300Y257600D03*
X238300Y283000D03*
X238300Y308400D03*
X238300Y333800D03*
X238300Y359200D03*
X238300Y384600D03*
X238300Y410000D03*
X238300Y435400D03*
X238300Y460800D03*
X238300Y486200D03*
D11*
X107788Y359788D03*
X107788Y422212D03*
D12*
X79800Y76590D02*
X79800Y65010D01*
X166200Y65010D02*
X166200Y76590D01*
X79800Y34790D02*
X79800Y23210D01*
X166200Y23210D02*
X166200Y34790D01*
D13*
X94100Y65500D03*
X151900Y65500D03*
D14*
X123000Y14500D03*
X123000Y307500D03*
D15*
X196000Y393250D03*
X140000Y393250D03*
D16*
X183000Y430000D03*
X173000Y430000D03*
X163000Y430000D03*
X153000Y430000D03*
M02*
