M48
;GenerationSoftware,Autodesk,EAGLE,9.6.2*%
;CreationDate,2021-11-16T17:42:11Z*%
FMAT,2
ICI,OFF
METRIC,TZ,000.000
T4C0.300
T3C0.650
T2C0.700
T1C1.016
%
G90
M71
T1
X1000Y5440
X23830Y2900
X23830Y43540
X23830Y46080
X1000Y2900
X1000Y18140
X1000Y7980
X1000Y10520
X1000Y13060
X1000Y15600
X23830Y48620
X1000Y20680
X1000Y23220
X1000Y25760
X1000Y28300
X1000Y30840
X1000Y33380
X1000Y35920
X1000Y38460
X1000Y41000
X1000Y43540
X1000Y46080
X1000Y48620
X23830Y5440
X23830Y7980
X23830Y10520
X23830Y13060
X23830Y15600
X23830Y18140
X23830Y20680
X23830Y23220
X23830Y25760
X23830Y28300
X23830Y30840
X23830Y33380
X23830Y35920
X23830Y38460
X23830Y41000
T2
X9410Y6550
X15190Y6550
T3
X16620Y2900
X7980Y7080
X16620Y7080
X7980Y2900
T4
X17900Y41500
X19700Y20800
X9900Y39800
X6100Y40500
X15300Y42900
X7300Y42900
X14600Y20500
X5000Y21400
X5600Y8100
X17100Y9900
X16300Y12800
X20800Y8500
X22000Y3600
X12700Y27800
X19400Y34700
X1900Y1300
X3200Y9200
X5000Y20000
X11000Y23400
X15100Y24000
X18400Y25600
X12000Y39900
X10100Y38100
X12100Y38100
X17200Y43000
X5900Y39500
X12800Y20500
X12800Y26500
X5500Y26800
X8300Y27900
X8600Y13900
X10500Y3900
X14800Y3800
X5900Y9400
X9000Y5600
X6400Y7000
X14600Y18700
X18300Y22100
X4700Y10400
X22500Y44900
X4900Y2900
X19800Y2800
X9100Y45100
X13300Y45100
X17200Y45000
X19400Y41400
X7000Y45000
X19100Y48600
X21400Y6600
X18000Y27900
X6800Y13200
X13500Y34200
X12500Y33600
X11400Y33200
X10300Y32800
X10300Y33800
X10300Y25500
X9500Y34200
X9000Y25500
X8400Y33600
X7800Y25500
X8700Y35100
X6500Y25500
X5600Y33300
X5600Y34300
X5600Y35400
X5600Y36500
X7000Y38000
X4900Y24300
X8000Y38700
X4500Y14400
X5600Y46400
X4300Y16100
X15800Y34900
X15900Y28100
X17100Y16200
X19300Y37600
X19300Y36500
X16900Y35000
X19400Y43100
X5100Y16900
X18800Y9100
X15800Y16800
X12500Y15400
X15700Y9500
X12300Y12300
X12100Y6700
X13400Y6700
X6200Y18400
X5800Y14400
X17400Y24900
X18600Y15900
X10800Y6700
X22400Y47000
X20700Y50400
X24500Y50000
X14800Y29600
X5400Y49500
X6200Y48700
X7000Y49500
X8600Y49500
X10200Y49500
X11800Y49500
X13400Y49500
X15000Y49500
X16600Y49500
X18200Y49500
X19800Y49500
X7800Y48700
X9400Y48700
X11000Y48700
X12700Y48700
X14200Y48700
X15900Y48600
X17500Y48600
X5600Y45000
X2100Y44800
X6100Y50400
X7900Y50400
X9400Y50400
X11000Y50400
X12600Y50400
X14200Y50400
X15800Y50400
X17400Y50400
X19100Y50400
X4600Y50400
X600Y50400
X4500Y48700
X20700Y48700
X22700Y11800
X23200Y1100
X22700Y14300
X12400Y11100
X6100Y20000
X15000Y32300
X19400Y39300
X7400Y9400
M30